/* XPM */
static char *_2[] = {
/* columns rows colors chars-per-pixel */
"64 64 203 2 ",
"   c #2F2C4A",
".  c #2E2C47",
"X  c #322D4C",
"o  c #332D47",
"O  c #2E2F51",
"+  c #312F51",
"@  c #2F3254",
"#  c #333255",
"$  c #3D3B55",
"%  c #34355C",
"&  c #38365B",
"*  c #36385F",
"=  c #3C3B5B",
"-  c #333760",
";  c #353B64",
":  c #3C3C63",
">  c #353E69",
",  c #3B3F6A",
"<  c #393760",
"1  c #413D5B",
"2  c #433D57",
"3  c #403E62",
"4  c #3C4265",
"5  c #35436C",
"6  c #3C436C",
"7  c #3B496C",
"8  c #374163",
"9  c #364572",
"0  c #3D4572",
"q  c #374972",
"w  c #3B4B74",
"e  c #3D4D7A",
"r  c #3B5076",
"t  c #3E527B",
"y  c #4E4554",
"u  c #44415C",
"i  c #4F4958",
"p  c #534D5C",
"a  c #514952",
"s  c #6A5E56",
"d  c #6F624D",
"f  c #72644F",
"g  c #6C6057",
"h  c #746551",
"j  c #766953",
"k  c #796B56",
"l  c #70655A",
"z  c #7C6E5A",
"x  c #75695F",
"c  c #7E725C",
"v  c #434264",
"b  c #4A4663",
"n  c #4D4963",
"m  c #43456B",
"M  c #45496D",
"N  c #524C63",
"B  c #555166",
"V  c #424673",
"C  c #444B74",
"Z  c #484C74",
"A  c #434E7A",
"S  c #494E7A",
"D  c #445275",
"F  c #4A5175",
"G  c #44537D",
"H  c #4A537C",
"J  c #45587D",
"K  c #4A5A7C",
"L  c #7B6F64",
"P  c #7E7362",
"I  c #786E72",
"U  c #81735E",
"Y  c #837661",
"T  c #857964",
"R  c #897C66",
"E  c #867B69",
"W  c #8A7E69",
"Q  c #83776B",
"!  c #867A71",
"~  c #8C816B",
"^  c #91846D",
"/  c #8F837E",
"(  c #928572",
")  c #968A75",
"_  c #9C8C75",
"`  c #968E7D",
"'  c #9B8B78",
"]  c #9F917A",
"[  c #A2957E",
"{  c #445481",
"}  c #4A5682",
"|  c #455A83",
" . c #4B5B85",
".. c #4C5D89",
"X. c #515E86",
"o. c #515F8C",
"O. c #476186",
"+. c #4C6186",
"@. c #4D638B",
"#. c #4E698D",
"$. c #51648C",
"%. c #526B8D",
"&. c #56678B",
"*. c #4F6C91",
"=. c #4F6690",
"-. c #516691",
";. c #546C92",
":. c #5B6E94",
">. c #567294",
",. c #5B7494",
"<. c #5D7997",
"1. c #57739A",
"2. c #5D7599",
"3. c #5E7A9A",
"4. c #607E8B",
"5. c #617A96",
"6. c #627D9A",
"7. c #617496",
"8. c #5F7CA1",
"9. c #667AA0",
"0. c #70878E",
"q. c #6D8A94",
"w. c #65829C",
"e. c #6A869E",
"r. c #6A8B9D",
"t. c #6C8693",
"y. c #728995",
"u. c #718A98",
"i. c #76929C",
"p. c #7C949D",
"a. c #7E9A9F",
"s. c #7E9395",
"d. c #6D8BA3",
"f. c #6785A1",
"g. c #718FA5",
"h. c #728EA9",
"j. c #6F93A4",
"k. c #7493A4",
"l. c #7C96A2",
"z. c #7D9BA3",
"x. c #7B9AA8",
"c. c #7494A9",
"v. c #9D9484",
"b. c #9E968C",
"n. c #9F998B",
"m. c #85999E",
"M. c #899D9E",
"N. c #9E9890",
"B. c #978C85",
"V. c #A49681",
"C. c #A19689",
"Z. c #A49B8C",
"A. c #AB9E8E",
"S. c #A79B80",
"D. c #A59E90",
"F. c #AA9F90",
"G. c #A49C98",
"H. c #83A09E",
"J. c #8CA39F",
"K. c #90A39F",
"L. c #AAA08F",
"P. c #A7A092",
"I. c #ADA192",
"U. c #AAA49E",
"Y. c #A6A09A",
"T. c #B2A595",
"R. c #B6A999",
"E. c #BAAC9C",
"W. c #B8AC94",
"Q. c #BDB29B",
"!. c #839DA4",
"~. c #899EA3",
"^. c #829FA9",
"/. c #8297A1",
"(. c #84A1A5",
"). c #8CA4A5",
"_. c #85A2A9",
"`. c #8BA5A9",
"'. c #8EABA9",
"]. c #92A5A1",
"[. c #93AAA5",
"{. c #91A6A9",
"}. c #93AAA9",
"|. c #9AAEA8",
" X c #9BB2A8",
".X c #AEA9A3",
"XX c #B3AEA5",
"oX c #BDB4A2",
"OX c #BEB8A6",
"+X c #BFB9A9",
"@X c #B8B1A8",
"#X c #A4B7A8",
"$X c #C4B69B",
"%X c #C1B4A4",
"&X c #C1BAA6",
"*X c #C4BDAB",
"=X c #C8BFAE",
"-X c #C7BEB0",
";X c #C8BFB0",
":X c #C6C0AE",
">X c #C8C2AF",
",X c #C7C0B0",
"<X c #C8C0B0",
/* pixels */
"T.T.T.R.R.E.E.E.E.%X%XE.%X%X%X%X%X%X%X%XOX%X&X&X&X+X&X+XOXOXOXOXoXoXQ.OXoX@XQ.Q.Q.@XQ.XXQ.OX#XOXOXOXOXOX*X*X*X&X*X*X*X*X*X*X*X*X",
"T.T.R.R.E.E.E.oXE.E.R.%X%X%X%X%X%X%X&X*X&X&X+X*X+X*X&X&X&X%XOXOXOXOXOXOXoXoXOXOXOXoXOXOXOXOXOXOXOXOXOX:X*X*X*X*X*X*X<X*X*X=X*X*X",
"T.T.R.E.E.E.E.E.%XE.%X%X%XoX%X%X&X&X&X&X&X+X&X+X*XOX&X*X&X*X*X&XOXOXOXoX#XOX@XOXQ.OXQ.OXQ.OXOXOXOX:X:XOX*X*X*X*X*X=X*X*X*X*X=X=X",
"T.T.R.E.E.E.%XE.oX%X%X%X%X%X%X%X&X*X&X&X*X*X*X*X:X*X*X&X*X&X*X&X+X+XOXOXQ.OXOXQ.OXOXOXOXOXOXOXOXOXQ.:X:X:X*X*X:X>X*X;X:X-X-X=X*X",
"T.R.E.E.E.E.E.%XoX%X%X%X%X%X%X&X*X&X&X*X*X*X=X%X&X*X*X*X*X*X&X&X*X&X&XOX&XOXOXOXOXOXOXOX+XOX&X+X:X&X&X*X:X*X*X:X;X*X:X*X-X*X;X;X",
"T.R.T.E.E.E.oXE.%X%X%X%X%X%X%X*X&X&X*X*X%X=X%X=X*X*X*X*X*X&X*X&XOXOX*XOX&X&XOXOXOXOXOX&X&X+X*X*XOX:X*X:X*X:X:X*X-X-X,X,X:X-X-X-X",
"T.R.E.E.E.E.Q.oX%X%X%X%X%X%X*X+X*X*X*X&X=X*X*X*X*X*X=X*X*X*X*X*X:X&X*X*X*X&X&X*XOX&XOXOX&X:X*X&X:X&X*X&X:X:X:X:X>X;X<X-X-X-X-X-X",
"R.E.E.E.E.E.oXoXoX%X%X+X%X*X&X&X&X&X=X=X&X*X*X*X*X*X*X*X*X*X*X*X&X:X&X*X&X+X*X&X:XOX:X:X+X&X*X*X&X:X:X:X:X*X*X:X>X-X,X,X*X-X;X*X",
"T.E.E.E.E.E.E.%X%X%X%X%X%X%X*X%X*X=X&X%X=X=X*X=X*X:X:X*X*X*X*X*X*X*X*X+X*X*X&X*X*X&X:X:X*X*X*X*X:X*X:X*X*X:X*X*X>X:X:X*X:X:X*X,X",
"R.E.E.E.E.E.%XE.%X%X%X%X%X%X*X*X=X%X=X&X*X*X*X=X:X,X*X:X:X*X*X*X*X*X&X:X&X*X*X*X&X:X:XOX*X+X*X:X:X,X*X:X:X:X:X,X>X>X*X:X:X*X*X:X",
"E.E.E.E.%XE.%X%X%X%X%X%X%X%X%X*X=X=X*X*X*X*X*X*X:X*X:X*X*X*X=X*X*X*X:X*X*X*X*X*X:X&X&X:X:X:X*X:X*X*X*X*X:X*X:X*X>X:X*X:X:X*X:X*X",
"R.E.E.oXE.E.E.%X%X%X%X%X%X%X*X%X%X%X*X*X*X*X*X=X*X:X,X*X*X:X*X*X*X*X*X*X*X*X*X*X&X:X&X:X:X*X:X*X:X:X:X*X:X:X*X*X>X:X:X*X:X:X,X*X",
"E.R.E.E.E.%XE.E.%X%X%X%X=X=X%X%X*X%X-X*X*X*X*X*X,X:X*X:X*X:X*X*X*X*X*X*X*X*X*X:X:X&X*X:X:X*X*X:X*X*X:X*X:X+X,X:X:X:X:X*X*X:X*X*X",
"E.E.E.%XE.E.%X%X%X%X%X%X%X%X%X=X%X*X*X*X*X*X*X*X:X*X:X+X*X:X*X:X*X:X*X:X*X*X*X*X:X:X:X:X:X:X:X:X,X:X:X:X:X*X:X:X:X*X:X:X:X*X*X*X",
"E.E.E.E.E.%X%XE.%X%X%X%X%X*X=X%X*X*X*X*X*X*X*X*X*X*X:X*X*X*X*X*X:X*X:X*X:X&X*X*X:X:X:X*X*X:X:X:X:X:X+X,X,X:X,X*X:X*X:X:X*X*X*X*X",
"E.E.E.E.E.E.E.%X%X%XE.%X%X%X%X%X%X&X%X%X*X&X*X*X*X*X:X*X*X:X*X*X*X*X*X*X&X*X*X*X&X:X:X*X+X+X@XXXXX.XU.|.Y.G.N.N.b.b.Q.&X*X*X*X*X",
"E.E.E.%XE.E.E.%X! 1 3 2 3 3 S S Z Z C C C D D m D D D J K K K K K  .K H  .K X.X.X... . .X.} S A A A F M m v v = 2 $ ] :X:X:X&X*X",
"E.E.E.E.E.%XE.%X! 2 3 3 3 3 3 3 Z m C C D M K D A D J  .| D | | J J &.| ......$. .} ..{ } } } S A H A M m 3 v $ $ $ [ $X*X&X&X*X",
"E.E.E.E.E.%X%XoX/ 3 S 3 3 3 S S S S S } H $.K D C t :.+.+.+.+.%.$.7.$.| | ;.9.@.$.....o.o.$.} A S H H A M m v b 1 1 Z.&X*X*X*X&X",
"R.E.%XE.E.E.%XE.A.3 3 3 S S B } S S } H J { J  .J  .K $.$.@.@.@.+...$.-.@...@.;.-.-.o.-...} ..} } S S Z V M m v = $ W.&X*X&X&X&X",
"R.R.E.R.E.E.oXoXC.3 3 3 3 } V V A }  . .} { .. .....+. .@.;.;.-.#.#.;.=.-.-.$.@.-.;.-.o.} o.....} } S Z Z Z m 3 $ $ W.:X&X&X&X*X",
"%XR.%X%XE.%X%XE.A.1 3 3 } 3 S S H } } } G J @.-.;.%.%.+.2.2.>.@.| ;.1.8.8.1.-.-.7.-.1.{ { -.....} } S S Z V m 3 u u $X&X&X*XOX+X",
"R.R.E.E.E.E.E.E.E.3 3 S S } V S A S  .{ G  .e._.}._.`.`._._.`.7.,.'.}.'.{.h.;.=.-.-...{ } ..@.{ H S S C Z V 3 3 $ $ &X&X*X&X&X&X",
"R.R.R.R.%XE.oXE.%X3 3 3 } 3 S S { } } o.} +.d.x.{.l.{.x.z.c.`.h.,.h.}.z. X_.h.-.;.-.2.......| @.S o.S A V Z Z 3 = $ &X&X+X%XOX%X",
"R.R.R.%XE.E.%XE.%X3 3 3 V S S } S { ....@. .3.^. X~.'.3.d._.[.x.;.$.6.}.}.|.|.g.%.:.-.;...{ ....} }  .S C Z m m 1 2 &X&X%X%XOX%X",
"R.R.R.R.E.E.R.E.E.3 3 3 V S S } } } o.o...$.6.k.t.x.`.2.f.h. Xx.2.;.#.w.}.!.#X^.c.w.,.-.=.| { | }  .H } V S m v v u %X%X%X%X%XoX",
"R.R.R.R.R.E.R.%X%XB 3 S 3 S S S } ..G $.@.@.<.'./.~.0.6.6.>.3.e.2.;.;.@.<._.^./.p.c.5.<.$...| G { } A S C C V m 4 b %X%X%X%X%X%X",
"T.R.R.R.E.E.R.E.E.3 3 3 V { V A A { } { ....;.j.'. Xz.`.3.*.>.>.;.>.#.%.<.d. X X|.`.k.,.$.@.G ..$.} H S A C m m v i %X%X%X%X%XoX",
"R.R.R.R.%XT.E.E.%X3 3 V 3 S S { { { ....| @.&.&.d.z.z.`._.3.<.#.>.%.7.O.;.2.f._.~._.i.c.>.&. .{ { { } A C V m 3 < n %X%X%X%X%XE.",
"T.R.R.R.R.R.E.E.%X3 3 3 V S A S { A e { G ..%.@.O.c.[.].s.x.#.*.+.7.,.:.1.2.3.w._._._. Xc.&. .{ G o.G A V V 6 : 3 p %X%X%XE.E.%X",
"T.R.R.R.R.%XR.E.%XB 3 3 , V A { { { { .. .@.-.;.| O.c.[.'.m.l.>.6.k.d.f.f.r.x.c.~.`.i.!.`.e...e C } G A V 6 V 3 3 N %X%X%X%X%XE.",
"T.R.R.R.R.R.R.R.E.3 3 3 3 V 0 V { { { { |  .<.z.<.*.;.p.s.z.[.<.g.~.l.l./.y.a.`.[.`.!.a.).g...{ A w A C V m , 3 : B %X%XE.E.%XE.",
"T.T.T.R.R.R.R.E.E.n < , , V V V 0 { { | G t 5.).z.<.<.z.t.[.(.,.d.~.~.y.z.y.~.`._.!.w.y.).k.+.G G { 0 C V 0 : < = B %XoXE.%XE.E.",
"T.T.T.R.R.R.R.R.R.N < , V C 0 V e { e { e { >.].K.).f.p.q.i.(.#.w.).].a.c.l.k.z.(.z.q.z.[.r.+.| e w 0 6 0 3 : & = B oX$XE.E.E.E.",
"I.T.T.T.T.T.R.T.R.N < < , V , 0 0 e e { e { #.z.J.H.H.a.i.z.H.%.5.i.m.u.(.z.w.<.6.<.5.%.%.O.t G e e 0 0 6 , : & % B E.E.E.R.E.R.",
"A.T.I.I.T.R.T.T.R.p < < , 0 , 0 , 0 e { { e { *.<.<.<.*.#.*.2.;.6.a.J.s.K.r.%.| J @.$.+.G r t G w A 0 , , 6 : & # N E.R.R.R.R.R.",
"A.A.I.T.T.T.T.T.T.N # & , , 0 0 { , e e { e e | O.O.O.*.#.O.%.+.w.r.a.a.M.<.>.+.J +.| | t w e e C e C 6 > > < * + p E.R.R.R.T.T.",
"I.T.I.I.T.T.T.R.T.N # # % - , 0 , { e { w A e 9 q r | | %.O.#.%.>.t.t.i.J.6.O.+.+. .+.D G q 5 5 9 C > 0 ; : : & # p E.R.R.R.R.T.",
"A.I.I.I.T.T.T.R.T.p + & & < < - > , > 9 w w q e r  .e t t | | J &.4.w.<.w.O.J t t r w D q w w 6 C > > ; - * % + + p E.R.R.R.R.T.",
"A.I.I.T.T.T.T.T.T.N + + + < > > > , 9 e q e e 5 e t t | t t | t J J J r t r t t G r r q 0 7 > , 0 > > * < % + + X p R.E.R.R.R.R.",
"A.A.T.A.$XT.T.T.T.y . + + % % - > > > > > > 0 e 5 q q r r w w t 7 7 K w r q r r w 7 q ; 4 7 6 ; > ; > - @ @ @ . o i R.E.R.R.R.R.",
"A.A.A.A.A.A.T.R.T.y o + + # - < - > - - > 0 m 5 > ; D r w 7 q r w K 7 q 5 C J 7 7 5 5 5 7 7 ; - ; 4 % # @ # + X X y E.E.R.R.R.R.",
"A.T.A.T.A.T.T.T.T.y . o + + + + - % - - ; ; ; 5 > ; : 3 7 7 7 7 7 7 7 7 7 8 m 7 4 7 8 8 ; * : * # @ # # @   X o o a E.R.E.T.R.W.",
"A.A.T.A.A.T.A.T.T.Q s s s l l L I L Q Q ! ( ( ) ' ' B.] ] V.[ [ V.V.S.[ [ [ [ [ [ [ [ [ ] ] _ ' _ _ _ ) ( ( ~ ^ ' [ R.R.T.E.T.T.",
"A.A.A.T.T.A.T.T.T.T.T.T.T.T.R.T.T.R.R.R.R.R.R.E.R.R.E.E.R.$XE.R.E.E.E.E.E.E.E.E.Q.Q.oXR.E.E.E.E.E.E.E.E.E.E.R.E.E.E.E.R.E.T.T.R.",
"A.A.A.A.A.T.A.T.T.T.T.T.T.T.T.T.T.T.R.R.E.R.R.R.R.R.R.R.R.R.R.E.E.E.E.E.R.E.R.E.E.E.R.E.E.E.E.E.R.R.R.R.R.R.R.R.T.R.T.R.T.T.T.T.",
"A.A.A.A.A.T.A.T.T.T.T.T.T.T.T.T.T.T.T.R.R.R.R.R.R.R.R.R.R.R.W.R.T.E.T.E.R.E.E.E.R.E.R.E.R.R.E.R.R.R.R.R.R.E.R.R.R.R.R.R.R.T.T.R.",
"A.A.T.A.A.A.A.A.I.I.I.I.I.I.T.T.T.T.I.T.T.R.T.T.T.T.R.T.R.T.T.W.R.E.E.T.R.R.T.E.R.E.R.R.R.R.R.R.R.R.R.T.R.R.R.R.T.T.T.T.T.T.T.T.",
"S.A.A.A.A.A.A.T.A.T.T.A.T.T.A.T.T.T.T.T.T.T.T.T.T.T.T.T.T.T.T.T.W.R.R.R.R.T.W.W.R.R.R.R.R.R.R.R.T.R.T.R.R.T.R.T.T.R.T.R.T.T.T.T.",
"A.A.A.S.A.A.A.A.A.A.A.T.A.T.A.T.T.T.I.T.T.I.T.T.T.T.T.T.T.T.T.T.T.R.T.T.T.T.T.T.R.T.R.T.T.T.R.T.T.T.T.T.T.R.T.T.T.T.T.T.T.T.T.T.",
"V.A.A.A.A.A.A.A.T.T.A.A.A.T.T.T.T.A.T.A.I.T.I.T.I.T.T.T.T.T.T.T.T.T.T.T.T.T.T.T.T.T.R.T.T.R.T.T.R.T.T.R.T.T.T.W.T.T.T.T.T.T.T.T.",
"A.V.A.A.A.A.A.A.A.A.A.T.T.A.T.A.T.A.T.T.T.I.T.A.T.T.T.T.T.T.T.T.T.T.T.T.T.T.T.T.T.T.T.T.T.T.R.T.T.T.T.T.T.R.T.T.R.T.R.T.T.T.T.T.",
"V.A.A.A.A.C.A.A.A.T.A.A.A.A.A.T.I.T.I.T.I.T.I.T.I.T.I.T.T.T.T.T.T.T.T.I.T.T.T.T.R.T.T.T.T.T.T.T.T.T.T.T.T.T.T.T.T.T.T.T.T.T.I.I.",
"C.C.C.A.A.A.A.A.A.A.A.T.A.T.A.A.I.I.I.I.A.I.I.A.I.I.T.T.T.A.I.T.T.T.T.T.T.T.T.T.T.T.T.T.T.T.T.T.T.T.T.T.T.T.T.T.T.T.T.T.T.T.T.I.",
"A.C.A.A.A.A.A.A.A.A.A.A.A.A.T.A.I.I.I.A.I.F.I.T.I.I.I.A.A.I.T.T.I.T.T.I.T.T.T.T.T.T.I.T.T.I.T.T.T.T.T.T.T.T.T.T.T.T.T.T.T.I.F.T.",
"C.A.C.A.A.A.A.C.A.T.A.A.T.A.A.T.A.T.I.T.A.T.A.T.A.I.A.T.I.I.A.I.I.T.T.T.T.T.I.I.T.T.T.T.T.T.T.W.T.T.T.T.R.T.T.T.T.T.I.T.T.T.I.A.",
"Z.Z.Z.Z.Z.A.A.D.A.A.F.F.F.F.F.F.P.F.T.F.F.I.L.P.P.I.L.I.I.L.L.L.I.T.T.I.I.I.T.I.T.T.L.T.L.T.T.L.I.I.T.T.T.T.T.T.I.T.I.I.L.L.L.A.",
"n.Z.Z.Z.Z.D.Z.Z.A.A.A.A.F.F.F.G.P.P.A.Z.Z.A.A.P.L.Z.L.P.L.A.L.L.A.A.F.F.F.I.I.I.I.P.I.I.T.L.I.L.I.I.I.P.I.I.I.P.A.A.I.L.L.P.F.I.",
"n.D.P.P.F.G.D.D.A.A.I.G.Y.D.F.F.I.P.F.F.F.P.P.P.P.I.I.Y.P.P.P.P.A.G.F.F.I.I.F.T.L.P.P.T.I.P.P.L.T.T.P.T.T.T.P.I.I.P.P.L.Z.D.D.Z.",
"B.b.b.b.Z.Z.Z.C.C.C.A.C.Z.Z.D.D.Z.D.Z.A.Z.Z.Z.Z.P.Z.Z.Z.Z.Z.P.P.A.A.F.F.D.D.A.D.P.Z.P.C.Z.Z.Z.Z.n.n.Z.n.n.n.n.v.C.C.C.v.` ` B.] ",
"P P E ~ E E E E Y Y Y Q T E T E W W T T E W R T c c c c c c c c P T T c W W ~ E ~ R R T E T E ~ ~ ~ T ~ R ~ ~ E E E T Y P c T c ",
"h h j h h h h j k U k h h Y Y Y Y U Y Y U R U U c z c T U R T ~ R R R U Y Y R Y U U P T U E T T P T T ~ ~ ~ ~ R R ~ ~ R T T P c ",
"d d d h h h k z c U k f h k k k k h k z c U U U z z c R R U U U c c j z z z Y c c c c c c U c c c c c E ~ ~ R ~ ~ ~ ~ ~ R R R R ",
"j j j z z z c U Y U U k U Y U z U z U U Y Y Y U U U Y R R R R Y R R Y T T T Y Y T T R T E T U T U c T ~ ~ ~ ~ ( ( ( ( ( ~ ~ W ~ "
};
