/* XPM */
static char *result[] = {
/* columns rows colors chars-per-pixel */
"64 64 225 2 ",
"   c #0B0B0B",
".  c #110F0C",
"X  c #14110D",
"o  c #1A140F",
"O  c #1B180F",
"+  c #151312",
"@  c #191612",
"#  c #1D1A14",
"$  c #1D1B1A",
"%  c #211D15",
"&  c #221D1A",
"*  c #25221B",
"=  c #2A251C",
"-  c #2A2317",
";  c #352A1C",
":  c #3C321E",
">  c #1F2125",
",  c #232322",
"<  c #2B2622",
"1  c #2E2924",
"2  c #2C2B2C",
"3  c #23262B",
"4  c #322B22",
"5  c #352E28",
"6  c #363026",
"7  c #3D3324",
"8  c #3B342B",
"9  c #39342C",
"0  c #2B2E36",
"q  c #332F31",
"w  c #2D303A",
"e  c #353232",
"r  c #383633",
"t  c #3E3A33",
"y  c #32353C",
"u  c #3A3B3A",
"i  c #433A2B",
"p  c #443825",
"a  c #423D34",
"s  c #433B35",
"d  c #3D452E",
"f  c #4A4336",
"g  c #4C4539",
"h  c #474537",
"j  c #514537",
"k  c #554B39",
"l  c #5B533B",
"z  c #50432E",
"x  c #64553C",
"c  c #57633D",
"v  c #383B4C",
"b  c #363D62",
"n  c #3F434A",
"m  c #3F4769",
"M  c #494542",
"N  c #494849",
"B  c #534D44",
"V  c #544E47",
"C  c #54514D",
"Z  c #5B5448",
"A  c #494B57",
"S  c #4F5256",
"D  c #545354",
"F  c #5A5959",
"G  c #54495E",
"H  c #635B4B",
"J  c #695D4D",
"K  c #655847",
"L  c #635F57",
"P  c #596744",
"I  c #5F605C",
"U  c #616B49",
"Y  c #6C644D",
"T  c #71644E",
"R  c #64734E",
"E  c #6D6352",
"W  c #6C685B",
"Q  c #746651",
"!  c #756953",
"~  c #796C56",
"^  c #736C5B",
"/  c #7B6E5A",
"(  c #7D725D",
")  c #767E5F",
"_  c #6C7855",
"`  c #565969",
"'  c #5E5C77",
"]  c #4A516A",
"[  c #635D72",
"{  c #615E66",
"}  c #5F6268",
"|  c #656463",
" . c #6D6B6B",
".. c #686767",
"X. c #736E62",
"o. c #767064",
"O. c #7C7464",
"+. c #7E7866",
"@. c #77756C",
"#. c #7B756B",
"$. c #7F7A6D",
"%. c #646574",
"&. c #686B78",
"*. c #716D78",
"=. c #7E7B72",
"-. c #797779",
";. c #81745D",
":. c #87775B",
">. c #886F51",
",. c #837662",
"<. c #857965",
"1. c #887C66",
"2. c #847B6C",
"3. c #8A7E69",
"4. c #836C71",
"5. c #867C71",
"6. c #887F73",
"7. c #85767C",
"8. c #976D6F",
"9. c #895953",
"0. c #788157",
"q. c #748360",
"w. c #918B52",
"e. c #8C816B",
"r. c #86816B",
"t. c #93856E",
"y. c #8B8274",
"u. c #84817C",
"i. c #888579",
"p. c #928671",
"a. c #938C7D",
"s. c #968978",
"d. c #859E78",
"f. c #9D9379",
"g. c #909D6B",
"h. c #A59874",
"j. c #9AAC78",
"k. c #8EAC6D",
"l. c #ABAA75",
"z. c #525981",
"x. c #6D7180",
"c. c #687389",
"v. c #7A7B83",
"b. c #76788B",
"n. c #6A7896",
"m. c #757996",
"M. c #6D6C87",
"N. c #937886",
"B. c #7C828B",
"V. c #7D8494",
"C. c #7B8899",
"Z. c #7D9499",
"A. c #828184",
"S. c #8C8A84",
"D. c #86868C",
"F. c #8C8B8A",
"G. c #8B8687",
"H. c #998E81",
"J. c #918D8D",
"K. c #938E83",
"L. c #959183",
"P. c #9C9184",
"I. c #94928C",
"U. c #9A958C",
"Y. c #9D988C",
"T. c #828593",
"R. c #858B93",
"E. c #8A8C93",
"W. c #858899",
"Q. c #948996",
"!. c #8D9394",
"~. c #8C949A",
"^. c #939392",
"/. c #9B9493",
"(. c #939B91",
"). c #9B9A93",
"_. c #93949B",
"`. c #9B9C9C",
"'. c #94999D",
"]. c #A49A8C",
"[. c #AB9E8E",
"{. c #A49885",
"}. c #A88C93",
"|. c #A39D92",
" X c #AB9E91",
".X c #A09E9A",
"XX c #A49793",
"oX c #AA8890",
"OX c #9EB386",
"+X c #9BA395",
"@X c #9AA49B",
"#X c #97AD90",
"$X c #AAA08E",
"%X c #A3B586",
"&X c #A8B58C",
"*X c #A6A294",
"=X c #ADA191",
"-X c #A3A39C",
";X c #A4A99B",
":X c #ACAB9C",
">X c #ACA49E",
",X c #B3A595",
"<X c #B6A999",
"1X c #BAAD9D",
"2X c #B9AC93",
"3X c #ABB594",
"4X c #B4B498",
"5X c #BBA683",
"6X c #9D9DA0",
"7X c #9AA4A1",
"8X c #A7A7A0",
"9X c #B5ACA1",
"0X c #BDB2A2",
"qX c #BEB8A6",
"wX c #B3B1A1",
"eX c #C1B29D",
"rX c #C2B4A4",
"tX c #C1B9A7",
"yX c #C4BCAB",
"uX c #C8BDAC",
"iX c #C7BEB0",
"pX c #C8BFB0",
"aX c #C6C0AE",
"sX c #C8C2AF",
"dX c #C7C0B0",
/* pixels */
",X,X,X<X1X1X1X1X1XeX9XeXrXeXrXrXtXtXrXrXqXrXqXqXtXtXtXqXqXqXqXqX4XqX4XqX0XwXqX4X4X0XqX4XqX0XwXqXqXqXqXqXqXaXyXyXyXyXyXyXyXyXyXyX",
",X,X<X<X1X1X1X1X9X1XeXeXrXrX9XrXtX1XtXtXtXtXaXqXtXtXqXaXtXtXqXqXqXqXqXqXqX0X0XqXqXqXwXqXqXqXqXqXqXqXaXtXyXyXyXaXyXyXaXyXyXyXyXyX",
",X,X<X<X1X9X1X9XeX9XeXrXrXrXrXrXqXtXaXtXtXqXaXqXqXqXqXaX4XaXaXtXqXqXqXqXqX4X0XqX4XqX4XqXqX0XqXqXqXqXqXaXyXyXyXyXaXaXyXyXaXyXdXpX",
",X<X<X<X1X1XeX0XeXrXrXrXrXrXrXrXaXqXtXtXaXtXtXaXaXaXaXtXaXtXtXtXtXqXqXqXqXqXqXqXqXqXqXqXqXqXqXqXaXtXaXtXyXaXyXaXyXaXaXaXdXdXpXyX",
",X<X<X1X1X1X1XeX0XrXrXrXrXrXrXiXaX4XaXtXtXaXtXuXtXaXuXtXaXuXaXtXaXqXqXqXqXqXqXqXqXqXqXqXqXtXaXqXqXaXaXtXaXaXyXaXiXyXaXdXiXiXiXiX",
",X<X<X1X1X1X0X1X0XrXrXrXrXrXyXqXtXtXtXaXaXtXaXyXaXtXtXuXuXtXtXaXqXqXaXqXqXqXqXqXqXqXqXyXaXqXqXqXaXtXtXaXaXaXaXaXiXaXiXdXaXyXiXiX",
",X<X1X<X1X1XeX0XrXrXrXrXtXtXtXqXtXaXaXtXuXtXtXuXtXtXaXaXtXaXuXtXaXqXqXaXqXqXtXyXqXyXtXyXqXaXyXyXtXaXtXtXyXyXaXyXaXpXdXyXiXiXiXiX",
"<X<X1X1X1X1X1XeXrXeXrX0XtXtXqXiXaXtXuXaXtXuXyXyXaXaXaXtXaXtXtXuXtXaXaXqXaXyXqXyXqXyXyXtXtXtXyXtXaXtXaXaXaXaXaXaXdXdXdXiXaXiXyXaX",
"<X<X<X1X1X1X1XrXeXrXrXrXrXrXrXuXtXuXuXtXuXtXyXaXaXaXaXqXaXyXyXyXaXtXaXtXtXtXaXtXaXaXtXuXyXyXyXyXdXqXaXaXaXaXqXaXsXsXaXaXyXyXaXaX",
"<X1X1X1X1X9XrX1XrXrXrXrXrXuXuXrXtXtXtXuXyXuXyXaXqXaXaXaXyXaXyXyXtXaXtXaXaXtXaXtXuXtXaXtXyXyXyXaXaXaXaXdXaXaXdXaXsXaXyXaXaXaXaXyX",
"1X1X1X1X1XrXeXrX9XrXrXrXrXrXtXrXuXuXuXyXuXtXaXuXaXaXaXyXyXaXyXyXtXaXaXtXtXaXtXaXaXaXuXaXaXaXyXaXaXaXaXqXqXdXaXaXsXsXyXaXaXyXaXyX",
"1X<X1X1X1X1X9XeXrXrXrXrXuXuXrXuXuXrXuXyXtXaXuXaXaXaXaXyXaXyXaXyXaXtXaXaXtXaXaXtXtXtXaXtXyXyXaXyXdXqXaXaXaXaXaXdXsXaXaXyXaXaXaXyX",
"<X<X1X1X<XeX9XrXrXrXrXrXtXrXuXrXuXrXyXyXyXyXyXyXaXaXqXaXyXaXyXyXtXaXtXaXyXyXaXaXaXtXaXaXaXaXaXaXaXaXaXqXdXaXaXqXaXaXaXaXqXaXaXqX",
"1X1X1X1XeXeXeXrXrXrXrXrXrXrXrXuXrXuXyXuXyXyXyXyXyXaXyXaXaXyXyXaXtXaXaXyXaXtXtXyXaXaXaXtXaXtXyXaXaXaXaXdXqXaXaXaXaXaXaXqXaXaXiXaX",
"1X1X1X1XeX9X0X0XrXrXrXrXrXrXrXuXrXyXyXyXyXyXyXyXiXaXaXyXaXyXyXaXaXaXaXaXaXaXtXyXaXaXaXaXaXaXtXaXaXdXaXaXaXaXaXaXqXdXaXaXyXyXyXyX",
"1X1X1X1X9XeX9XrXrXrXrXrXrXrXrXrXuXrXyXyXyXyXyXyXyXyXyXaXyXaXyXyXaXtXtXaXtXtXuXaXaXtXaXaXaXaXaXaXaXdXqXaXaXdXqXaXaXaXaXyXyXyXyXyX",
"1X1X1X1X1X1XrXrXrXrXrXrXrXrXrXuXrXuXuXrXuXuXuXuXtXaXuXyXaXyXyXaXyXyXyXtXyXyXyXyXaXdXaXaXaXaXqXaXaXdXaXaXaXqXaXaXaXaXaXyXyXyXyXtX",
"<X1X1X1XrX1XrX1X1XrXrXrXrXrXrXrXuXrXrXuXuXrXuXrXaXtXaXyXyXaXaXaXyXyXuXuXyXyXyXuXaXqXaXaXaXaXaXaXaXqXaXaXaXaXaXaXdXqXyXyXyXyXyXyX",
"1X1X1X1X1XrX1XrXrXrXrXrXrXrXrXrXrXrXuXrXuXuXuXuXuXuXuXtXyXyXyXtXyXaXyXuXyXtXyXuXaXiXqXaXqXaXaXyXqXaXqXaXaXaXyXaXaXaXiXyXyXyXqXyX",
"<X1X1X1X1X1XrX1XrX1XrXrXrXrXrXrXrXuXrXuXrXrXrXuXaXtXuXuXyXyXtXuXyXyXyXyXyXyXyXyXqXiXaXaXaXaXaXyXaXaXaXaXqXaXaXaXaXqXyXyXyXqXyXqX",
"1X1X1X1X1XrX1XrXrXrXrXrXrXrXrXrXrXrXrXuXuXrXuXuXuXuXrXtXtXuXuXuXyXtXyXyXyXyXyXyXaXaXyXaXyXaXaXaXaXaXaXaXyXyXaXyXaXtXtXaXyXyXqXtX",
"1X1X1X1X1X1X1X1X1XrX1XrXrXrXrXrXrXrXuXrXrXuXrXuXuXuXuXuXuXuXrXyXyXyXyXyXtXyXyXyXaXyXyXaXaXaXyXaXaXaXqXiXyXyXyXyXaXyXyXyXqXtXaXqX",
"<X1X1X1X1X1X1XrXeXrXrXrX9XeXeXrXrXrXrXuXrXrXrXuXuXrXuXuXtXuXuXuXrXuXuXrXyXyXyXaXyXyXyXaXaXyXaXyXqXqXdXyXyXyXyXyXtXyXyXtXtXtXqXqX",
"<X<X1X1X1X1X1X1X9XeX9XeX9XeX0XeXrXrXrXrXuXuXrXuXuXuXrXtXtXrXrXyXtXuXyXyXtXyXyXyXyXyXaXqXyXaXuXuXqXdXiXyXyXyXyXyXyXyXyXtXtXtXqXrX",
"<X<X1X1X<X1X1X1X1X1XrX1X0X0XeXrXrXrXrXrXuXrXuXrXuXuXuXrXrXyXrXrXuXrXuXrXyXyXuXrXyXyXyXyXyXyXtXuXyXyXyXtXrXuXrXuXtXtXyXrXrXrXrXrX",
"<X<X<X<X1X1X1X1X1XrXrX1X1X0X0XeXrXrXrXrXrXrXrXuXrXrXrXuXuXrXuXrXyXrXrXuXrXyXrXuXtXyXrXtXyXyXuXyXtXyXtXrXrXuXuXuXtXuXtXrXrXrXrX0X",
",X<X<X<X1X1X1X1X1X1X1X1X1X0X0X0X1XrXrXrXrXrXrXyXrXrXuXrXrXuXuXrXrXrXuXrXyXrXyXrXrXyXtXyXyXyXyXrXuXrXrXuXuXrXrXrXtXrXrXrXrXrXrXrX",
"<X<X<X1X<X1X1X1X1X1X1XrX0X0X0X0XrXrXrXrXrXrXrXrXuXuXrXuXrXuXrXuXrXyXrXuXrXyXrXuXyXyXtXtXtXtXrXuXrXrXrXuXrXrXrXrXrXrXrXrXrXrXrX1X",
",X<X<X1X1X1X1X1X1XrXrX1XrX1X0X9X1XrXrXrXrXrXtXrXrXrXrXuXuXrXuXrXO.E W ^ / X.W ^ ^ O.O.<.<.<.<.<.<.<.3.s.{.eXrXrXrXrXrXeXrXrX0X0X",
"<X,X<X<X1X,X<X1X1X1X1X1X8.j g h s s g j k B Z Z H K Z L rXrXrXrXh = = , = = % % # * = = < < 4 : 4 4 4 : B rXrXrXrXrXrXrXeX0XeX1X",
",X,X<X<X,X1X1X<X1X1X1X1X7.s A u s s s s s s s t Z K 5 5 {.rXrXrXh R q.0._ R U U c d * g P U U c c x x k Z rXrXrXrXrXrXeXeX0X0X0X",
",X<X<X<X1X<X<X1X1X1X1X1X;.L Q.N.*.[ { 3.$.-.7.g rXrXo.4 3.rXrXuXk q.4X%X&X&X%X%Xk.c % U j.%Xk.h.w.>.w.>.K rXrXrXrXrXrXeX0X0X0X1X",
",X,X,X,X<X<X<X1X<X1X1X1X2 ..`.V.6XwX6X0X9X9X0XM rXeXU.< ( 2XeXeXd d.OX:X4X3X3X%Xj.P & _ &Xj.j.1XeX5Xh.5XK eXrXrXrXeXrXeX9XeXeX<X",
",X,X,X,X<X<X<X<X<X<X<X<X< ..~.N.8X<X7X0XrX>X0Xq W y.9 < Y f.2X2Xd d.#X&X#XOXOXj.k.P $ q.4X3Xj.<.t.t.h.>.K eXeX0X0XrXeX9XeX9XeX<X",
",X,X,X,X,X,X,X<X<X,X<X,X, } ^.-.6XW.W.C.N.C.6X2 < < * * l <.h.[.r :X].H.K.@.P.a.).F $ =.4X0X8XU.P.J.rXK.K eXrX1X0X9XeXeX9X<X<X<X",
"$X[.,X,X,X,X,X,X,X<X<X,X> F E.B._.W.V.M.C.m.m.< < = , & k +.f.f.r >XH.a.P.*X$X:X9XL # i.1X0X1X0X8X/.1XG.J 1X1X1X<X1X<X<X<X<X<X<X",
"=X=X=X=X,X,X,X,X,X<X<X<X$ S c.F -.D ] G G G ] $ Z C g $ j ( s.s.e 8Xy.4.P.U.].$X].V @ F.0X1X1X1XwX@XwX@.H 1X1X0X1X1X1X1X<X<X,X,X",
"=X=X=X,X,X,X,X,X<X,X,X<X@ S v.F S.+X`._.M.[ m.> a u h $ f ( s.p.e 1X1X<XXX*.a.Y./.M # J.0X9X8XI._._.;X..Z <X1X9X1X1X<X<X<X<X<X,X",
"=X=X=X=X,X,X,X,X,X,X<X<X+ A F. ._.T.m.M.b.b.n.$ Q U M @ s / p.6.q 1X0X1XrXS.].*X.XN @ J.1X0X8X`..X:X-X7.j ].1X1X1X1X<X<X<X<X,X<X",
"[.=X=X=X,X,X,X<X,X,X<X,X+ N D.-._.W.b.%.%.%.%.$ h.j.V @ s ~ p.3.2 1X0XG.@X1X1XwX0XV @ J.1X0X6X*X9XrX>XF.g s.=X1X1X1X<X<X1X<X,X<X",
"[.=X X=X,X,X,X,X,X,X,X,XX M D.| v. .c.Z.c.z.' > J Q s + a W 3.3.2 C.z.b v  .a.I.).N @ S.0X1X6XI.!._.`.` k 6.P.<X1X<X1X<X1X<X<X<X",
"[.[. X,X=X,X,X,X,X,X,X,X  v D.| _./.~.#X<XC.[ $ 4 F $ @ i Q 1.,.2 8XE.B.B.i.a./.).M @ -.6X8X'.^.A.&.W.N s 6.y.{.,X1XeX<X,X<X<X<X",
"[.[.,X5X=X,X,X=X,X,X,X,X  u D. .T.V.c.C.:XW.W.$ * s * $ t E 1.,.2 @X`.I.L.K.L.1X4XN + @.-X<X1X:X:X0X6X} k 6.7.s.}.eX<X<X1X,X,X,X",
"[.[.=X=X=X=X=X,X,X=X,X,X  u D. .R.V.m.C.n.] ` $ $ < 1 # 8 Q 1.O.2 ;X`./.I.L.K.9X,XM + @.).:X-X).D.;X6XG K 6.s.6.oX2X,X<X,X1X,X<X",
"[.[.[.[.=X=X=X,X,X,X,X,X  y D.| !.C.n.Z.n.] ] $ $ * # # 8 E <.O.2 `.^.u.7.u.q.J.S.d .  .S.B. .-.` m b.w W 6.6.6.6. X<X<X<X<X,X,X",
"[.,X[.,X=X=X=X=X,X,X=X,X  0 v.D W.C.C.C.C.:X@X< a.H.o.$ 8 T <.,.e <X<X-X@X+Xy.U.J.u . -.F.).'.-X:X@X~.S X.6.6.6.6.H.<X<X,X,X,X,X",
"[.[.=X[.[.,X=X=X,X,X=X,X  q *.M b.m.n.C.c.:X@X1 <X,X,X# 8 Y <.o.e <X<X].<X[.p.<Xf.v X -.-.].<XS.U.<X;X%.X.6.6.6.6.s. X<X,X,X,X<X",
"{.[.[.[.[.[.[.,X=X=X=X$X  2 -.S ~.(.(.+X+X:X+X1 <X,XU.# 9 J ,.( q -XK.=.2.<.<.y.i.r X 0 S ^.F.u.A.R.W.y O.6.6.6.6.6.{.,X,X,X,X,X",
"[.[.[.[.[.[.[.=X=X=X=X,X  1 v.V &.b.&.x.M.b.[ & B H 9 @ 9 J O.( q :X;XS.#.+.+.r.r.r . w A E.I.`.).E.V.0 o.y.6.2.5.6.H. X,X,X,X,X",
"{.[.[.[.[.[.=X[.=X=X=X[.  < v.B T.XX}.,X X^.m.& $ % % # 5 H O.^ r ,X,XY.2.+.+.r.r.q . F.@.Y.=X).<X,X+XA o.y.2.6.2.5.a. X,X,X,X,X",
"[.{.{.[.[.[.[.=X[.,X[.,X  2 v.B E.XX}.,X,X^.T.& # # % # 6 U ( ^ 9 ,X`.y.$.+.+.r.$.3   o.C y.L.@.L.~.C.y #.y.5.2.5.2.6. X,X,X,X,X",
"{.[.oX[.[.[.[.[.[.=X=X[.  3 N.V v.W./.,X X^.T.$ # % % # 6 Z ( ! q !.=.$.+.+.O.r.^ , + ^ G q.5.| @.} &.> 2.6.5.5.6.5.6.{.,X,X,X=X",
"{.[.[.[.[.[.[.[.$X[.[.=X  , B.Z G.}.XX=X=XN.8.% * # % # 8 Y ( _ 4 u.@.o.#.+.O.+.i.1 . W C #.X.D S n y $ 2.y.5.5.5.5.6.{.,X,X=X=X",
"[.{.}.[.[.{.[. X X=X[.[.  , B.Z 4.7.N.}.8.8.9.% * * % % 6 Y ^ W = @.#.X.o._ X.W W 1 X I D { F D n v 3 $ r.y.5.5.5.5.5.H.,X,X=X=X",
"{.].[. X[.[.[. X=X[.[. X  , R.F 7.7.G.Q.Q.N.#.@ * - % O 1 Z Z B $ < < * * = * * * # X , > * * & 2 , X + y.y.5.5.5.2.5.H.,X,X=X=X",
"[.{.].{.{.[.]. X,X[.[.[.  , D.| b.E.E.E.F.Q.v.* O * * O = g l g = * = = * = * = * = * * * * * , B 2 + + 2.y.2.5.3.4.3.H.=X=X=X=X",
"].|.].].].[.[.[.[.[.=X$X  $ R.` R.|.(.(.(.U.E.# 4 = 1 O % 7 z p = = = = = = = = ; = = = = & & * s 1 @ % 2.5.5.2.5.5.2.H. X$X X X",
"Y.Y.].].XX|.].|.].].].*X  + %.D [ M.x.x.&.&.| # * * # O O ; 7 p * = * * = * = * & & & & & & & # # @ @ X Q 2.2.$.#.2.2.H.*X[. X=X",
"Y.$X|.=X=X=X X|.=X|.=X*X    O # # # & % # # % O O % * O O : p p * # & % & * & * & & & & & & & $ # # + X T 2.5.5.2.$.7.L.].|.].].",
"L.Y.Y.].Y.Y.{.{.Y.].].].    X X . < s = # # # O % # # O - p z k * # $ * * & & & % & % % & % # $ # @ @ + Q o.o.o.o.o.X.a.a.K.f.L.",
",.<.<.2.2.2.<.3.<.,.<.<.O X X X X & i 5 o @ @ O # * * O z x x k 6 - - = - - - = & ; & ; ; 4 5 p 8 7 Z :.3.e.3.<.1.1.<.<.<.,.( ,.",
"Q T Q ! Q T Q Q ! ;.~ Q j O . . X X o @ + @ O O O O O * J :.:.:.:.:.:.<.,.,.1.;.;.;.<.,.,.<.<.,.<.,.1.3.e.e.e.3.1.e.3.<.,.<.,.( ",
"Y Y T Q T T / / ;./ ~ T Q - . X o o o @ @ o O # # # O - >.<.;.;.,.;.~ ~ / / ,.( ;.;.;.;.;.,.;./ ;.;.,.<.1.3.3.3.r.e.e.3.3.1.1.1.",
"! ~ ~ ^ / ;.;.,.;.;.;.~ ;.Q O O - ; - - ; : : : 7 : # p 1.1.<.<.<.,.;.<.<.<.,.,.<.<.<.<.<.,.,.;.;.,.<.3.e.e.p.p.p.p.p.p.e.e.3.1."
};
