/* XPM */
static char *result[] = {
/* columns rows colors chars-per-pixel */
"64 64 224 2 ",
"   c #0C0C0C",
".  c #0F1010",
"X  c #121313",
"o  c #161A1A",
"O  c #1A1B1B",
"+  c #181716",
"@  c #101010",
"#  c #211C1A",
"$  c #1C211D",
"%  c #27231F",
"&  c #1C1E21",
"*  c #1E2223",
"=  c #1F2428",
"-  c #222424",
";  c #2B2A24",
":  c #232629",
">  c #252B2B",
",  c #282C2B",
"<  c #332C27",
"1  c #29322A",
"2  c #292E34",
"3  c #2D3232",
"4  c #2A343A",
"5  c #353936",
"6  c #33352F",
"7  c #443F3C",
"8  c #3B433D",
"9  c #43433D",
"0  c #2E3644",
"q  c #323C4B",
"w  c #333C44",
"e  c #3A4748",
"r  c #3A4953",
"t  c #3F5150",
"y  c #3B5B65",
"u  c #3F626A",
"i  c #464B4C",
"p  c #474A47",
"a  c #564D47",
"s  c #4A5549",
"d  c #54574C",
"f  c #464D56",
"g  c #4D525B",
"h  c #495657",
"j  c #545B54",
"k  c #555A5B",
"l  c #585C5E",
"z  c #585854",
"x  c #655B4E",
"c  c #635D58",
"v  c #4C6356",
"b  c #5A6255",
"n  c #59655B",
"m  c #57735E",
"M  c #72644F",
"N  c #69645B",
"B  c #646A5D",
"V  c #69675C",
"C  c #736651",
"Z  c #796B56",
"A  c #786B56",
"S  c #7E715C",
"D  c #6B6956",
"F  c #4C5A65",
"G  c #555D65",
"H  c #4B6467",
"J  c #53656B",
"K  c #5A6868",
"L  c #597569",
"P  c #566C74",
"I  c #5D7476",
"U  c #4C6374",
"Y  c #666261",
"T  c #6B6763",
"R  c #636B64",
"E  c #6D6B63",
"W  c #6A6C6C",
"Q  c #746D64",
"!  c #716D69",
"~  c #6D7263",
"^  c #6B776A",
"/  c #737266",
"(  c #74736A",
")  c #7A756A",
"_  c #747A6B",
"`  c #7D7A6D",
"'  c #7F7462",
"]  c #646D73",
"[  c #637373",
"{  c #6A757A",
"}  c #6B7B7B",
"|  c #647979",
" . c #7D7D73",
".. c #777A77",
"X. c #716E71",
"o. c #80735E",
"O. c #827662",
"+. c #857966",
"@. c #857B6A",
"#. c #8A7E69",
"$. c #897D67",
"%. c #837E71",
"&. c #817F7D",
"*. c #5F8271",
"=. c #65856E",
"-. c #7A816D",
";. c #678776",
":. c #7C8274",
">. c #79857A",
",. c #6C9379",
"<. c #73937D",
"1. c #8D816A",
"2. c #858375",
"3. c #858B7C",
"4. c #8C8B7C",
"5. c #888578",
"6. c #928C7D",
"7. c #928571",
"8. c #8E907E",
"9. c #91846E",
"0. c #5C7383",
"q. c #667B86",
"w. c #737C83",
"e. c #6C838C",
"r. c #6A8485",
"t. c #748384",
"y. c #798888",
"u. c #7A9588",
"i. c #6B8892",
"p. c #748B93",
"a. c #798C96",
"s. c #7A949D",
"d. c #799297",
"f. c #7DA18A",
"g. c #7C98A1",
"h. c #838B8C",
"j. c #878A86",
"k. c #938E82",
"l. c #8C938C",
"z. c #889388",
"x. c #949284",
"c. c #9D9485",
"v. c #9A978A",
"b. c #9C9A8E",
"n. c #95968B",
"m. c #848C93",
"M. c #8B8D95",
"N. c #839292",
"B. c #899898",
"V. c #9D9B91",
"C. c #939997",
"Z. c #A49A8C",
"A. c #AB9E8E",
"S. c #A19788",
"D. c #A59E90",
"F. c #AB9F90",
"G. c #89A294",
"H. c #96A19D",
"J. c #9AB39E",
"K. c #A7A08F",
"L. c #ADA191",
"P. c #A5A498",
"I. c #B3A595",
"U. c #B6A999",
"Y. c #BAAD9D",
"T. c #8E9DA2",
"R. c #839DA6",
"E. c #939BA1",
"W. c #8AA3AA",
"Q. c #92A3A4",
"!. c #99A4A9",
"~. c #99A8A8",
"^. c #9BB1AE",
"/. c #98ADB3",
"(. c #9DB6B2",
"). c #99B6B6",
"_. c #8EAAB4",
"`. c #AAACA3",
"'. c #A4A9A9",
"]. c #A9B2AA",
"[. c #BDB1A1",
"{. c #BCB8A8",
"}. c #A4AEB3",
"|. c #ABB3B3",
" X c #A3BCBB",
".X c #A9B6B8",
"XX c #B4BBBA",
"oX c #B6B9B6",
"OX c #C2B4A4",
"+X c #C1B9A7",
"@X c #C5BDAB",
"#X c #C8BFAE",
"$X c #C7BEB0",
"%X c #B8C1B9",
"&X c #A9C1BF",
"*X c #C7C0AE",
"=X c #C8C2AF",
"-X c #C5C4B9",
";X c #9BBAC4",
":X c #A7BAC3",
">X c #B1BCC3",
",X c #ABC3C1",
"<X c #B8C7C6",
"1X c #B9C7D2",
"2X c #C6CBC7",
"3X c #C9D5D4",
"4X c #D6D9D2",
"5X c #D6DAD6",
"6X c #CAD1D0",
"7X c #D9E4DF",
"8X c #E5E4DD",
"9X c #D4DDE3",
"0X c #CCDAE3",
"qX c #D7E3E7",
"wX c #C8E2E7",
"eX c #E4EAEC",
"rX c #E7E9E9",
"tX c #ECFEFE",
"yX c #EAF8F8",
"uX c #F4F5F5",
"iX c #F4FDFD",
"pX c #FDFDFD",
"aX c #F8F8F7",
"sX c #EEF2EF",
/* pixels */
"I.I.I.U.U.Y.Y.Y.Y.OX[.OX[.[.OXOXOXOX+XOX{.+X+X+X+X{.+X+X{.OX{.{.{.{.{.[.{.[.[.[.[.[.[.{.[.[.[.{.[.{.+X+X+X+X*X+X*X@X@X@X@X@X@X@X",
"I.I.U.U.Y.Y.Y.Y.Y.Y.Y.[.OXOXOXN Q V V / E / / / ( E E R V R Q Q / E ( _ / ( ( ^ ! ! W T R B T N {.+X+X+X*X+X+X*X@X*X*X+X@X@X@X@X",
"I.U.U.U.Y.Y.[.Y.OXY.[.OXOXOXOX) ( `  . . . .%. .%. . . .`  .:.-.`  . ...&. ...) ) ) ) ) ) ) ! ! {.+X*X*X+X*X+X*X@X@X*X#X@X#X#X@X",
"I.U.U.U.Y.Y.Y.Y.[.OXOXOXOXOXOXN V ) ` ` %.:. . . . .`  .:._ <.m =.:.>. .` ..) ( ) ( ! Q Q V x c *X{.*X+X#X*X*X*X*X#X@X*X#X#X#X#X",
"U.U.U.Y.Y.Y.[.[.[.OXOXOXOXOX+X@.) 1.2.7.7.4.4.4.4.4.4.5.3.-.3.^ -.>.4.5.5.%.%.%.%.` ` ) @.Q Q T +X*X*X+X*X*X*X+X@X$X*X@X@X#X#X$X",
"I.I.U.Y.Y.Y.Y.[.[.OXOXOXOXOX+X` ` 2.2.5.4.6.8.8.8.4.4.4.3.3.j.z.z.x.z.z.j.4.4.5.2.2.%.%.%.) %.@.*X+X+X*X+X*X*X*X*X@X$X$X#X#X$X$X",
"U.U.U.U.Y.Y.[.[.[.OXOXOX+X+X+X/ _ _ -.-.2.3.5.3.4.2.:.:.-. .:.:.:.>.:.:... .) ( ( ( Q Q Y c @.@.+X+X*X+X*X*X*X*X$X*X$X#X@X$X@X$X",
"U.U.U.Y.Y.Y.[.[.OXOXOXOXOX+X*XV A b B B ^ S _ _ _ ~ ~ B B B R n B K R R R B K l z d g f p f %.%.+X*X*X*X*X*X+X*X*X*X$X$X$X#X$X#X",
"U.U.Y.Y.Y.Y.Y.OXOXOXOXOXOXOX@XA ~ 9 d d m D ~ ~ B B B b j j j j b n k h s h i r w w 4 4 2 i %.%.@X@X*X*X*X*X*X{.=X*X#X@X*X*X{.*X",
"U.Y.Y.Y.OXY.[.Y.[.OXOXOXOX#X@X_ _ s b D ~ -.-.-.-.-.~ B n n R R R R K K J G g h r r w 0 2 i &.7.*X*X*X{.@X*X*X*X=X*X*X@X@X*X*X*X",
"Y.Y.Y.Y.Y.Y.OXOXOX[.OXOX+X+X+X4.3.d B :.J.U.`.`.].`.P.z.^ ~ 3.l.l.z.z.y.e.q.q.0.0.U F q 2 i 5.k.*X@X*X*X*X{.*X@X=X=X$X*X*X@X*X@X",
"U.Y.Y.Y.Y.Y.Y.OX[.OXOXOXOX+X+XC.B.d ~ oXaXpXpXpXpXpXpX6X>.` -XpXpXpXpXiXtXtXtXtXyXtXwXr 0 i k.k.@X*X*X*X*X*X*X@X=X*X*X@X@X*X*X@X",
"U.Y.Y.Y.Y.OXY.Y.OXOXOXOXOX@XOXC.B.b ~ oXaXpXpXpXpXpXpX4X8.<.2XpXpXpXpXpXiXiXtXtXtXtXqXy 0 f n.n.*X*X*X*X@X*X@X*X=X=X@X*X*X*X*X*X",
"Y.Y.Y.Y.Y.Y.OXOXOXOXOXOX+XOXOX!.Q.b ^ XXaXaXaXaXaXaXaX4Xn.3.2XpXpXpXpXpXpXiXiXiXtXtXqXF 0 f v.v.{.*X*X*X*X*X*X@X*X{.*X@X{.*X@X@X",
"Y.Y.Y.Y.Y.OXOXY.OXOXOXOX+X+X@XE.Q.b _ XXaXpXpXpXaXpXpX4Xn.8.-XaXaXuXuXuXuXiXiXiXtXiXqXG q f S.v.@X*X{.*X*X@X*X@X*X*X*X*X#X@X@X+X",
"Y.Y.Y.Y.Y.Y.Y.OXOXY.OXOXOXOXOX!.Q.b _ XXpXpXpXpXpXpXpX4Xb.z.-XaXaXpXpXpXsXpXpXpXpXpXeXJ q g S.V.*X*X*X*X@X*X@X%X*X@X@X@X@X+X@X@X",
"Y.Y.Y.Y.Y.Y.OXOXOXOXY.OXOXOXOX!.!.l ( XXaXpXpXpXpXpXpX4Xv.8.%XpXpXpXpXpXeXaXpXaXpXpXeXU q f V.V.{.*X*X*X*X@X*X@X*X@X*X+X*X@X@X+X",
"U.Y.OXY.Y.OXY.Y.OXOXOXOXOXOX@X!.~.z _ oXpXpXpXpXpXpXpX4Xn.4.*XpXaXpXpXuX9XeXpXpXpXpXeXG q g V.V.*X*X*X@X*X@X@X*X*X@X@X@X+X*X+X@X",
"Y.Y.Y.Y.Y.Y.OXY.OXY.OXOXOXOXOXE.Q.b ~ ].aXpXpXpXpXpXpX4Xn.8.%XpXpXpXpXuX4XuX0XaXpXpXeXF q g V.V.*X*X{.*X@X*X@X*X*X@X+X+X*X+X+X@X",
"U.Y.Y.Y.Y.OXY.OXOXOXOXOXOXOXOX!.!.d V ~.sXpXpXpXpXpXpX8Xb.8.-XpXpXpXpXuX6X6X:X0XpXpXeXF q g V.V.{.*X*X*X*X@X*X*X{.*X*X@X+X*X+X+X",
"Y.Y.Y.Y.Y.OXY.OXOXOXOXOXOXOX{.!.H.d B ~.sXpXpXpXpXpXpX8XK.8.-XpXpXaXuXrX|.:X:XqXuXuXeXF q g S.V.*X*X*X@X@X@X#X@X*X+X+X*X+X+X+X+X",
"U.Y.Y.Y.[.Y.Y.Y.Y.OXOXOXOXOXOXQ.Q.s z H.sXpXpXpXpXpXpX8XK.8.2XpXpXpXrX5X|.>X:X9XeXuXeXF q g V.Z.*X*X@X@X+X@X@X+X*X+X*X+X*X+X*X+X",
"Y.Y.Y.Y.Y.Y.Y.[.Y.OX[.[.Y.OX[.E.T.p d B.eXuXuXaXpXpXpX8XK.3.-XpXpXaX4X|.}.>X:XqX9XuXqXF 0 g V.V.@X@X@X@X#X+X#X@X+X*X+X*X+X+X+XOX",
"U.U.Y.Y.Y.[.Y.Y.[.[.Y.OXY.Y.Y.T.H.9 s z.9X7X3X4XrXsXaX8Xx.2.%XpXpXrX5X-X6X>X>X1X9XuX9Xf 0 f b.v.@X+X@X+X+X#X@X@X@X+X*X+X+X+X+X[.",
"U.U.Y.U.Y.Y.Y.Y.OXY.OXY.Y.[.[.E.W.8 p >.wX3X3X3X7X7X7X%X:.` %XpXpXrX2XrXXX}.:X/.1XqX>Xq 0 g v.S.@X@X@X#X#XOXOX#X+X+X@XOXOXOXOXOX",
"U.U.U.Y.Y.Y.Y.Y.Y.Y.Y.OX[.[.OXT.B.5 8 _ 3X3X<X<X6X1X<X%X( / {.pXpXrX-X-X2X>X/.:X9XeX0Xf 2 f v.v.OX@XOXOXOX#XOXOXOX@XOXOXOXOX[.OX",
"U.U.U.Y.Y.Y.Y.Y.Y.Y.Y.OX[.[.Y.E.B.6 5 W <X3X%X.X%X<X<XJ.R V P.aXaX8X6XoX>X!.>X9X9XeX5Xr 2 f c.v.@XOXOX@XOX#XOX#XOX@XOXOXOXOXOXOX",
"I.U.U.U.U.Y.Y.Y.Y.OXY.Y.Y.[.[.R.B.< 6 K <X<X X].<X<X<XG.l b V.uXrX2X2XoXoX>X1XeXqXeX>Xw : f c.v.OX@X#XOXOXOXOXOXOXOXOXOX[.OXOX[.",
"U.U.U.U.Y.Y.U.Y.Y.Y.Y.OXY.OX[.m.B., , l XX<X(.H.%X<X%XN.s d l.rX-X].'.2X}.|.|.6X}.}./.4 : p c.S.@XOXOX#XOXOXOXOXOXOXOXOXOXOX[.[.",
"U.I.U.U.U.U.U.Y.Y.Y.Y.Y.OXY.[.m.B.: ; d ].&X~.C..X%X}.>.e p %.4X2X6XP.l.v.|.|.}.<X}.B.3 = p c.6.OX#XOXOX#XOXOXOXOXOXOXOXOX[.[.[.",
"I.I.U.U.U.Y.Y.Y.Y.Y.OXOXY.Y.OXm.m.- - i  X.X~.B.XX<X Xt.e 5 j.rX4XoX}.j.&.oX|.E.H.E.E.2 * p 6.S.#XOXOXOXOXOXOXOXOXOXOX[.[.[.[.[.",
"I.U.Y.U.U.U.U.Y.Y.Y.U.Y.Y.Y.Y.m.a.& - p ,XW.d.N.Q.&X&XN.5 5 ..rX4X`.D.&.! &.M.M.N.N.h.: O 9 6.6.OX#XOXOXOXOXOXOXOXOXOX[.[.[.Y.Y.",
"I.I.I.I.U.U.U.Y.U.Y.Y.Y.Y.Y.U.a.m.O % e Q.r.} y.u.H.~.} 3 3 R oX'.n.l.n...'.P.....} j.- O p k.k.OXOXOXOXOXOXOXOXOXOXOXY.Y.Y.Y.Y.",
"I.I.I.I.U.U.U.U.U.U.U.U.U.U.OXa.a.O O w W.>.K { ].}.(.] > , j <X}.>.oXJ.^ l.5.&.{ m.h.- + 9 k.k.OXOXOXOXOXOXOXOXY.Y.OXY.OXY.Y.Y.",
"I.L.I.I.I.I.I.U.U.U.U.U.U.U.Y.h.y.+ O 5 ~.u.y.y.2X<X&X| > - n 7X2X~.<X~.>.j.`.M.B./.m.- + 9 k.6.OXOXOXOXOXOX[.[.Y.OXY.Y.Y.U.Y.U.",
"L.L.I.I.I.I.I.I.I.U.U.U.U.U.U.y.y.+ o 5 Q.>.} | %X~.].[ - - s 6X'.z.].Q.r.B.N.h.R.W.t.* X 8 4.6.Y.Y.Y.Y.Y.OXY.Y.Y.Y.U.Y.U.U.U.U.",
"L.L.L.A.I.I.I.I.I.I.U.U.U.Y.U.w.w.o + 4 i.I L H <.z.B.K * $ e N.y.} !.E.C.!.Q.Q.R.W.z.* + 7 4.6.Y.Y.[.[.Y.OXY.[.Y.Y.Y.U.U.I.I.I.",
"L.L.A.I.I.I.I.I.I.U.U.U.U.U.Y.w.w.+ + 2 i.L | | z.u.u.J * o 8 B.T. X}.|..X:X/.~.G. XQ.O X 5 4.4.Y.[.Y.[.Y.Y.Y.[.Y.Y.Y.U.U.U.U.I.",
"A.L.I.A.I.I.I.I.I.I.I.U.U.U.U.w.w.X + , u.;.I =.=.L I v o $ 8 u.;.u.'.>X>X>X.XN.y.B.y.$ X 6 5.5.[.Y.[.[.[.Y.[.Y.Y.Y.U.U.U.U.U.I.",
"A.I.A.I.I.I.U.I.I.I.U.U.U.U.Y.w.w.X X > ,.L I *.,.*.L v o o > L L ;.m.oX}.|./.| P ;.u.+ X ; ' ) Y.[.Y.[.Y.Y.Y.Y.Y.U.Y.U.Y.U.U.U.",
"A.A.I.I.I.I.I.I.I.I.U.I.I.U.U.w.w.@ + - =.H U *.=.,.,.m $ + = h h m v >.G.L L y u y u . X $ ) ) Y.OXY.Y.Y.Y.Y.Y.Y.Y.U.Y.U.U.U.U.",
"A.I.A.A.A.I.I.I.I.I.I.I.I.U.U.w.w.@ X : Q.J H ;.,.f.f.m o X 1 u.r.<.u.u.z.;.h P i.i.I o   X ) ) Y.Y.Y.Y.Y.Y.U.Y.Y.U.Y.Y.U.U.U.U.",
"A.A.A.I.I.A.I.I.A.U.I.U.I.U.I.{ { @ @ & J h t L =.,.<.m ; X > *.L =.=.,.G.t > 4 y r r . @ + ) / Y.Y.Y.Y.U.Y.U.Y.U.Y.U.U.U.U.U.I.",
"A.A.I.A.A.I.A.I.I.I.I.I.I.I.I.X.{   X & h e 4 m =.,.=.v 1 . = =.,.<.z.G.J.u.*.I P *.r.o @ O ) ` Y.Y.Y.Y.Y.U.Y.U.Y.U.U.U.U.U.U.I.",
"A.A.A.I.I.I.A.I.L.I.I.A.I.I.I.] [ @ . = t H I G.^.(.(.u.O . 4 &X&X&X,X&X&X<X,X,X;X)._.& . O ` ` Y.Y.Y.U.Y.Y.U.Y.Y.U.U.U.U.U.I.I.",
"A.A.A.A.A.A.A.I.I.I.I.I.I.I.I.] ] @ . = r p.).;X X&X Xy.O X 3 }./.^.}.}.^.^.~./._._.g.o . O ) ) Y.Y.Y.U.U.U.U.U.U.U.U.U.I.I.I.I.",
"A.A.A.A.A.A.I.A.I.I.I.I.I.L.I.] ]   . + > 3 4 3 3 3 3 > . . + 3 5 6 3 2 > > : : = = = .   o ) ) I.Y.I.U.Y.U.Y.U.I.U.U.U.I.I.I.I.",
"A.A.A.I.A.I.A.A.L.L.L.L.L.I.L.] K   . $ = 8 h v k l n p X . - K K I [ [ | | | | ;.| [ X . o ) / U.I.U.U.U.U.I.U.I.I.I.I.I.I.U.I.",
"A.A.A.A.A.A.A.A.I.A.A.I.I.I.I.c G   @ 3 r y.(.(.(.(.(.u.+ . 3 ).). X).&X;X,X;X;X^.L v o @ o Q ! I.U.I.U.U.I.U.I.I.I.U.I.I.I.I.I.",
"A.S.A.A.A.A.A.A.I.A.A.I.A.A.I.z g   @ 3 t y.^.(.(.^.(.t.+ . , W./._.).W.R.p.r.I v t v o   + Q Z I.I.I.I.I.I.I.I.U.I.I.I.I.I.I.I.",
"A.6.A.A.A.A.A.A.A.I.A.A.A.I.A.z z     , t | d.u.r.} L s X . > W._.s.W.W._.d.I I t 8 8 o   + N N I.I.I.I.I.U.I.I.I.I.U.I.I.I.I.I.",
"A.A.S.A.A.A.A.A.A.A.A.I.L.A.A.c z   @ * t v K P I ;.e.J X   > T._.W.W.s.g.u.*.r.I v s o   X N N U.I.I.U.I.I.I.I.I.I.I.I.I.I.I.L.",
"A.6.A.A.A.A.A.A.A.L.A.L.L.L.L.l G     * k J J F J I e.P X   : R.R.R.g.g.g.g.g.i.e.I H o   X c N I.I.I.I.I.I.I.I.I.I.I.I.I.I.L.L.",
"A.A.S.A.A.S.A.A.A.A.A.L.L.A.L.l l     - P P v F P q.q.P @   & P | I P e.i.i.i.i.r.I U o   X N N I.I.I.I.I.I.I.I.I.I.I.I.I.I.A.L.",
"A.A.A.A.A.A.S.A.L.A.L.A.L.A.L.l k     : e.e.U J P q.q.J @   = a.s.i.e.i.g.g.g.s.I 0.I =   @ N T I.I.I.A.I.I.I.I.I.I.I.I.I.I.I.A.",
"A.6.A.A.A.A.A.A.L.A.A.L.A.A.A.l k     3 R.W.P J P q.q.F @   - e.g.g.s.d.g._.g.g.i.e.e.=   + N N I.I.I.I.U.I.I.I.I.I.A.I.I.A.L.I.",
"S.D.D.D.Z.A.F.F.A.A.F.F.F.F.F.g k     : a.R.q.;.w.q.q.G @   : a.g.s.e.p.p.p.s.i.q.q.q.2   . N c L.L.I.I.I.U.I.L.I.A.I.F.F.L.A.F.",
"S.S.V.D.Z.Z.Z.Z.A.A.F.F.F.D.A.G k     & f g l G K K ] i     & G P G G G g f f r q q q &   . N c L.L.L.L.L.L.L.L.L.A.F.F.F.F.F.F.",
"V.D.D.F.F.F.F.D.F.F.P.F.F.F.F.g z       X X X @ @ @                                       @ c c P.I.P.I.P.I.L.L.L.A.F.F.Z.L.D.Z.",
"k.v.S.S.V.D.S.S.S.S.Z.V.D.Z.F.g l @ X X + + # # % - % # + # # % ; ; < < < < < 2 < < < < - ; c N b.Z.S.Z.S.b.S.c.S.S.S.c.6.6.6.x.",
"O.@.@.@.@.@.@.+.O.o.O.+.@.@.@.g l 7 a c Y Y Y Y c k z a a a a c l Y c Y Y Y W T T T Y z 9 7 M c 1.1.$.1.$.1.#.$.+.@.+.O.+.o.O.o.",
"C C C C C M C Z Z o.o.C C o.+.k T c X.m.E.M.E.E.M.M.M.&.T Y X.&.m.m.m.M.m.w.m.M.m.M.h.&.Z z x x o.o.+.1.1.1.1.#.#.1.#.$.O.+.O.o.",
"M x M C M M Z o.o.o.C M M o.Z ! X.X.M.!.}.|.oX|.'.|.'.k.&.&.&.M.E.'.E.'.}.!.E.!.E.C.C.M.5.) N C S o.O.+.$.1.#.#.1.1.1.#.$.$.$.$.",
"Z Z Z Z Z o.o.o.o.o.o.Z o.o.o.....&.V.'.}.XX>XoXoXoX|.P.M.&.M.!.|.|.|.|.>X|.}.}.}.E.C.n.k.%.Z / o.O.O.1.1.1.9.7.7.7.7.7.9.1.#.$."
};
