/* XPM */
static char *result[] = {
/* columns rows colors chars-per-pixel */
"64 64 212 2 ",
"   c #161613",
".  c #1A1A18",
"X  c #3C180E",
"o  c #201512",
"O  c #3B1A14",
"+  c #3D1E19",
"@  c #331916",
"#  c #23221F",
"$  c #232321",
"%  c #2A2926",
"&  c #3E2524",
"*  c #34332E",
"=  c #393023",
"-  c #353632",
";  c #3D3C35",
":  c #3B3936",
">  c #461F17",
",  c #41231D",
"<  c #412117",
"1  c #552119",
"2  c #422622",
"3  c #462B25",
"4  c #4D3529",
"5  c #483437",
"6  c #413E33",
"7  c #413F39",
"8  c #473233",
"9  c #503F3D",
"0  c #552F26",
"q  c #3F403B",
"w  c #44423C",
"e  c #464439",
"r  c #564B39",
"t  c #654E34",
"y  c #654734",
"u  c #6A5135",
"i  c #65533A",
"p  c #6A553B",
"a  c #6F593C",
"s  c #655137",
"d  c #735336",
"f  c #735B3A",
"g  c #785B39",
"h  c #7E633E",
"j  c #7D6137",
"k  c #3A454C",
"l  c #394C53",
"z  c #494C49",
"x  c #554B46",
"c  c #4C544F",
"v  c #55554C",
"b  c #5B5447",
"n  c #444C51",
"m  c #435153",
"M  c #43555A",
"N  c #4C5854",
"B  c #5A5B56",
"V  c #645642",
"C  c #645A44",
"Z  c #6B5B46",
"A  c #655B4A",
"S  c #6A5D4B",
"D  c #745D42",
"F  c #655E53",
"G  c #715F51",
"H  c #6E614C",
"J  c #66604F",
"K  c #756045",
"L  c #7E6542",
"P  c #73634C",
"I  c #7B654C",
"U  c #7B684A",
"Y  c #6C6453",
"T  c #6F6857",
"R  c #64655C",
"E  c #696659",
"W  c #6E685A",
"Q  c #666153",
"!  c #746552",
"~  c #756954",
"^  c #796A55",
"/  c #736C5C",
"(  c #7C6E5A",
")  c #766555",
"_  c #7E725C",
"`  c #5F6161",
"'  c #5C697E",
"]  c #656965",
"[  c #756D64",
"{  c #6A736E",
"}  c #767163",
"|  c #7B7464",
" . c #75736B",
".. c #7B7669",
"X. c #7E796C",
"o. c #766B71",
"O. c #747773",
"+. c #7A7974",
"@. c #7C797A",
"#. c #81653F",
"$. c #826641",
"%. c #866B46",
"&. c #876C48",
"*. c #8C724C",
"=. c #90754C",
"-. c #806F5F",
";. c #8A7655",
":. c #81735E",
">. c #8B7A5A",
",. c #867355",
"<. c #937C54",
"1. c #987F59",
"2. c #937A54",
"3. c #866F63",
"4. c #837661",
"5. c #857964",
"6. c #897C66",
"7. c #857C6A",
"8. c #8A7E6A",
"9. c #887665",
"0. c #827E71",
"q. c #837A79",
"w. c #7B837A",
"e. c #9C845E",
"r. c #8D826C",
"t. c #8F896D",
"y. c #948263",
"u. c #92856D",
"i. c #9B8A6C",
"p. c #9D8663",
"a. c #8E906F",
"s. c #9B9161",
"d. c #858173",
"f. c #8B8373",
"g. c #83847C",
"h. c #8B867A",
"j. c #8C8B7D",
"k. c #918672",
"l. c #938A74",
"z. c #9D8F76",
"x. c #938C7C",
"c. c #988D7A",
"v. c #9B9073",
"b. c #9C927B",
"n. c #98947D",
"m. c #A48D6B",
"M. c #A5906C",
"N. c #A08E71",
"B. c #AC997C",
"V. c #A79677",
"C. c #A5A17B",
"Z. c #7D8C96",
"A. c #8C8C81",
"S. c #878A88",
"D. c #8B8D8B",
"F. c #848882",
"G. c #928E82",
"H. c #908F8D",
"J. c #8E9085",
"K. c #8B908D",
"L. c #959284",
"P. c #9B9485",
"I. c #939489",
"U. c #9B9689",
"Y. c #9D9A8B",
"T. c #9A9889",
"R. c #949493",
"E. c #9D9D91",
"W. c #A49A84",
"Q. c #AB9C82",
"!. c #A39B8C",
"~. c #AB9E8E",
"^. c #A19787",
"/. c #A39E91",
"(. c #AA9F90",
"). c #9DA094",
"_. c #9EA39E",
"`. c #A5A28D",
"'. c #ACA28E",
"]. c #ACA887",
"[. c #B2AD8F",
"{. c #A5A293",
"}. c #ACA393",
"|. c #AEA897",
" X c #A4A499",
".X c #ABA699",
"XX c #A6AA9D",
"oX c #ADAA9A",
"OX c #B2A595",
"+X c #B3AA94",
"@X c #B4AB9B",
"#X c #BAAD9D",
"$X c #B8B39B",
"%X c #ACADA1",
"&X c #B3AFA0",
"*X c #ADB0A2",
"=X c #B6B2A3",
"-X c #BCB3A3",
";X c #BEB8A6",
":X c #BAB7A8",
">X c #BDBAA9",
",X c #B5B7AB",
"<X c #C1B4A4",
"1X c #C1B9A7",
"2X c #C4BDAB",
"3X c #C8BFAE",
"4X c #C7BEB0",
"5X c #C8BFB0",
"6X c #C7C0AE",
"7X c #C8C2AF",
"8X c #C7C0B0",
"9X c #C8C0B0",
/* pixels */
"OXOXOX@X#X#X#X#X#X#X#X<X<X#X<X<X<X<X<X;X-X1X1X1X2X1X1X1X>X>X-X>X-X;X;X$X;X-X-X$X$X-X-X$X-X:X-X;X;X;X;X1X1X2X2X2X2X2X2X1X2X2X2X2X",
"OXOXOX@X#X#X#X#X<X#X#X<X<X<X<X<X<X1X1X>X1X1X1X1X1X1X>X2X2X1X>X-X-X;X;X=X;X$X-X;X-X>X-X;X;X;X-X>X;X>X1X1X2X2X2X2X2X2X3X2X2X3X3X2X",
"OXOX@X#X#X#X#X#X#X#X#X<X-X<X<X#XE.R.&X1X2X1X1X1X6X1X1X1X1X1X1X1X;X;X;X;X;X$X:X=X;X$X;X>X-X=X$XoX1X1X1X6X2X2X2X2X3X3X2X3X3X3X2X3X",
"OXOXOX#X#X#X#X#X<X<X<X<X<X<X#Xh.l M I.1X1X2X6X2X1X1X6X6X2X1X2X1X1X1X;X;X;X;X;X1X;X1X$X$X;XJ.{ T.1X1X2X2X2X3X3X6X2X6X3X6X2X3X3X2X",
"OX#XOX#X#X#X#X<X-X<X<X<X<X<X{.n f m I.2X2X2X<X2X|.b 7.2X2X0.F P.| oX1X>X;X:X;X-X;X;X=X;XF.l l A.6X1X2X2X6X2X2X6X4X2X6X2X3X3X3X4X",
"OXOX#XOX#X#X#X<X#X<X<X<X<X<X{.n j N E.1X2X2X3X2XX.Y.| X.[ W Y h.b | d. .x.d.@X1X1X;X1X6Xn a n A.1X6X1X2X6X6X6X2X3X8X4X8X2X3X4X4X",
"OXOX#X#X#X#X#X#X<X<X<X<X-X-X.XM p { #X2X2X<X2X2XoX/ I.L.j.G.h.G.h.I.!...T. .2X>X>X;X>X2XM j c I.6X1X2X2X2X6X6X6X3X4X9X4X4X3X4X3X",
"#X#X#X#X#X#X#X<X<X<X<X;X:X:X@XO.w.<X2X2X3X2X2X2X6X6X6X6X2X2X2X2X2X2X2X2X+X>X1X2X6X>X6X6Xl N J.@X1X6X6X6X6X2X2X6X9X9X8X4X2X4X4X2X",
"OX#X#X#X#X#X<X#X<X#X<X<X<X<X;X<X1X2X2X1X2X2X2X3X6X6X6X2X2X2X2X2X2X2X2X1X2X2X1X2X2X2X1X2XG.T.2X2X2X6X6X2X6X2X2X6X7X7X2X6X2X2X6X2X",
"OX#X#X#X#X#X#X<X<X<X<X<X@XOX+X@X$X>X2X2X2X2X4X4X2X2X6X2X2X6X2X2X2X2X2X2X2X6X2X2X2X2X2X2X2X3X2X6X6X8X>X6X2X6X6X6X7X6X6X6X6X6X6X6X",
"#X#X#X#X<X#X#X<X<X#X<X<Xr.u g f a j j h &.*.2.1.p.e.p.m.M.m.s.M.M.M.V.B.V.V.B.B.B.B.B.B.V.V.N.i.u.W.2X6X6X6X>X6X7X7X6X2X2X6X2X2X",
"#X#X#X#X#X#X#X<X<X<X<X<Xl.d p p a i a f g g D %.%.&.*.e.<.2.<.<.=.=.=.=.*.<.e.1.2.=.=.*.*.&.$.h g N.6X6X6X>X6X6X7X6X2X6X6X6X2X6X",
"OX#X#X#X#X#X<X<X<X<X<X<Xz.a / | | w._ | ...... .} } } W } } / / ~ Y Y = r W W ~ T Q J J J C C r a b.2X2X6X>X8X2X6X6X2X6X2X6X2X6X",
"#X#X#X#X#X#X#X<X<X<X<X<XP.D Y.=X>X>X,X>X>X>X>X6X2X2X2X>X>X,X,X,X>X,X,X* O.XXXXoX%XoX%XXXoX.X{.d.L W.6X6X6X2X6X6X2X6X8X2X6X2X2X2X",
"#X#X#X#X#X<X#X#X<X#X<X<XP.K !.=X,X>X>X>X>X2X2X>X>X2X6X2X>X6X2X2X2X2X2X- I.2X2X3X2X2X6X6X6X>X,Xh.$.W.2X6X8X6X6X6X6X6X6X6X2X2X2X1X",
"#X#X#X#X#X#X<X<X<X<X<X1XW.P /.-X>X>X>X>X>X>X>X2X6X2X6X>X2X2X2X6X2X6X6X- I.1X1X3X8X6X2X6X2X>X,Xh.h W.6X2X2X6X2X2X6X2X2X2X2X2X2X2X",
"#X#X#X#X#X#X#X<X<X<X#X<XW.L !.=X>X,X>X>X>X>X6X1X2X>X2X2X2X2X2X2X6X6X>X* J.6X2X6X6X8X7X7X2X>X=Xf.h W.6X6X6X2X6X6X2X6X6X1X3X1X2X2X",
"OX#X#X#X#X<X#X<X<X<X<X<X!.D {.=X:X>X:X>X>X>X>X6X2X2X2X2X>X>X2X6X>X6X>X* J.1X6X2X6X7X>X>X2X>X=Xr.$.W.2X6X2X6X6X2X6X2X2X2X1X3X2X2X",
"#X#X#X#X#X<X<X#X<X<X<X<X~.K !.=X-X:X:X:XoX1.e.r.y.i.i.v.$X>X2X>X>X6X2X* T.6X2X2X6X>X6X>X>X,X$Xw.$.W.6X2X2X6X6X2X6X2X2X2X1X6X<X1X",
"#X#X#X#X#X#X#X<X<X<X<X<X!.D Y.=X,X>X:X:X!.U U Y t.a.v.y.`.>X>X2X>X>X>X* J.1X2X2X6X6X6X6X>X>X@Xd.h W.6X6X6X2X6X3X2X2X1X2X2X1X6X1X",
"#X#X#X#X#X#X#X<X<X<X<X<X`.K ^.=X-X:X:X,X{.;.p.@.[.6X`.].W.>X>X>X>X2X>X% I.>X>X6X>X6X>X>X>X,X*XX.$.'.2X3X2X2X3X2X2X2X2X6X1X1X1X1X",
"#X#X#X#X#X<X#X#X#X<X#X<X}.K Y.=X=X:X:X:X}.;.e.q.].6XT.v.W.>X2X2X6X>X6X% I.>X6X>X6X>X>X6X>X:XoX7.#.'.2X2X2X2X2X2X2X2X2X1X1X6X1X1X",
"#XOX#X#X#X#X#X<X#X<X#X<X.XK Y.=X-X:X,X>X!.;.1.o.].$X`.5.W.>X>X>X>X>X>X% I.>X6X>X>X6X6X,X>X=XoX| #.'.2X2X2X2X<X2X2X2X2X1X1X1X1X1X",
"#X#X#X#X#X#X#X#X<X#X-X-X{.f Y.=X-X=X-X-X}.;.p.o.].;X`.t.W.>X<X;X>X>X>X% K.6X,X6X>X>X,X6X,X=XoX .h '.2X2X2X2X3X2X2X2X6X1X1X1X<X<X",
"OXOX#X#X#X#X#X#X#X<X#X<X}.D P.=X-X;X-X:X`.,.v.h.C.$XT.t.W.>X;X;X2X>X6X# I.>X1X>X2X>X>X>X,X&X.X_ #.Q.3X<X3X<X3X<X<X2X<X2X<X<X<X<X",
"OX#XOX#X#X#X#X#X#X#X#X#X/.p U.-X=X=X:X=X{.;.l.B.s.[.W.y.^.>X;X;X1X1X1X# I.>X1X1X1X>X>X>X,X&X.X( #.[.2X3X<X3X<X3X2X<X2X<X<X<X<X<X",
"OXOX#XOX#X#X#X#X#X#X<X#X/.u P.=X-X-X-X=X!.;.t.n.a.|.].v.W.-X>X>X1X;X>X# L.1X1X1X1X>X>X:X=X*X.X/ d '.<X<X<X3X<X<X<X<X<X<X<X<X<X<X",
"#X#XOX#X#X#XOX#X#X#X#X<X/.u P.=X=X=X-X-X`.,.y.e.y.s.e.>.W.>X;X1X;X;X>X# U.2X1X1X1X>X>X:X=X@X.X/ g '.3X<X<X<X<X<X<X<X<X<X<X<X<X$X",
"OXOXOX#X#X#X#X#X#X#X#X<X~.y P.&X-X-X-X-X%XT.I.T.T.I.T.T.*X>X1X<X<X<X<X$ U.2X1X1X1X:X>X:X=XoX{./ g OX<X<X<X<X<X<X<X<X<X<X<X<X<X#X",
"OX#X#XOX#XOX#X#X#X#X#X#X!.d L.=X$X=X=X-X=X,X,X:X=X=X=X=X:X>X1X<X<X<X1X% U.<X1X2X1X1X1X:X=X%X(.~ d OX2X2X<X<X3X<X<X<X<X<X<X#X<X#X",
"OX#XOX#XOX#X#XOX#X#X#X<X/.s L.&X=X-X=X=X=X=X:X=X,X=X>X>X-X>X-X-X;XE.o.. B G.:X<X1X>X;X>X=XoX}.) d OX<X<X<X<X<X<X<X<X<X<X<X#X#X<X",
"OXOX#XOX#XOX#X#X#X#X#X#X/.y G.&X@X=X=X=X=X=X=X=X$X:X=X=X:X-X<XXXv z 7   : z x oX<X;X;X:X&XoX!.! d OX2X<X<X<X<X<X<X<X<X<X#X<X#X#X",
"OXOXOX#XOX#XOX#X#X#X#X#X/.s L.@XoX=X=X=X=X=X=X=X=X=X-X-X-X-X-XR 7 q q . : w w v =X<X<X-X&XoX/.) d |.<X<X<X<X<X<X<X<X<X<X#X#X#X#X",
"OXOXOXOXOXOX#X#XOXOX#XOX Xs n.*X=X=XoX=X#X#X=X=X=X-X&X&X=X-XY.w z 7 ;   : w w w U.<X;X=X@XoX/.) D oX<X<X<X<X<X<X#X#X#X#X#X#X#X#X",
"~.OXOXOXOXOXOXOXOXOXOX#X Xi L.@XoX$X=X@X@X=X&X&X@X#X@X-X-X-Xh.w ; 7 ;   - 7 7 7 h.-X-X=X&X.X!.! f OX<X-X<X<X-X#X#X<X#X#X#X#X#X#X",
"OX'.OXOXOXOXOXOXOX#X@X@XXXi L.oX&XoXoX@X@X@X%X$X#X&X-X@X@X#XA.e 7 7 7   * 6 5 : G.#X#X-X&X.X!.! K |.<X#X#X<X#X#X#X#X@X#XOXOX#XOX",
"~.~.OX~.OXOXOXOXOX#XOX#X.Xi L.@X@X@XoX@X@X@X=X@X@X@X=X#X#X-X@Xz e w ;   * 6 6 e &X#X#X@X@X.X!.! K |.#X<X#X#X#X-X@X#XOX#X#X#XOXOX",
"~.OX~.OXOXOXOXOXOXOX#XOX Xi L.oXoX@X@X@X%X@XoX=X=X@X@X#X#X#X#Xh.e e ;   * 6 6 P.#X#X-X-XoX{.!.! h |.#X-X%XO.B _.#X@X@XOXOXOXOXOX",
"~.~.OXOXOXOXOXOXOXOXOXOX Xp I.@X@XoXoX&X$X%X=XoX=X@X-X#X#X#X#X-XI.F w   e W U.#X#X-X&X=XoX.X^.! D }.$X&Xg.F.g.v #X@X#X#XOX#X#XOX",
"~.OX~.~.OXOX#XOXOXOXOX#X Xi G.oX@X@X&X@X@X*X@X=XoX@X-X@X-X#X#X$X$X#X@X# E.-X#X<X-X#X-X$X|..XP.G a .X$X-XB =XXXz  X#XOX#X#X#XOXOX",
"~.OX~.OXOXOXOXOXOXOXOXOX/.V G.oXoX@X@X@X@X%X$X&X=X@X=X@X#X#X#X#X-X#X&X# E.-X#X-X#X#X&X@X+X/.!.P d oX#X#XB @XoXB D.#XOX#X#XOX#XOX",
"~.~.~.OXOXOXOXOXOXOXOXOX}.p G.oX@X@X@X@X@X@X@X&XoX$X@X=X@X-X#X#X#X#XoX$ Y.#X-X#X-X-X&X+XoX/.U.S a |.#X&X] @X.XR S.#X#X#XOX#X#XOX",
"~.~.OX~.OXOXOX~.'.OXOXOX Xp G.oXoX@XoX@XoX@XoX@X@X@X*X$X@X-X#X#X#X#XXX# T.-X#X#X@X&X&XoX(.!.U.S Z }.#X#XE.F./.] D.@X#X#XOX#XOXOX",
"~.~.~.OX~.~.OXOXOXOXOXOX{.i j.OX+X@X.X.X+XoX@XoX@XoX@X@X@X@X#X@X@X#X X$ U.#X-X=X=X@X@X.X~.!.U.A p }.&X@XoX] B k ' Z.OX@X#XOX#XOX",
"~.~.~.OX~.OX~.OXOXOX'.OX{.s x.|.OXOX@X.XoX@XoXoXoX@XoX@X@X@X@X@X@X@X X$ U.@X@X@X@XoXoX{./.!.P.Z Z !.~.~.-.>   @ x #X#X#XOXOXOXOX",
"~.~.~.~.OX~.~.OXOXOXOXOX{.s j.OXOXOXOX.XoXoXoX@XoXoXoX@XoXoXoXoX@X@XE.$ I.+X@XoXoX.X}.(./.^.P.Z D ^.^.c.y 1 > 0 x OXOXOXOXOXOXOX",
"~.~.OX~.~.~.OX~.OXOX}.OXoXs h.OXOX.XOXoX|.oXoXoX|.|.|.XXoX|.|.|.@X@XE.$ I.@XoXoX.X}././.!.Y.P.Z D !.P.8.0 > X > o.OX#XOXOXOX#XOX",
"Q.~.Q.OX~.OX~.~.(.(.OXOXOXs h.OXOXOX}.oX}.oX}.|.{.|..X|..X|..X|.}.+XU.$ L.oXoX.X.X/././.!.Y.L.Z D ^.V.9.3 3 O O q.OXOXOXOXOXOXOX",
"~.~.~.~.~.~.~.~.OX~.OX~.OXy q.OXOX}.OX}.|.|.}..X}..X.X|.oX.X.X.X.XoXI.$ G.oX X(.(././.!.!.^.P.Z D ^.c.-.4 2 3 5 D..XOXOXOXOX&XOX",
"~.~.~.Q.~.~.~.~.~.OX~.~.~.$.q.OX}.}.}.}.}.}..X}.}.{.{.{.{.{.{.|..X.XL.$ G. X(.(./././.!.^.^.G.V G !.c.( 4 + + 3 R.OXOXOXOXOXOXOX",
"^.~.^.~.~.~.~.~.~.~.OXOX~.Z q.OX}.}.{.}.}.}.}.}.|.{.{.{.{.{.{.{.{..XG.$ G.{././././.!.U.U.U.G.V D ^.k.G + , & & R.OXOXOXOXOXOXOX",
"^.^.~.~.~.~.~.~.~.OX~.~.~.Z q.(.}.}.}.}.{.}.{.}.{.{. X{.{.XX{.{.{.{.A.# G.{./././.!.!.!.^.U.G.i I ^.k.G > , & 8 R.OXOXOXOXOXOXOX",
"~.^.~.~.~.~.~.~.'.(.~.}.OXZ 3.{./.}.}.}.}.{.{.{.{.{.{.{.{.{.{.{.{.{.j.$ A./././.!.!.U.!.Y.P.L.V I P.f.S > , & 8 G.OXOXOXOXOX(.OX",
"^.~.^.~.~.^.~.~.~.'.~.~.~.Z ..{.}.{.{.{.{.`.{.{.{.{.{.{.).{.{.{.{.{.j.$ A./.!.!.!.!.U.U.U.U.n.i I G.0.S + O @ 8 H.OXOXOXOXOXOX(.",
"~.^.~.~.~.^.~.~.~.~.}.~.(.A } /.{.`./.`.!.{.`.{.`.`./.!./.Y.{.{.{.{.h.# A./.!./.!.!.!.U.Y.P.L.i ^ G.h.q.B @ @ 9 H.OXOXOXOXOX(.(.",
"^.~.^.~.~.~.~.~.OX~.!.(.~.V } E.E.{.{.).{.{.).).).)./.)./.{.{.{.).).d.# A.!.!.R.!.!.!.!.P.P.c.r -.P.H.S.@.o.O.F.OXOXOXOX~.OX~.OX",
"!.!.!././.~.~.~.(.!.Y.}.(.S / E.).Y.`.).).`.E.E.E.Y././.!.{.{.Y.T.L.X.#  .d.w.r.d.7.7.X...} / r 9.E.I.R.S.OXOX}.OX(.OXOX(.~.(.(.",
"Y.!.!./.!.!.!.!.~./.(././.Y b F E E T Y Y Q T A A S Y H S J J H A i J ^ ^ ^ P _ r.:._ 6.:.^ K i I U.}.}.}.OX}.}.(.(.(.(.~./.(.(.",
"Y./.(.(.(.(.}./././.{.(.).Y ! / d.r.7.9.:.5.4.! / _ r.8.5.8.r.:.^ ^ _ :.4._ ~ _ k.4.4.u.u.6.:.^ ) 0.|.}.}.}.|.}.(.(.(.(././.(.!.",
"L.^.^.U.!./.^.^.!.Y.!.!.I.f.f.x.x.c.h.l.t.k.r.7.8.r.l.l.f.f.l.t.r.d.r.l.c.t.t.t.c.l.u.l.b.b.l.l.l.l.^.^.!.^.^.P.^.^.U.U.c.c.G.n.",
"3.4.7.7.7.7.7.7.5.| 4.7.4.7.5.7.7.7.5.5.8.r.6.4._ _ _ | :.| _ | 5.| 4._ 6.r.r.6.8.8.7.6.5.5.8.7.7.8.7.8.6.r.r.5.5.7.5.4.9.4.4.| ",
"! Y ) ! ! ! ! ! ^ ( ( I P 4.9.4.4.9.4.4.4.4.4.:._ ( :.:.:.4.>.7.5.6.r.:.4.4.7._ :.:.4.4.5.5.5.5.9.4.5.8.r.r.r.6.8.r.8.6.4.4.4.:.",
"H H P ! ! P ^ _ _ _ ^ ! ! ^ ^ ^ I ! I ( ( :.:.:.( ( :.6.5.5.;.:.:._ ^ _ ( _ :._ :.:.| _ :.4._ _ :.:.4.5.6.8.8.8.r.r.8.8.6.6.5.5.",
"~ ^ ^ ( ( _ _ 4.4.:.-.( ( 4._ ( 9.( 4.:.4.4.4.:.:.:.9.5.6.7.6.5.5.5.4.4.4.6.4.4.4.4.6.5.5.4.4.:.:.4.5.8.8.u.u.u.k.k.k.u.k.r.8.8."
};
