/* XPM */
static char *result[] = {
/* columns rows colors chars-per-pixel */
"64 64 218 2 ",
"   c #161615",
".  c #201D15",
"X  c #392E1C",
"o  c #2E2518",
"O  c #2C2B2B",
"+  c #2A2328",
"@  c #342D25",
"#  c #3B2C24",
"$  c #352C2B",
"%  c #3A2A2B",
"&  c #362421",
"*  c #2B302C",
"=  c #3B3124",
"-  c #36322B",
";  c #3B312F",
":  c #383429",
">  c #342B30",
",  c #2D3131",
"<  c #2E383A",
"1  c #2B3338",
"2  c #333A39",
"3  c #3A3836",
"4  c #282731",
"5  c #4C291D",
"6  c #402F1A",
"7  c #48361B",
"8  c #53331E",
"9  c #542D1C",
"0  c #432D26",
"q  c #472926",
"w  c #532E23",
"e  c #5C2F22",
"r  c #473324",
"t  c #4C3325",
"y  c #43352B",
"u  c #4A352C",
"i  c #45392A",
"p  c #4B382C",
"a  c #4A3A26",
"s  c #533426",
"d  c #52332C",
"f  c #5B332C",
"g  c #553B2A",
"h  c #5C3626",
"j  c #433632",
"k  c #443A31",
"l  c #4D3C34",
"z  c #543E33",
"x  c #593D35",
"c  c #533938",
"v  c #653526",
"b  c #6B3A32",
"n  c #34413D",
"m  c #4A412C",
"M  c #4B4126",
"N  c #534422",
"B  c #5C4926",
"V  c #4F4234",
"C  c #4B433C",
"Z  c #4A4738",
"A  c #5B4F3D",
"S  c #554539",
"D  c #5D513F",
"F  c #624A2F",
"G  c #675425",
"H  c #64463D",
"J  c #6F4233",
"K  c #7C463A",
"L  c #605338",
"P  c #303F45",
"I  c #4A4B46",
"U  c #544F46",
"Y  c #545246",
"T  c #5C5242",
"R  c #5B554B",
"E  c #5D5A4D",
"W  c #565349",
"Q  c #5C5D53",
"!  c #655443",
"~  c #6B5D46",
"^  c #665C4C",
"/  c #6B5C4D",
"(  c #685549",
")  c #7B554E",
"_  c #645C52",
"`  c #655E5E",
"'  c #6C514D",
"]  c #5F615A",
"[  c #6C624C",
"{  c #6D6247",
"}  c #72644F",
"|  c #6B6455",
" . c #656259",
".. c #6D6759",
"X. c #69695A",
"o. c #746551",
"O. c #766953",
"+. c #796B56",
"@. c #73695D",
"#. c #7C6E5A",
"$. c #7E725C",
"%. c #717158",
"&. c #5C606D",
"*. c #4D687B",
"=. c #4B6779",
"-. c #526D7A",
";. c #5C777B",
":. c #6E6960",
">. c #756D67",
",. c #767066",
"<. c #7D7463",
"1. c #7B756A",
"2. c #7E796B",
"3. c #75746A",
"4. c #787477",
"5. c #697C78",
"6. c #824B39",
"7. c #946536",
"8. c #884E42",
"9. c #875E55",
"0. c #895549",
"q. c #806F45",
"w. c #976840",
"e. c #876259",
"r. c #93675F",
"t. c #81735E",
"y. c #917152",
"u. c #836A62",
"i. c #956C61",
"p. c #837662",
"a. c #857965",
"s. c #897C66",
"d. c #82756A",
"f. c #857B6A",
"g. c #8A7D6A",
"h. c #91706A",
"j. c #837C73",
"k. c #897976",
"l. c #927D73",
"z. c #8C816B",
"x. c #88846C",
"c. c #91846E",
"v. c #938C6A",
"b. c #8B8475",
"n. c #8B8A75",
"m. c #8B857A",
"M. c #8E8A7A",
"N. c #818776",
"B. c #918573",
"V. c #938975",
"C. c #91877A",
"Z. c #938C7C",
"A. c #9A8D7C",
"S. c #98827E",
"D. c #97917E",
"F. c #99927F",
"G. c #557281",
"H. c #6A7782",
"J. c #798886",
"K. c #8A8E8A",
"L. c #898B87",
"P. c #948E82",
"I. c #998B82",
"U. c #938E8A",
"Y. c #9D8C89",
"T. c #978686",
"R. c #8F9789",
"E. c #969182",
"W. c #9C9585",
"Q. c #9D9985",
"!. c #94948A",
"~. c #9C968A",
"^. c #9E998B",
"/. c #9D9792",
"(. c #999A94",
"). c #A09B87",
"_. c #A1938B",
"`. c #A39B8C",
"'. c #AB9E8E",
"]. c #AA968A",
"[. c #A69F91",
"{. c #AA9F90",
"}. c #A39F98",
"|. c #9AA78C",
" X c #99A392",
".X c #A4A18E",
"XX c #ABA48D",
"oX c #AAAB8B",
"OX c #AAA387",
"+X c #A6A193",
"@X c #ACA292",
"#X c #A3AD92",
"$X c #ACAB93",
"%X c #ADA699",
"&X c #AEA99A",
"*X c #B2A595",
"=X c #B0AA95",
"-X c #B5A999",
";X c #BAAC9D",
":X c #ADB090",
">X c #B6B19F",
",X c #AFABA1",
"<X c #B4AEA1",
"1X c #B5B2A3",
"2X c #BDB3A2",
"3X c #BEB8A6",
"4X c #BDB6A8",
"5X c #BFB9A9",
"6X c #C2B5A4",
"7X c #C1B9A7",
"8X c #C4BCAA",
"9X c #C8BDAC",
"0X c #C7BEB0",
"qX c #C8BFB0",
"wX c #C6C0AE",
"eX c #C8C2AF",
"rX c #C7C0B0",
"tX c #C8C0B0",
/* pixels */
"*X*X*X-X;X;X;X;X;X6X;X6X6X;X6X6X6X6X7X6X7X7X7X7X7X8X7X7X3X3X3X3X3X:X:X7X3X2X>X>X>X2X>X>X>X7X3X3X3X3X3X3X7X7XwXwX7X8X8X8X8X8X8X8X",
"*X*X-X-X;X;X;X;X6X;X;X6X6X6X6X6X6X6X7X7X7X7X7X8X7X7X7X7X8X8X3X3X3X7X3X3X3X>X3X3X7X>X7X7X>X7X>X3X3X7X7X7X7XwXwX7XwXwX8X8X8X9XwX8X",
"*X*X-X-X;X;X;X6X;X;X;X6X6X6X6X6X7X7X8X7X7X7X7X7X8X8X7X8X8X7X7X7X7X3X3X3X3X3X2X2X>X7X>X3X7X>X7X7X3X7XwX7XwX7XwXwXwXwXwXwXwX9XwX8X",
"*X-X-X;X;X;X;X;X6X6X6X6X6X6X6X6X8X7X7X7X7XwX8X8X7X8X8X8X7X7X7X7X8X3X3X3X3X2X3X3XwX>X7X3X7X7X7X7X7XwX7XwXwX7XwXwXwX8X8XwXwXwX9XwX",
"*X-X-X;X;X;X6X;X;X6X6X6X6X6X6X7X7X7X7X7X8X8X8X8X8X8X8X8X8X8X8X8X8X7X7X3X3X3X3X:X>X3X3X>X3X3X7X3X7XwX8X8XwX8X7XwX8X0XwXrX9XwX9XqX",
"*X-X-X-X;X;X;X;X;X6X6X6X6X6X7X8X7X7XwX8X8X8X8X8X8X8X8X8X8X8X8X8X3X3X8X7X3X3X7XwX3X3X7XwXwX3X8X8X7X8X8X8XwXwXwXwXtX8XrX8XwX9X0X0X",
"-X-X-X;X;X;X;X6X6X6X6X6X7X7X7X7X7XwX8X8X8X8X8X8X8X8X8X8X8X8X8X8XwX7X8X8X8X7X7X7X3XwXwX3X3XwX8X8XwX8X8XwXwXwXwXwXtXtXtX0XqX8X8XtX",
"-X-X;X;X;X;X6X;X6X6X6X6X7X7X7XwX8X8X8X8X8X8X8X9X8XeXeX8X8X8X8X8X7XwX8X7X7X8X8X8X3XwX3X3XwX3X8X8X8X8X8XwX7XwXwXwXtXtXrXrX0X0X0XwX",
"-X;X;X;X;X;X;X;X6X;X6X6X6X9X7X6X8X8X9X8X9X8X8XwXwXwXrX5X8X8X8X8XwX8X7XwX8X7XwX7XwX8X8X8X8X8X8X8XwX8XwX5X5XwX8XwXtXwXwX8XwXwXwX8X",
"-X;X;X;X;X;X6X6X6X6X6X6X6X9X7X9X6X8X8X8X8X8X8XwX8XwXwXrXwXwX8X8X8X8XwX7X8X7X7XwX8X8X8X8X8X8X8XwXwXwXwXwXwXwXwXwXeXwXwXwXwX8XwXwX",
"-X;X;X;X;X6X;X6X6X;X6X6X7X9X6X9X9X8X8X9X8X8X8XwXwX8XwX8X8XwX8X8XwX7X7XwX8X8X8X8X8X8X8X9XwXwXwXwX8XwXwXwXwXwX8XwXeXwXwX8XwXrX8X8X",
";X;X;X;X;X;X6X;X6X6X6X6X6X6X9X6X6X9X8X8X9X8X8X9XrX8X0X8X8X8X8X8X7XwX7XwX8XwX8XwX8X8X8XwX5XwXwXrXwXwXwXwX5XwXwX8XeXwXwXwXwX8XwXwX",
"-X;X;X;X;X;X6X6X6X6X6X6X6X9X6X9X9X8X8X9X8X8X8X8X8X4X8XwX8X8X0X8X3X>X4X1X5X5X8X8XwX8X8XwXwXwXwX5X5XwX5XwXrXwX8XrXwXrX8X8X8XrXwXwX",
";X;X;X;X6X;X;X6X6X6X6X6X6X6X6X6X6X9X9X6X8X9X8X0XwX X(.Y./.T.T.L.).|.(.%X4X5X8X8X7XwXwXwX8XwXwXwXwXwXwXwX8X0X5XrX5X5XwXwXwX5X8X8X",
";X;X;X;X;X;X;X6X6X6X6X6X6X6X9X6X6X6X8X8X8X9X9X8X8X[.K.K.9.9.i.l.R.OXOXoX4X5X8X8X7XwX1X-X&X&X,X&X&X&X%X%X%X+X+X+X+X%X8XwXwX8X8X8X",
";X;X;X;X6X;X;X6X;X6X6X6X6X6X6X9X9X9X6X9X8X8X8X8X8X[.T.d.y.w.9.9.5.!.(.=X5X5X8X8X>X7X1X;X>X-X1X-X&X&X,X&X-X&X&X&X&X+XwX8X8X8X8X8X",
";X;X;X6X;X;X;X6X6X6X6X6X6X6X6X6X9X6X9X6X9X6X9X9X8X+Xk.K 7.7.0.) ] 5.J.+X2X3X8X8X3X4X4X4X4X4X2X1X-X&X-X1X4X1X1X1X2X*X8X8X8X8X8X8X",
";X;X;X;X;X6X;X6X;X6X6X6X6X6X6X6X6X9X6X9X9X9X9X9X8X+Xh.K 6.8.` ` O.%.G.R.2X7X9X8X4X5X8X3X%X~.E.E.E.E.m.M.C.&X1X4X4X<X8X8X8X8X8X8X",
"-X;X;X;X;X;X6X;X6X6X6X6X6X6X6X6X6X6X9X6X9X9X9X6X8X+XZ.i.u.r.&.H.-.-.=.J.1X3X9X8X3X4X5XP.P.E.E.E.W.&X1XM.,.Z.Z.5X8X1X8X9X8X8X8X5X",
";X;X;X;X;X6X;X6X6X6X6X6X6X6X6X6X6X9X6X9X6X6X9X9X9X@X/.L.T.U.k.H.-.;.=.|.4X5X8X8X3X4X~.1.W R 1.@.E E b.2.P.4X&X/.8X<X8X8X8X8X7X7X",
"-X;X2X;X6X;X).o.( ^ _ ..| t.d.g.l.l.A.F.W..X>X8X8X+X(.P.1.X.>.4.b.R.Q. X1X7X8X8X3X4X1X_ ,. .,.:.R  .C X.1.E.8XwX8XwX8XwX7X3X3X7X",
";X;X;X;X;X;XZ.b # : < g g G u e 9 s f j % Y =X9X8X+X$XOX|.OXN.>.I.A.~.`.1X3X8X8X6X8X9X1X:.>. .3. .Y _ U 2.1X8X8X8X7X8X7X7XwXwX7X",
"-X;X-X;X;X2XM.x 0 M m B u @ y e e s t m = U %X9X8X%X:X#X$XoX|.p.l.C.~.'.4X4X8X8X4X8X4X%X~.1.Q R Y X.P.b.^.4X8X8X8X7X8X8X7X7X3X3X",
";X-X;X;X;X;XM.z i a g p l Z - 9 l s t k # U *X9X9X%X#X:X:X|.v.@...f.T.}.2X3X8X9X4X8X7X%X{.<X!.~.~.W.Z.E.4X8X8X8XwX7X8X7X7X6X3X6X",
"-X-X;X;X;X;XZ.V l d b d j V ; % < w i i @ R *X6X9X@X=X$X#Xn.N.2.k.I./.].1X4X7X8X2X8X8X2X8X8X8X4X3X>X>X7X8X9X6X8X7X3X7X6X7X6X2X6X",
"-X-X-X-X;X;XZ.T S c b q O @ O + 4 t # # 0 { =X8X6X%X1X1X1X1X$X&X%X<X<X1X1X4X8X6X3X8X8X7X7X8X8X9X7X3X7X8X6X6X9X8X7X>X6X6X6X6X6X6X",
"*X;X-X;X;X-XZ.A i u d 0 a N N + + 5 @ $ & [ =X6X8X^.^. X^.^.^.Q.Q.Q.^.^.@X>X6X8X`.).).W.~.~.W.W.W.D.F.Z.F.Z.Z.V.M.W.6X6X6X6X6X;X",
"*X-X-X-X-X;XC.! F u q > 7 B G n $ u X X a / =X6X6X$X@X@X$X@X@X@X@X@X+X@X=X2X6X9X6X6X8X6X7X6X8X6X6X6X8X6X6X6X6X6X6X7X6X6X;X6X6X6X",
"*X;X*X;X;X;XC.I u 0 v r d h b z $ k p - 3 _ %X6X6X8X8X6X8X6X7X6X6X6X6X8X8X8X7X6X8X8X6X8X8X7X6X9X8X9X6X6X6X6X6X6X6X6X6X6X6X6X;X6X",
"*X*X-X;X*X;XC.I = k a $ > $ > $ 1 P P 2 < ] $X6X6X;X&X&X-X=X%X%X%X+X[.%X%X'.`.'.Q..X`.`.).;X6X6X9X6X6X9X6X6X6X6X6X6X6X6X6X6X6X;X",
"-X-X;X*X;X;XB.V @ - * * : : O O ; * , p y W @X6X6X^...b.P.E.M.m.b.B.C.E.^.^./.`./.+X+Xn.| +X9X9X9X6X6X9X6X6X6X6X6X6X6X6X6X6X;X;X",
"*X*X*X;X*X;XS.H 7 7 + @ e 9 7 0 8 t 5 v w ( @X2X6XW.| +X1X1X<X%X%X%X&X&X1X1X1X1X&X4X4XW.| +X6X6X6X6X6X6X6X6X6X6X6X6X6X6X;X;X6X;X",
"*X*X*X-X-X-XC.I : ; 1 < u 3 2 c t 6 5 v h / @X6X2XW.| +X1X1X%X^.[.@X[.%X<X1X1X%X!.&X1XE.| .X6X6X6X6X6X6X6X6X6X6X6X6X6X6X;X;X;X6X",
"*X*X*X*X-X;XC.V . X   # v v q f o X X u d Q XX6X2X~.[ Q.&X&X+X^.+X%X%X@X+X&XE.2.[.&X-XE.^ .X6X6X6X6X6X6X6X6X6X6X;X;X;X6X;X;X;X-X",
"@X*X*X*X*X*XZ.@.S D j V T H i S y @ ; 2 ,  .@X;X;XW.! D.&X%X`.^.@X%X%X%X'.b.f.b.%X%X=Xb.A '.1X6X6X6X6X6X6X6X6X;X6X;X;X;X;X-X;X-X",
"@X@X*X*X*X*X).W.D.Z.M.P.I.l.V.V.Z.b.n.b.b.).%X;X;X).T Z.%X%X%X%X/.%X`.Z.b.v.b.F.&X&X&Xb.A `.;X;X;X;X;X;X;X6X;X;X-X;X;X;X-X-X-X-X",
"'.'.*X@X*X*X`.`.).`.).`.].F.].).`.`.`.).`.@X$X2X;X~.D B.%X%X+X%X).b.b.B.Z.B.A.XX-X&X<XZ.A '.;X;X;X;X;X6X;X;X;X2X;X;X;X*X-X-X*X*X",
"'.*X'.*X*X*X*X*X=X-X*X-X*X;X;X;X-X-X-X-X;X;X;X;X2X).T b.%X%X`.~.~.x.l.Z.Z.n.W.-X;X1X<XZ.A %X;X;X;X;X2X;X;X6X;X;X;X;X;X;X-X*X-X*X",
"'.'.'.*X*X*X*X*X*X*X-X-X-X-X-X-X;X;X;X;X;X;X;X2X;X^.T f.%X%X`.~._.W.~.).C.`.%X-X;X2X;X^.! ;X6X;X6X6X;X6X;X;X;X;X;X;X;X*X;X*X-X*X",
"'.*X'.*X*X-X*X*X-X*X*X-X-X-X;X;X;X;X;X;X2X;X;X;X;X`.T d.+X+X%X+X_.).E.[.[.%X&X1X;X2X2XXX~ >X2X;X;X;X;X;X2X;X;X6X;X;X;X*X;X;X-X-X",
"'.*X'.*X*X*X*X*X*X*X*X*X*X;X;X;X-X;X;X;X;X;X;X;X>X`.T <.+X@X%X+X@X^.Q.+X%X&X&X2X;X;X2X%X~ =X2X2X6X;X;X;X;X;X;X;X;X;X;X;X*X*X;X*X",
"'.'.'.*X*X*X*X*X*X*X*X*X*X*X*X*X;X;X;X;X;X;X;X;X;X).T <.+X@X^.E.E.P.m.P.b.M.Q.1X2X2X;X%X~ @X2X;X;X6X;X;X;X;X;X*X;X-X;X;X;X*X*X;X",
"'.'.*X'.*X'.*X*X*X*X*X*X*X-X*X;X-X;X-X-X-X;X;X;X;X`.^ [ d.f.2.1.2.2.1.f.f.d.f.g.V.V.A.V.a.-X;X;X;X;X;X;X;X;X;X;X;X;X;X*X-X-X;X*X",
"'.'.*X'.'.*X'.*X*X*X*X*X*X*X*X;X-X*X*X-X*X-X;X;X;XQ.V.V.M.M.b.n.b.b.m.b.b.x.b.z.M.E.W..X@X;X;X;X;X;X;X;X*X;X;X;X-X-X*X;X-X;X*X*X",
"'.'.'.*X*X'.*X*X*X*X'.*X*X*X-X*X*X*X*X;X-X*X;X;X*X`.F.F.).F.F.].^.).).).).).F.].`.).'.XX+X;X;X;X;X;X;X;X;X;X;X;X;X;X;X;X*X;X*X*X",
"].'.'.'.'.*X].*X*X*X*X*X*X*X*X*X*X-X*X*X-X;X-X*X;X;X;X;X-X;X;X-X;X;X;X;X;X-X;X;X;X;X;X;X;X-X;X;X;X;X;X*X;X*X*X*X*X-X*X*X*X*X*X*X",
"XX'.*X'.'.*XXX*X*X*X*X*X*X*X*X*X-X*X*X;X-X-X;X*X-X*X*X;X-X-X-X-X-X-X-X;X-X-X;X;X;X;X;X-X-X-X;X-X;X*X*X;X;X-X;X;X*X-X;X*X*X*X*X*X",
"].'.'.'.'.'.'.'.'.*X'.'.*X*X*X*X*X*X*X*X*X*X*X*X*X-X*X*X-X*X-X*X-X-X-X-X-X-X-X-X-X-X-X-X-X-X-X-X*X;X*X*X-X-X*X-X*X*X*X-X*X*X-X*X",
"OX'.].'.'.'.'.'.*X@X*X'.*X*X*XXX*X*X*X*X*X*X*X*X*X*X*X*X*X*X*X*X*X;X*X;X*X;X*X;X-X-X-X-X-X-X-X-X*X;X*X*X*X*X;X*X*X*X*X-X*X*X*X*X",
"].'.OX'.'.'.'.@X'.*X'.'.'.*X*X*X'.*X*X@X@X*X*X*X@X*X*X-X*X*X*X*X*X*X*X*X*X*X*X*X*X-X*X-X*X-X*X*X*X*X*X*X*X*X*X*X*X*X*X*X*X*X*X*X",
"].'.'.'.'.'.'.{.'.'.*X*X'.*X'.*X*X*X*X*X*X*X*X*X*X*X*X*X*X*X*X*X*X*X*X*X*X*X*X*X*X*X*X*X*X*X*X*X*X*X*X*X;X*X*X*X*X*X*X-X*X*X*X*X",
").].].].'.'.'.'.'.*X'.'.*X'.'.*X'.*X@X'.*X'.'.*X*X'.*X*X*X*X*X*X*X*X*X*X*X*X*X*X*X*X*X-X*X*X*X*X*X*X;X*X*X*X*X*X*X-X*X*X*X*X*X*X",
"].'.].'.'.'.'.'.'.'.'.'.'.'.'.*X@X*X@X*X*X*X'.*X'.*X@X*X*X*X'.*X*X*X*X*X*X*X*X*X-X*X*X*X*X*X*X*X*X*X*X*X*X*X;X*X*X*X*X*X*X*X*X'.",
"].).`.'.`.].'.XX'.*X'.'.'.*X'.'.@X@X'.*X'.'.*X@X'.*X*X*X*X'.*X*X*X*X*X*X'.*X*X*X*X*X*X*X*X*X*X*X*X*X*X*X*X*X*X*X*X*X*X*X*X*X'.*X",
").`.].'.'.].'.'.'.'.*X'.'.*X*X'.*X'.*X'.'.@X@X@X@X'.*X'.'.'.*X*X*X*X*X*X*X*X'.*X*X*X*X*X*X*X*X*X*X*X*X*X*X*X*X*X*X*X*X*X*X'.*X].",
"'.`.`.].'.'.'.'.*XXX'.'.'.'.@X'.'.*X'.*X'.@X@X@X'.*X'.@X*X'.'.*X*X].*X*X*X*X*X*X*X*X*X*X*X*X@X*X*X*X*X*X*X*X*X*X*X*X*X*X*X*X*X*X",
"`.`.`.`.`.`.'.'.'.'.[.'.+X@X'.+X@X{.{.{.@X'.'.+X{.{.{.%X@X@XXX@X].*X*X*X@X*X@X*X*X*X*X*X{.*X*X@X@X*X*X*X*X*X*X*X'.*X*X@X'.XX@X'.",
"^./.`.[.`.[.`.`.'.].'.[.'.[.'.[.[.[.'.[.'.'.'.[.+X`.'.[.'.'.'.'.*X].+X[.'.{.@X'.{.XX{.{.*X'.{.@X{.@X@XXX@X*X'.@XXX].@X{.'.[.{.{.",
"^.[.{.@X{.}.[.'.+X'.[.+X+X@X+X@X+X[.[.'.[.`.[.+X%X@X@X+X[.@X+X+X'.XX{.@X@X@X@X@X@X%X+X@X@X%X+X@X@X%X+X%X@X%X@X+X*XXX{.[.`.`.{.`.",
"E.~.)._.`.`.`.`.`.`.`.`.[.`.`.[.'.'.`.'.'.'.[.`.`.`.`.`.`.[..XXX'.'.'.'.[.'.'.'.'.`.`.`.`.).).`.).).`.^.].).).Q.].F.).W.Z.Z.W.I.",
"d.d.a.f.f.f.f.a.a.d.p.s.f.d.a.f.g.g.s.s.g.g.s.t.$.$.$.<.$.$.$.t.a.p.p.$.f.z.z.f.f.f.s.s.a.a.g.g.f.s.s.g.s.z.s.a.a.a.a.p.a.p.p.p.",
"o.o.o.o.o.} O.O.+.#.+.o.} p.p.p.t.t.a.t.t.a.a.t.t.+.t.t.s.t.x.t.a.s.z.t.p.p.s.t.t.p.p.p.a.a.a.a.a.a.s.g.z.z.z.z.g.z.z.s.p.p.<.$.",
"[ [ } O.} o.+.$.$.$.+.o.} +.+.+.o.o.O.t.#.t.t.t.#.#.t.s.s.t.t.t.$.$.+.+.$.$.t.$.$.t.t.$.t.p.$.#.t.t.p.s.s.z.s.z.z.z.z.g.s.s.s.s.",
"O.+.+.+.#.#.t.t.t.t.t.+.t.p.t.#.t.t.t.t.t.a.p.t.t.t.a.s.z.t.z.p.s.s.a.p.p.a.p.p.a.a.a.a.a.p.p.t.t.p.p.g.z.c.c.c.V.c.B.c.B.z.g.s."
};
