/* XPM */
static char *result[] = {
/* columns rows colors chars-per-pixel */
"64 64 196 2 ",
"   c #2D2925",
".  c #2A272A",
"X  c #352E2A",
"o  c #372D27",
"O  c #36332E",
"+  c #3A332D",
"@  c #3E382F",
"#  c #3E3731",
"$  c #3D3A34",
"%  c #33323B",
"&  c #3B3A3D",
"*  c #41372F",
"=  c #423B34",
"-  c #473F37",
";  c #474137",
":  c #47413A",
">  c #4B443C",
",  c #4E483E",
"<  c #504B3F",
"1  c #7B4E32",
"2  c #373941",
"3  c #353767",
"4  c #373D74",
"5  c #4F4A42",
"6  c #45464C",
"7  c #4D4B4F",
"8  c #484446",
"9  c #544D44",
"0  c #565046",
"q  c #5A5146",
"w  c #565149",
"e  c #5A544B",
"r  c #5E584D",
"t  c #4B4B51",
"y  c #43435D",
"u  c #524F53",
"i  c #545254",
"p  c #5E5951",
"a  c #565559",
"s  c #5C5B5E",
"d  c #5A5757",
"f  c #615A4F",
"g  c #60574E",
"h  c #635D53",
"j  c #685E53",
"k  c #625E5B",
"l  c #5F7E5F",
"z  c #6F624D",
"x  c #72644F",
"c  c #666157",
"v  c #6A6256",
"b  c #66615A",
"n  c #6C655B",
"m  c #746551",
"M  c #766953",
"N  c #796B56",
"B  c #70675B",
"V  c #726A5D",
"C  c #7C6E5A",
"Z  c #7E725C",
"A  c #5B5C62",
"S  c #574D71",
"D  c #4B4C78",
"F  c #605E61",
"G  c #616062",
"H  c #6C6963",
"J  c #676668",
"K  c #6C6B6B",
"L  c #746D63",
"P  c #706E6B",
"I  c #777065",
"U  c #7B7364",
"Y  c #75716C",
"T  c #7C746A",
"R  c #7E786E",
"E  c #777B6F",
"W  c #6E6E73",
"Q  c #7A6E76",
"!  c #737272",
"~  c #7E7A74",
"^  c #7D7D7A",
"/  c #88595F",
"(  c #956C44",
")  c #8C7B43",
"_  c #85774A",
"`  c #8A764D",
"'  c #907842",
"]  c #866A54",
"[  c #81735E",
"{  c #8A7656",
"}  c #967757",
"|  c #A06D59",
" . c #A5765D",
".. c #A77C58",
"X. c #975C62",
"o. c #846D6A",
"O. c #896669",
"+. c #996865",
"@. c #837661",
"#. c #857964",
"$. c #897C66",
"%. c #857B6A",
"&. c #8A7E69",
"*. c #957F62",
"=. c #8D6976",
"-. c #8F6B78",
";. c #847D72",
":. c #827D7A",
">. c #887575",
",. c #A26F64",
"<. c #A87261",
"1. c #758B65",
"2. c #AB8B38",
"3. c #AE9236",
"4. c #B49639",
"5. c #928156",
"6. c #B49240",
"7. c #A3905E",
"8. c #B5995D",
"9. c #AC8851",
"0. c #8D816B",
"q. c #958264",
"w. c #9A8567",
"e. c #92846E",
"r. c #9C8769",
"t. c #9B8D6B",
"y. c #858174",
"u. c #8A8376",
"i. c #86837E",
"p. c #8C867A",
"a. c #8F887B",
"s. c #928571",
"d. c #9D8C72",
"f. c #938B7D",
"g. c #99917F",
"h. c #A38E6D",
"j. c #A4936B",
"k. c #B59E62",
"l. c #A38E72",
"z. c #A29277",
"x. c #A6947B",
"c. c #A9957E",
"v. c #646A8A",
"b. c #63678A",
"n. c #726D8B",
"m. c #767386",
"M. c #6B6F90",
"N. c #807B85",
"B. c #838682",
"V. c #8D8982",
"C. c #8B8089",
"Z. c #898A84",
"A. c #938D83",
"S. c #918E89",
"D. c #8E928E",
"F. c #9C9384",
"G. c #93918C",
"H. c #9B958B",
"J. c #9E988B",
"K. c #9E9A91",
"L. c #989690",
"P. c #A29987",
"I. c #A49B8C",
"U. c #AA9E8E",
"Y. c #A59987",
"T. c #A59E91",
"R. c #AA9F90",
"E. c #ADA18E",
"W. c #B2A38C",
"Q. c #A7A092",
"!. c #ADA292",
"~. c #ADA699",
"^. c #AFA89B",
"/. c #B2A595",
"(. c #B6AA96",
"). c #B8AC94",
"_. c #B1A699",
"`. c #B6A999",
"'. c #BAAC9C",
"]. c #BCB19D",
"[. c #B7ADA0",
"{. c #B9AFA0",
"}. c #BDB3A2",
"|. c #BEB8A6",
" X c #BFB8AA",
".X c #C0B29C",
"XX c #C1B5A4",
"oX c #C1B9A7",
"OX c #C4BDAB",
"+X c #C5BBAB",
"@X c #C7BEB0",
"#X c #C8BFB0",
"$X c #C6C0AE",
"%X c #C8C2AF",
"&X c #C7C0B0",
"*X c #C8C0B0",
/* pixels */
"/././.`.`.'.'.'..X[.'.XXXX'.XXXX$X.XoXoXoXoXoXoXOX].|.$X|.|.|.|.|.].}.|.].{.{.{.].].|.{.|.|.|.|.|.|.|.|.|.$X$XOXoX$XOXOXOXOXOXOX",
"/./.`.`.'.`..X'.[..X'.XXXXXXXXXX.X.XOXoXoXoXoXOX|.$X|.|.$X.X|.].|.|.|.|.|.|.|.|.|.].|.].|.{.|.|.|.|.|.|.|.$X$XOXOX$XOXOXOX+X$XOX",
"/./.`.`..X[.{.{..X[.'.XXXXXXXXXXOX.XoXOXoXoXoXoX$X|.$X|.oX$XoX$X|.|.|.|.|.|.].|.|.|.|.].|.|.{.|.|.|.|.$X|.$X|.$X$X$XOX$X$X$X$X+X",
"/.`.`.'.[.{..X.XXXXXXXXXXXXXXXXXOXOXoXoXOXOX$XoX|.$XoX$XoXoX$X.X|.|.|.|.|.].|.|.].|.|.|.|.|.|.|.|.|.$X$X$X$X$X$XOX$XOX$X%X+X@X%X",
"/.`.`.'.'.'.[..X{..XXXXXXXXXXX+XOXOXoXoXOXOXOXOX$XoXOXOXOXOXOXOX$X|.|.|.|.|.|.{.|.|.|.|.|.|.|.|.$X$X$X$X$X$X$X$X@XOX$XOXOX@X@X@X",
"/./.`.'.'.'.[.XXXXXXXXXXXXXX+X+X.XOXOXOXOXOXOXOXoX$XOXOXOXoXOXOX|.|.$X|.|.|.|.|.oX|.|.|.$X|.OXOX|.|.oX$X$XoXOX$X@X#X#X$X%X@X@X@X",
"`.`.'.'.'.'.{.{.XXXXXXXXXXoX+X XOXOXOXOXOXOXOXOXoX$XOXOXOX+XOX%X$X$X$X|.|.|.|.|.|.|.|.|.|.$X|.OX$XoX$XoX$X$X$X$X%X@X*X@X%X+X@X@X",
"`.`.'.`.'..X.X.XXX.XXX XXX+XoX X%X.XOXOXOXOX+X+X$X$X$XOXOXOXOX.X|.|.|.$X|.$X|.$X$X|.$X$X|.OXOXOX$XOX$X$XOXOXOX$X%X*X*XOX%X@X@XOX",
"/..X`.'.{..X{..XXXXXXXXXXX+X+X+XOXOXOXOXOX+X+X$X X$X$XOXOXOXOXOX$X|.$X|.|.OXOXoXOXOXOXoXOXOXOXOXOX X$X$X$X&XOXOX%X%XOX$X$X$XOX$X",
"`.`.'.'.{.[.XX.XXXXXXXXXXXXX+XXXoXOXOX+X+XOXOX$X&X&XOX$X$X#XOXOX$X$X$X$XOX$XOX$XOXOXOXOX$X X$X$X$X$X$X$XOXOX$X$X%X%X$X$XOX&XOX$X",
"'.'..X`.'..X{.XXXXXXXXXX+XXX+XXX+X+XOX+XOXOXOX%X$X$XOX$XOXOXOXOX|.$X$X|.OX|.OXOXOXOXOX$XOX$X$XOX$X$X&X$X$X$X$XOX%X%XOXOXOX$X&XOX",
"'.`.[.[..X{.{..X.XXXXXXXXX+XXX+XoX+XOXOXOXOX+X+X$X$X$X&XOX$XOX+X$X$X|.$XOX$XOX$XoXOXOXOX$X$X$X$X$X$XOX$X$XOX$X$X%XOX$X$X&X$X$XOX",
"`.`.'..X{.{.XXXXXXXXXXXX+X+X+XXXoX+XOXOXOXOX|.$X X$XOXOXOX+X+X X|.oX|.$X|.$X$X|.$X$XOX$X$X$X$XOX$X$X$X$X$XOX$XOX@X@X$X|.$X&X$X$X",
"'.'.'.'.'.].'.XX}.XXXXXXXXXXXX+X+X+X+X+XOXOX$X$X$X$XOX$XOX{.[.[.].].].].{.{.|.{.oX$X$XOXOX$XOXOX$X X$X$XOX&X$X$XOXOX$X$XOX XOXOX",
"[.'..X[.{.[.I V L I L I T R o.;.%.;.y.y.u.u.p.p.a.OX$X XOX}.}.H.i.f.D.G.K.D.J.{.OX$X$X$X$X$XOX$X X$X X$X$XOX$X$X$XOXOX$XOXOXOXOX",
"'.'.'.'.'.R.e k e R >.V.U u.T T ;.a.f.H.I.T.A.I : ].$X$X@X{.{.! G s P H G K K K.+XOXOX$X$XOX$XOX$X$X$X$XOX$X$X X$X@X$X$XOXOXOXOX",
"'.'.'.'.'.R.F j n n L A.a.F.;.R ;.p.A.A.A.T.Q.A.: '.OXOX#X}.{.:.G a ! s K K W K.OX$X$XOX+X.X).).~.!./.W.E.E.W.W.W.oX$XOXOXOXOXOX",
"'.'.XX'.'._.d n h c T n T A.I ;.L F.T.n L I.Q.Q.- '.OXOXOX}.}.S.K K ! s B.Q ^ ~.OXOX$X$X+Xl.s.u.1.^ :.>.>.;.] 5.q.}.OX+XOXOXoX+X",
"`.'.'.'.{.~.g j $ c r 5 y.A.p.;.L I.Q.I ;.K._.T.> '.@X+X+X}.{.V.P G.! V.Z.Y G.^.@XOX%XOXOXh.j.1.l Q -.=.=.+.( 7.w..XOX+XoX$XOXoX",
"'.'.'.'.[.R.e >.I p.L y.T n v ;.Q.Q.A.%.a.^.^.f.- XX+X+XOXXX[.J H.L.V.K.F J ^ H.+X@XOXOX+Xh.k.<. ...,.X. .} ) j.r.XXOXOXOXoXOXoX",
"'.'.[.'..X!.9 Y I H.U %.a.;.%.p.~.J.J.f.u.a.%.T > XX+X+X+XXX_.d p.P V.A.s K K A.OXOX$X$XXXl.k... .<.+.X. .} _ t.t..XOX$XoXoXoXoX",
"`.'.'.'.[./.9 j R A.;.;.Q.a.T ;.U f ;.y.I L L n - XX+X+X+XXX_.F i.u V.K K :.K K.OXOXOXOXXXh.k.6.9. .+./ O.` _ t.w.].oXoXoX$X$XoX",
"'.'.'.'.[./.e k h c n I p.f v a.c r > , 0 f n 9 + }.+X+X+XXX_.F J 6 A.u i P ! L.OXOX$X$XXXh.8.4.2.} O./ o.] ' t.w.].OXOXoXoX].oX",
"`.`.'.'.'./.H H.H w h e w h T p.f 0 V 0 , > r 0 = XXXX+X+XXXR.7 % % A t a ! s Z.OXOXOXOXXXl.9.2.3.) Y Y I ' ] w.w.].oXOXoXoXoXoX",
"`.`.`..X'./.k F g j k p k ;.g - 0 q c 9 e , q R : XX+XXX+XXXT.8 . % t 2 u W A V.oXOXOXOX.Xj...1 ' { Q Y F y 3 N.w.}.+XXX|.}.}.XX",
"`.`.`.'.'./.j k q 9 h 5 H L n n n c , w T I y.T = XX+X+X+XXXR.i & 6 t t A A s H.+XoXoXOXXXj.O.S S D J L y 3 4 m.q.|.+XXXXXXXXXXX",
"`.`.`.`.`./.8 e H e 5 k n h h q ; k w p n B ;.j * XX+XXX+XXX[./.R./.'.`.{.[.`.{.+X+XOX.X.Xj.N.N.n.M.m.N.b.b.b.N.5.}.XXXXXX.XXX}.",
"`.`.`.`..X`.- o = * = = * - 8 > , - 5 ; > * = * o XX+X+XXX.X/.!.~.R././.`._.`.[.XX+X+X+X+Xl.c.c.c.c.x.x.l.l.g.,.d.}.XXXX.XXXXX}.",
"`./.`.`..X`.`.W./.(.`.).'.).'..X'.].'.{..X].{.XX.XXX+X+X+XXXXX[..X.XXX.XXXXXXXXXXX+X+X+XoX]./.!.!.E.U.U.U.U.Y.U./.XXXX.XXXXX[..X",
"/.`.`.`.`.`.'.'.{.'..X[.{..X[..X}.}.XXXXXXXXXXXXXXXXXXXXXX+XXXXXXXXX+X+X+XXX+X+X+XXXXX+X+XoX+XXXXXoX}.].[..X'.[.[.XXXXXXXXXXXX{.",
"`./.`.`.`..X`.'.'.'.'..X.X.X.XXX'.XXXXXXXXXXXXXXXXXXXXXXXXXXXXXXXXXXXX+XXXXXXX+X+X+X+X+XXX+X+X+XoXoXXXXXXXXXXXXXXXXXXXXXXX{..X{.",
"/.`.`.`.`.`.'.`.'.'.'.{.[.{.{.[.}.}..X.XXXXX.XXX.X[..X.XXX.X.XXXXXXXXX'.).(.`.).'.].).).(.).).).'.'.XXXXXXXXXXXXXXXXXXXX.XXX.X[.",
"/././.`.`.`.`.'.'.'.`.'.'.'.'.'..X{.XX.X}.}.'.`.'.'.`.].'.`.U.'.XXXXXXW.Y.q g h > v q 0 0 h n a.T I.|.XXXXXXXXXXXXXXXX'.XX'.'.'.",
"/./././.`.`.`.`.`.`.`.`.`.'.XX'.{..X[..X'.].~.F.J._._.(.~.H.f.`.XX.XXXW.I.v B B q v f 0 T v 9 V V Y.XXXXXXXXXXXX.X.XXX'.'.'.'.'.",
"/././././././.`.`.`.`.`.`.`.'.'.{.{.'.[.{..X!.V.Z.K._.~.S.i.f.(.[..XXX!.U.j j B g e 9 h f.q e j h F.].XXXX.X.X.X[.'.'.'.'.'.'.'.",
"U.U./././././././.`.`.`.`.'.'.`.'.'.'.'.'.[./.V.B.Z.~.J.B.B.F.`..X[.'.!.Y.B L L < r k j T e 9 h f P.'.'.[.XX[.[.'.[.'.'.`.`.`._.",
"/.U.U././././.`./.`.`.`.`.'.`.'.'.'.'.`.'.'.`.T.D.D.H y.D.L.Q.'.'.].'./.Y.v V B , > e e g 8 9 j f x.'.{..X{.{.'.'.'.'.'._._././.",
"U./.U./././././.`./.`.`.`.`.`.'.'.`.'.'.).].`.Q.Z.K . $ ^ G.`.{.{.'.'.W.Y.L v j 5 5 = h L 9 e j e F.'..X{..X.X'.'.'.`.`.`.`.`./.",
"U.U.U././././.`./.`./.`.`.`.`.'.`.`.'.`.`.'.`.I.J O     $ :./.'.'.].}./.U.L f v g n j g 9 , - q ; g.`.{.XX[..X{.'.'.`.`.`.`.`./.",
"U./.U././././././././.`.`.`.`.'.`..X`..X).'._.%.O O O     = U.'.'.{.'.W.P.j * > q f j V q - g g > P.'..X[.'.[..X'.'.'.`.`.`.`.`.",
"W.U.U./././././././././.`.`.`.`.'.'.'.'./.`.W.m g v B j L B -.'.'.{.'./.`.Y.F.F.Y.F.F.Y.F.N.l.A.,.U.'.'.'.'.'.'.'.'.'.'./.'./.`.",
"U./.U././././././././././.`./.`.`.'.`.`./..X'..X.X.X.X'.[..X'.'.{..X'./.U.W././.W./././././././.`./.'.'.'.'.'.'.'.`.'.'.`.`.'.`.",
"U.U.W.U.U./././././././././.`.`.`.'.`.`.`.!.U.U.U.U.U.U.!.!././.'.'.'.).U.U.U.U.U.U.U.U.U.Y.U.U.U.R.`.'.`.'./.'.'.`.'.`.`.`././.",
"U.U.U././.U./././././././././.`.`.`.`.`.`.`.`.`.`.`..X`.'.'.'.'.'.'.{.'.[..X'.'..X[.'.'.[..X`.'.'.'.'.`.'.`.'.'.'.`./.`.`.`.`./.",
"U.U./.U.U.U././././.W./././././././.`.`.`.`..X`.`.'.`..X'.`.`.'.'.`..X'.'.'.'.'.'.'.'.'.'.'.'.`.'.'.'.'.'.'.`.'.'.'.'.`./././.`.",
"U.U.U././.U.U././././././././.`.`.`././.`.`.`.`.`.`.`.`.`.'.`.`.`.'.`.`.'.`.'.'.'.'.'.'.`.'.'..X'.'.`.`.`.`./.'./.`./.`.`./././.",
"U.U.U.U./.U./.U./.!././././././././.`.`.`.`.`./.`.`.`.`.`.`.`.`.`.'.`..X`.'.`..X'.'.`.'.`.'.`.`.`.`.`.`.'.`.`.'.`./.'././././.`.",
"U.U.U.U.U.W.U.U.!./.!.!.!.!././././././././././.`././.`./.`./.`.`.`.`.`.`.`.`.`.`.`.`.`.`.`.`.`.`.`.`._.`.`.`./.`./././.`./././.",
"N.W.U.W.U.U.U.U./.U.U.U./././././.!./.!./././././././././.`././.`.`.`.`.`.`.`.`.`.`.`.`.`.`.`.`./.`./.`./.`././././././.`./././.",
"W.W.U.U.U.U.U.W.U././.U.U././.U./.!./././././././././././././././.`./././././.`.`./.`././.`././././././.`././.`./.`././././././.",
"c.U.U.U.U.U./.U.U.U./././.U./.U./././.!.!.!./.!././././././././././././././././././.(.`./././.(._././.`./././././.`./.`././././.",
"U.W.`.N.U.U.U.U.U./.U.U.U./.U./.W.!.!.!.!./.!./.!.!./././././././././././././././././././._./._././././.`././.`././././././././.",
"N.W.W./.W.W.U.U.U.U.U./.U.U./.U././.R./.!./.!./././.!./././.!./././.!./.W./././.`././././././././././././././././././././././.U.",
"W.W.N.U.U.U.U.W./.U.U.U./.U.U./.W.!./.R.U.!.!.!./.U./././.U./.W././.W././././././././././././././././././././././././././././.U.",
"c.N./.U.U.W.W.U.U.U.U.U.U.U./.U.!.!.!.U.E.R.!.!.U.U./.U.U.U././.!././.!./.!./.W./.!./././.W././././././.`./././././././././.U./.",
"U.U.W.U.N.W.W.U./.U./.U.U.U./.U.!.!.E./.R./.!.!.!.!.R.!.U./.U././././././././././.!./././././././././././././././././././.U./.U.",
"I.I.I.T.I.U.U.R.N.'.U.U.R.R.R.R.!.R.!.!.R.Q.E.R.Q.Q.Q.!./.!.!.E.U./././.!./.!././.!././.!.!.!.!./.!././././././.U././.R.R.U.U.!.",
"J.I.I.I.I.I.T.I.U./.U.U.R.R.R.R.T.R.U.I.U.U.U.Q.E.U.U.U.I.I.U.U.U.U.R.R.R.R.R.R.!.!.U.!.!.!.!.!.E.!.!.Q.!.!.!.Q.U.U.R.R.!.R.R.U.",
"J.T.T.Q.T.R.T.T.U.'./.U.R.R.T.R.!.Q.T.R.I.T.Q.Q.Q.~.~.Q.Q.Q.Q.Q.R.R.R.R.R.R.!.!.~.!.Q.~.!.~.Q.!.~.!.~.~.~.!.~.Q.!.R.R.R.I.Y.R.T.",
"F.H.H.I.J.T.P.P.U.N.U.Y.T.K.T.T.T.I.I.R.T.U.I.I.I.I.I.I.I.T.Q.Q.U.T.T.T.T.R.R.R.I.I.I.P.P.I.P.I.P.J.P.P.P.I.P.F.H.Y.H.F.A.A.F.A.",
"U #.%.%.%.%.%.$.#.@.#.o.o.%.%.$.&.%.#.#.&.&.$.@.Z Z Z Z [ Z Z [ @.#.@.[ %.&.&.%.$.$.$.%.#.#.&.%.$.$.#.&.0.0.$.#.$.$.$.@.o.@.@.[ ",
"m m m m m m m M N [ N m m o.@.@.@.@.#.@.@.#.@.[ Z C Z #.[ $.#.#.#.$.#.@.#.#.$.@.[ @.@.@.#.#.#.#.#.#.#.0.0.0.0.0.&.&.&.&.[ @.@.[ ",
"x v z m x x N Z Z Z N x m N N M M m M [ C [ [ [ C C Z $.$.[ [ [ @.Z N C C C @.[ Z Z Z Z [ @.Z Z Z Z #.#.$.$.&.0.&.0.&.&.$.$.$.$.",
"M M M C C [ Z [ [ [ [ N [ [ [ [ [ ] [ [ @.@.@.[ [ [ #.#.$.$.$.#.#.#.@.@.#.#.@.@.#.#.#.#.#.#.@.[ @.@.#.&.0.e.e.s.s.s.s.s.s.&.&.$."
};
