/* XPM */
static char *result[] = {
/* columns rows colors chars-per-pixel */
"64 64 203 2 ",
"   c #2F2C4A",
".  c #2E2C47",
"X  c #322D4C",
"o  c #332D47",
"O  c #2E2F51",
"+  c #312F51",
"@  c #2F3254",
"#  c #333255",
"$  c #3D3B55",
"%  c #34355C",
"&  c #38365B",
"*  c #36385F",
"=  c #3C3B5B",
"-  c #333760",
";  c #353B64",
":  c #3C3C63",
">  c #353E69",
",  c #3B3F6A",
"<  c #393760",
"1  c #413D5B",
"2  c #433D57",
"3  c #403E62",
"4  c #3C4265",
"5  c #35436C",
"6  c #3C436C",
"7  c #3B496C",
"8  c #374163",
"9  c #364572",
"0  c #3D4572",
"q  c #374972",
"w  c #3B4B74",
"e  c #3D4D7A",
"r  c #3B5076",
"t  c #3E527B",
"y  c #4E4554",
"u  c #44415C",
"i  c #4F4958",
"p  c #534D5C",
"a  c #514952",
"s  c #6A5E56",
"d  c #6F624D",
"f  c #72644F",
"g  c #6C6057",
"h  c #746551",
"j  c #766953",
"k  c #796B56",
"l  c #70655A",
"z  c #7C6E5A",
"x  c #75695F",
"c  c #7E725C",
"v  c #434264",
"b  c #4A4663",
"n  c #4D4963",
"m  c #43456B",
"M  c #45496D",
"N  c #524D63",
"B  c #555166",
"V  c #424673",
"C  c #444B74",
"Z  c #484C74",
"A  c #434E7A",
"S  c #494E7A",
"D  c #445275",
"F  c #4A5175",
"G  c #44537D",
"H  c #4A537C",
"J  c #45587D",
"K  c #4A5A7C",
"L  c #7B6F64",
"P  c #7E7362",
"I  c #786E72",
"U  c #81735E",
"Y  c #837661",
"T  c #857964",
"R  c #897C66",
"E  c #867B69",
"W  c #8A7E69",
"Q  c #83776B",
"!  c #877A71",
"~  c #8D816B",
"^  c #91846D",
"/  c #8F837E",
"(  c #928572",
")  c #968A75",
"_  c #9C8C75",
"`  c #968E7D",
"'  c #9B8B78",
"]  c #9F917B",
"[  c #A2957E",
"{  c #445481",
"}  c #4A5682",
"|  c #455A83",
" . c #4B5B85",
".. c #4C5D89",
"X. c #515E86",
"o. c #515F8C",
"O. c #476186",
"+. c #4C6186",
"@. c #4D638B",
"#. c #4E698D",
"$. c #51648C",
"%. c #526B8D",
"&. c #56678B",
"*. c #4F6C91",
"=. c #4F6690",
"-. c #516691",
";. c #546C92",
":. c #5B6E94",
">. c #567294",
",. c #5B7494",
"<. c #5D7997",
"1. c #5D7599",
"2. c #5E7A9A",
"3. c #57739A",
"4. c #607E8B",
"5. c #617A96",
"6. c #627D9A",
"7. c #617496",
"8. c #5F7CA1",
"9. c #667AA0",
"0. c #70878E",
"q. c #6D8A94",
"w. c #65829C",
"e. c #6A869E",
"r. c #6C8C9D",
"t. c #6C8693",
"y. c #728995",
"u. c #718A98",
"i. c #76929C",
"p. c #7C949D",
"a. c #7E9C9F",
"s. c #7E9395",
"d. c #6C8BA3",
"f. c #6785A1",
"g. c #718FA4",
"h. c #728EAA",
"j. c #6F93A5",
"k. c #7494A4",
"l. c #7C96A2",
"z. c #7C9AA2",
"x. c #7B9AA9",
"c. c #7493A8",
"v. c #9D9484",
"b. c #9E968C",
"n. c #9F998B",
"m. c #85999E",
"M. c #899D9E",
"N. c #9E9890",
"B. c #978C85",
"V. c #A49681",
"C. c #A19689",
"Z. c #A49B8C",
"A. c #AB9E8E",
"S. c #A79B80",
"D. c #A59E90",
"F. c #AA9F90",
"G. c #A49C98",
"H. c #8CA29F",
"J. c #90A39D",
"K. c #AAA08F",
"L. c #A7A092",
"P. c #ADA192",
"I. c #A8A39C",
"U. c #B2A595",
"Y. c #B5A995",
"T. c #B6A999",
"R. c #BAAC9C",
"E. c #BBAF97",
"W. c #BDB19C",
"Q. c #839DA4",
"!. c #899EA3",
"~. c #829FAA",
"^. c #8297A1",
"/. c #85A1A3",
"(. c #8BA4A4",
"). c #84A2A9",
"_. c #8BA5A9",
"`. c #8EABA9",
"'. c #92A5A3",
"]. c #93ABA4",
"[. c #9BAFA6",
"{. c #91A6A9",
"}. c #93AAA9",
"|. c #9AAEA8",
" X c #9BB2A8",
".X c #AEA9A3",
"XX c #B3AEA5",
"oX c #BDB4A2",
"OX c #BEB8A6",
"+X c #BFB9A9",
"@X c #B8B1A8",
"#X c #A4B7A8",
"$X c #C2B59E",
"%X c #C1B4A4",
"&X c #C1B9A7",
"*X c #C4BDAB",
"=X c #C8BFAE",
"-X c #C7BEB0",
";X c #C8BFB0",
":X c #C6C0AE",
">X c #C8C2AF",
",X c #C7C0B0",
"<X c #C8C0B0",
/* pixels */
"U.U.U.T.T.R.R.R.R.oXoX%XoX%X%XoX%X&X%X%X%XOX&X*XOXOXOXOX&X&XoXoXOXW.W.OXW.XXW.W.#X$X$XE.OX#XOXOXoXOXOXOX&X:X&X:X&X:X:X&X*X&X*X*X",
"U.U.T.T.T.R.R.%XR.R.T.$X%X%X%X%X%X$X&X&X*X&X&X&X&X:X&X&X&X&XOXOXOXOXOXOXOXOXOXOXE.OXOXoX$X&XOXOXOXOXOXOX&X&X:X:X:X:X:X$X:X*X:X*X",
"U.U.T.R.R.%XoXR.%XR.%X%XoX%X%X%X&X&X&X&X&XOX&X&X&XOX:XOX&X&X*X%XOXOXOXOXOXW.#XW.E.OXOXOXOXOXOXOXOXOX*X*X&X:X:X*X:X:X:X:X:X*X:X*X",
"U.Y.T.R.R.R.R.R.%X%X%X%X%X%X%X%X&X:X&X*X*X*X*X*X:X:X&X:X*X&X*X&X&X&XOXOXOXOXOXOXOXOXOXOXOXOXOXOXOX:X&X*X:X:X:X:X&X:X:X:X*X=X=X=X",
"U.T.T.R.R.R.R.oX%X%X%X%X%X%X%X&X&X*X$X&X*X*X*X=X&X:X*X&X=X&X$X*XOX*XOX&XOXOXOXOXOXOXOXOXOXOX&X&X:X&X*X*X:X:X*X:X*X=X,X*X:X=X-X-X",
"U.T.T.R.R.R.%XR.@X%X%X%X%X%X%X&X*X&X*X*X*X*X*X%X*X*X*X*X=X*X*X*X*X&X*X&XOXOXOXOX&X&XOX&X&X*X&X&X&X:X*X*X:X*X:X*X-X-X,X,X=X=X-X-X",
"T.T.R.T.R.oXR.%X%X%X%X%X&X&X*X&X*X*X*X*X$X=X=X*X*X*X*X*X&X*X*X*X*XOX:X&X*XOX&X&X&X&XOXOX*X&X&X:X*X*X*X*X:X:X:X*X:X-X,X-X=X-X=X-X",
"T.T.R.R.R.R.oXR.%X%X%X%X&X&X*X&X&X=X%X*X*X=X*X*X*X:X:X*X*X*X*X*X*X:X&X*X&X*X&X*X&X*X*X:XOX:X:X&X*X*X*X:X:X&X:X:X,X,X,X*X-X=X-X*X",
"T.R.R.R.R.%X%XR.%X%X%X%X%X-X%X%X*X=X*X*X*X*X=X*X:X*X:X*X*X*X*X*X*X*XOX*X&X*X&X&X*X*X*X*X*X*X*X:X+X:X:X:X:X:X+X:X:X:X:X*X:X:X:X*X",
"T.T.R.R.R.R.R.%X%X$X%X%X%X%X%X-X%X*X%X=X*X*X*X*X*X:X:X*X*X=X*X*X*X*X*X*X:X&X:X*X*X*X&X*X*X*X*X*X,X:X+X:X:X:X:X:X>X>X*X:X:X*X*X:X",
"R.T.R.R.R.%XR.%X%X%X%X%X%X-X-X%X=X=X*X=X*X=X*X=X,X*X*X:X*X:X*X*X*X*X*X*X*X*X:X&X*X*X*X*X:X*X:X*X,X:X+X:X+X:X*X:X>X>X:X:X+X:X,X*X",
"R.R.R.R.R.R.R.%XR.%X%X%X%X%X=X%X%X=X%X=X*X%X*X=X,X*X:X:X*X*X:X*X*X*X*X*X&X:X*X:X*X*X*X:X:X:X&X:X*X*X:X:X:X:X:X:X>X:X=X*X,X:X:X*X",
"T.T.R.R.oXR.%X%X%X%X%X%X%X=X%X%X*X*X*X%X*X*X*X*X*X:X:X*X=X*X*X*X:X*X*X*X*X*X*X&X*X*X*X:X*X:X:X:X,X:X*X:X*X,X*X:X:X:X:X*X:X:X:X:X",
"R.R.R.%XR.R.R.%X%X%X%X%X%X%X%X=X%X*X%X=X*X*X*X*X:X*X:X*X*X*X:X*X*X*X*X:X:X*X*X*X*X:X>X*X:X:X:X:X:X*X*X:X*X:X:X*X:X*X:X:X:X+X*X*X",
"R.T.R.R.R.%XR.%X%X%X%X%X%X%X=X%X%X*X*X*X*X*X*X=X,X+X*X*X*X=X=X*X:X*X*X*X*X&X:X*X*X>X>X:X*X:X:X:X:X:X:X:X:X*X:X:X:X*X*X:X*X*X*X*X",
"T.R.R.%XR.R.$Xb.b.b.G.G.I.I.T..XXX@X@X+X&X*X*X*X:X:X*X:X=X*X*X=X*X:X:X*X&X*X*X:X*X$X&X*X&X&XOXOX+XOXOX@XoXW.oXW.&X:X*X*X*X*X*X*X",
"R.R.%XR.R.R.B.2 2 3 3 3 m Z Z S S Z S } X.}  . . .X.X. . .J K K K K K K K J D J D M F D r M C Z 7 Z M v M 3 1 2 I =X*X*X*X*X*X%X",
"R.R.R.R.R.%XB.2 2 2 3 3 v V Z H S S  .} H } .. ...$. . . .| &.J J | | J K | G D C F J M M D C V D C m m 3 3 b 2 Q *X*X*X*X*X*X*X",
"R.R.R.R.T.$XA.2 3 Z 3 S M Z } } A A } $.o.o.....o.@.9.;. .| +.,.+.$.@. .+.X.:.D D G  .X.J H A S A F F m 3 b b b / *X*X*X*X*X%X*X",
"T.R.R.%XR.$XU.& 3 3 3 3 V Z S S } } ..} ..-.$.-.-.;.@...@.-.-...@.;.+.+.$.$.| | J  .J { { J } G H F M M M b 3 1 B.*X*X*X*X*X%X*X",
"T.%XoXT.oXT.$X2 1 3 3 } } 3 } } } ....o.| o.-.3.-.@.$.;.;.=.3.@.#.*.;.;.@.| +... .+...{ }  . .} Z Z Z Z M m 3 3 C.=X*X*X&X*X&X&X",
"T.T.T.$XT.%XT.2 3 3 3 3 S S S } } ....o.} | -.-.1.-.-.:.1.8.3.>.| @.:.1.1.@.:.%.;.*.@.J A } } } H Z Z Z Z M m 1 A.*X*X&X&X&X*X&X",
"T.%XT.R.R.R.R.& 3 3 3 3 3 S 3 } { } o...o.{ ..;.=.@.:.h._.`.}._.7.1._.).).)._._.}.~.e.{ { { } { A A Z S Z Z 3 3 U.*X*X&X*X&X&X%X",
"T.U.R.T.%XR.R.2 3 3 S S S S } o.{ o.{ ..} ..3.;.;.;.j.). Xl.}.g.:.h._.k.x.x.{.l.{.~.d.+.} o.} } G S S Z Z m 3 3 E.*X*X&XOX%X&X%X",
"T.T.T.$XR.R.$X2 3 3 3 } { S } } } ..| { | :.;.:.*.d. X|.}.'.6.*.;.x.}.).d.2.}.!. X~.5. .+.....S } } S S } S 3 3 $X*X&X&X%X%X%X%X",
"T.T.T.T.R.R.R.2 3 3 } 3 V } } } { ..{ | -.$.:.9.c.).#XQ.}.f.$.:.1.x.#Xd.f.3._.x.t.j.6.$.....o.} } } S } 3 3 3 Z $X%X&X&X&X%X%X%X",
"T.T.T.T.R.R.$X3 3 3 3 } 3 } { } { { ....$.<.<.x.p.Q.~.).<.+.;.;.1.e.6.:.6.w.0.Q.^._.6.@.-.$.G ..} S S 3 3 3 3 3 $X%X%X%XoX$X%X%X",
"T.T.T.T.R.T.$X3 3 3 S 3 } 3 { } ..| { @.%.>.k.(.|. X Xf.<.%.#.,.;.>.>.*.2./.).|.`.j.;.....| | { A S S } } 3 3 3 %X%X%X%X%X%X%X%X",
"U.T.T.T.R.R.T.N 3 3 3 { A A } { { {  .&.,.k.i.(.Q._.f.3.>.O.7.%.>.*.3.2.)._.z.).d.#.$.+.{ o.} { { { S 3 3 V 3 S %X%X%X%X%X%X$XoX",
"U.T.T.T.T.R.%XN 3 3 V 3 0 A { o.{ { ..$.k.[./././.w.6.1.3.;.:.,.+.*.*.x.s.'.|.h.@.=.$.$.{ { e { { { A S 0 V 3 3 %X%X%X%X%XoX%XT.",
"T.U.T.T.T.R.R.N 3 3 V 0 V A { } A e ..e.(.Q.i.(./.k.x.r.f.f.g.c.w.>.l.m.(.}.k.O.| ;.=.....{ { { { } V 0 3 3 3 N $X%X%X%X%X%XoXT.",
"U.T.T.T.T.T.R.N , 3 3 V V e A V A A ..k.(.z.Q.(.].(.z.y.l.l.l.!.k.<.}.z.s.l.;.*.3.h.8.....{ } { S 0 0 V 3 3 3 3 $X%X%X%XT.%XT.%X",
"U.U.U.T.T.T.R.B = : : m V A 0 G G t @.k.(.q.w././.(.Q.q.z.0.!.!.e.>./.}.q.z.2.<.z.(.5.A { | { { , V V V V , < N %X%X$XR.R.R.%XR.",
"U.U.U.U.T.T.T.B & & ; , 6 , 0 A e G +.u.J.a.q.a.H./.k.l.k.m.'.(.w.#./.k.q.i.e.(.(.'.,.| e { e { e V , { 3 , , 3 %X%X%XR.%XT.R.R.",
"F.U.U.U.Y.U.Y.N & & : , , V 9 e w G t O.;.>.5.<.<.<.6.z.M.u.m.i.w.%.H.a.k.l././.(.a.#.{ e t t e e , , 3 3 < & N %XR.R.%XR.R.T.T.",
"P.P.U.U.U.U.Y.N # & , , , , 0 S e G t t D  .$.$.J | ;.r.J.i.H.z.<.;.>.*.#.%.<.3.3.;.{ t { { e 0 0 0 , { < 3 & N T.oXT.T.T.T.T.U.",
"P.P.P.P.U.U.U.p # & : : , 6 w e A w t w t  .J +.J O.>.<.H.p.a.i.6.+.;.O.O.;.O.O.@.| e t { e e 0 A , , , , < # N R.R.R.R.T.U.T.U.",
"P.P.P.P.U.T.U.p # & ; ; ; 0 > V 0 5 5 q G r O.O.O.@.O.w.H.i.4.q.,.%.#.O.%.O.| w 9 9 e t w A e A 0 , , - < - # N R.R.T.U.T.T.U.U.",
"A.U.P.U.U.U.Y.p + # & * % ; ; 5 w 6 q C 7 G r r t r J O.w.5.w.5.%.J | t t t w +.e A w 0 e 9 9 9 > > < - - % + i %XT.R.T.R.T.T.T.",
"A.A.P.P.U.U.U.p   O # & * ; ; > 6 6 > 7 q 5 r t G r J r t r D K J G | | t | r r e 5 w e 9 9 0 9 > > > < + + + n R.T.T.R.T.T.U.T.",
"A.U.A.U.U.U.U.a . . @ @ @ * ; ; > ; 6 7 5 ; 5 7 q r t q r 7 J 7 q r w w r r 7 q > t 7 ; > > > > < - < & + X 2 a R.R.R.R.T.T.T.T.",
"A.A.A.U.U.U.U.a   X # O @ % % 4 - - ; 4 7 5 5 0 q 7 J D 5 7 C J r r 7 q w t D 5 > 5 7 6 > ; - ; - < # # X o o 2 R.R.R.T.T.T.T.T.",
"A.A.U.A.A.U.U.a o o X X @ # # # % * : ; ; 8 8 7 4 7 6 : 7 7 7 6 7 7 7 7 7 4 ; ; > 5 ; ; ; * - % - % # + X X o 2 T.R.T.T.T.T.T.T.",
"A.A.A.U.A.U.U.[ _ ^ ~ ~ ^ ) _ _ _ _ _ ] [ [ [ V.[ S.[ V.[ [ V.V.S.[ [ ] [ ] ] ' ) ) ( ( ! Q Q L I x g x g s s Q T.T.T.T.T.T.T.U.",
"A.A.A.U.U.A.U.U.U.U.U.U.U.U.T.U.U.U.T.T.Y.T.R.T.T.R.R.R.R.R.R.T.R.R.R.R.R.R.R.R.R.R.R.R.R.R.R.R.T.R.R.T.R.R.R.T.$XT.T.T.U.U.U.T.",
"A.A.A.A.A.U.A.U.U.U.U.U.U.U.U.U.U.T.U.T.R.Y.T.T.T.T.T.T.R.T.T.R.T.R.R.R.T.R.R.R.R.R.R.R.R.R.R.R.T.T.T.R.T.T.T.T.T.T.T.T.T.U.U.U.",
"A.A.U.A.A.U.A.U.U.U.U.U.U.P.U.U.T.U.U.T.T.T.T.U.T.T.T.T.T.T.T.T.T.R.T.R.T.R.R.R.R.R.R.T.T.T.R.T.T.T.T.T.R.T.T.T.T.U.T.U.U.U.U.U.",
"S.A.A.A.A.A.A.A.P.P.P.P.P.U.U.U.U.U.U.U.U.T.U.U.Y.U.U.T.U.U.Y.Y.T.T.T.T.T.T.Y.T.T.R.T.T.T.T.T.T.T.T.T.U.T.T.T.U.T.U.U.T.U.U.U.T.",
"A.A.A.A.A.A.A.U.A.U.A.U.U.A.U.U.U.U.U.U.U.U.U.U.U.U.U.U.U.Y.U.U.U.T.T.T.T.T.T.Y.T.T.T.T.T.T.T.T.U.T.U.T.T.U.T.U.U.T.U.U.U.U.T.U.",
"S.A.A.A.A.A.A.A.A.A.A.U.A.U.U.U.A.U.U.P.U.U.U.U.U.U.Y.U.U.U.U.U.U.T.U.U.U.U.U.Y.U.T.T.U.U.T.U.U.U.U.U.U.U.T.U.U.U.U.T.U.U.U.U.U.",
"A.V.S.A.A.A.A.A.U.U.A.U.A.U.A.U.U.U.U.U.P.U.F.P.U.U.U.U.U.U.U.U.U.U.U.U.U.U.U.Y.U.U.U.T.U.U.U.Y.U.T.U.T.U.U.U.U.U.U.U.U.U.U.U.U.",
"V.A.A.A.A.A.A.A.A.A.A.A.U.A.U.A.A.U.F.P.U.P.U.U.P.P.U.U.U.U.U.U.U.U.U.U.U.U.U.U.U.T.U.U.T.U.U.Y.U.U.U.U.U.T.U.T.T.U.T.U.U.U.U.U.",
"A.C.A.A.A.C.A.A.U.A.A.U.A.A.A.U.A.U.U.U.U.P.U.P.U.A.U.U.U.U.U.P.U.U.U.U.U.P.Y.Y.U.U.U.T.Y.U.U.U.U.T.U.U.U.U.U.U.U.U.U.U.U.U.U.A.",
"C.A.A.C.A.A.A.A.A.A.A.A.A.U.A.A.U.F.A.P.K.P.P.P.P.U.U.A.A.A.U.P.U.U.U.P.U.P.U.U.U.U.U.U.U.U.U.U.U.U.U.U.U.U.U.U.U.U.U.U.U.U.U.A.",
"V.A.A.A.A.A.A.A.A.A.A.A.A.A.U.A.F.U.A.U.A.P.P.P.K.U.A.U.U.A.U.U.U.U.U.U.U.U.U.U.U.P.P.U.U.U.P.U.U.U.U.U.U.U.U.U.U.U.U.P.U.U.U.A.",
"A.C.C.A.C.A.A.A.U.A.A.U.A.A.A.U.A.U.P.P.A.U.P.P.P.F.P.P.A.U.A.P.A.P.U.U.U.U.U.U.U.U.P.U.P.U.U.U.U.U.U.U.U.U.U.U.U.U.U.U.U.A.U.A.",
"N.Z.Z.Z.Z.Z.A.A.A.A.F.A.F.F.F.F.P.F.P.F.P.A.L.K.K.K.P.P.K.K.P.K.P.U.U.U.F.U.P.U.P.P.U.P.P.P.P.U.P.U.U.U.U.U.P.U.U.P.U.F.F.F.F.P.",
"n.N.Z.Z.G.D.Z.Z.A.A.G.F.F.F.F.D.D.D.D.A.A.A.A.L.K.A.L.L.K.K.K.K.A.A.P.D.F.P.F.F.P.P.P.P.P.P.P.P.P.P.P.P.P.U.P.P.A.A.F.F.F.F.F.F.",
"n.L.P.L.D.P.L.L.A.A.G.F.L.G.F.P.P.D.D.D.D.D.D.L.L.L.L.L.P.L.L.L.F.F.F.F.P.P.P.P.K.P.L.P.U.P.P.U.U.L.U.L.U.U.L.L.P.F.F.F.Z.Z.D.Z.",
"v.v.n.n.Z.C.C.C.C.C.A.C.Z.Z.D.D.D.Z.A.A.A.A.Z.Z.Z.A.Z.Z.Z.L.L.L.F.F.G.Z.L.A.K.D.L.Z.L.n.Z.n.n.n.n.n.n.n.n.n.n.v.C.C.C.v.` B.] B.",
"P P E ~ E E E E E Y T Q E E T E W W T R W ~ R Y c c c c U U c U T Y Y c E ~ ~ E ~ E R R E T E ~ ~ ~ E E ~ ~ R T T E R P Y Y P P ",
"f h j h h h h j k z k j f Y Y Y Y Y Y U Y T Y U c c c P U T ~ U E T ~ Y Y Y R Y U U Y Y U T T T T Y T ~ ~ ~ ~ ~ R ~ ~ R Y Y Y U ",
"d f d h h h k z c z k h h k k k k h k z z c U c z c U R T U U U c c k z z c c c c c c c c Y c c c c c ~ ~ R ~ ~ ~ ~ ~ ~ R R ~ T ",
"j j j z z z c Y Y U z k U T z z U z U U Y Y Y Y c U Y R ~ U ~ T T T Y Y Y T T Y T T R T T T T Y U U P ~ ~ ~ ~ ( ( ( ( ( ~ ~ R ~ "
};
