/* XPM */
static char *result[] = {
/* columns rows colors chars-per-pixel */
"64 64 204 2 ",
"   c #16120E",
".  c #1B140E",
"X  c #171311",
"o  c #1A1612",
"O  c #1D1913",
"+  c #16191C",
"@  c #21180F",
"#  c #211710",
"$  c #231B14",
"%  c #2A1D12",
"&  c #231E18",
"*  c #301F12",
"=  c #1F211F",
"-  c #2C2116",
";  c #25221B",
":  c #2B251C",
">  c #2C291E",
",  c #342416",
"<  c #352A1D",
"1  c #3B2A19",
"2  c #352719",
"3  c #191D21",
"4  c #2E2B21",
"5  c #322E23",
"6  c #3D2D20",
"7  c #39352C",
"8  c #3C392E",
"9  c #383226",
"0  c #3F3C31",
"q  c #482F1C",
"w  c #432D1B",
"e  c #4C341E",
"r  c #50351E",
"t  c #423224",
"y  c #4A3522",
"u  c #4A372A",
"i  c #44392C",
"p  c #4B3B2B",
"a  c #483828",
"s  c #543A24",
"d  c #5B3D25",
"f  c #543D2A",
"g  c #5B3F2A",
"h  c #533621",
"j  c #4D3E31",
"k  c #413E34",
"l  c #5D4125",
"z  c #55422C",
"x  c #5C442C",
"c  c #5C482F",
"v  c #444036",
"b  c #464338",
"n  c #49463C",
"m  c #4C493F",
"M  c #4C4437",
"N  c #544334",
"B  c #5C4632",
"V  c #5C4934",
"C  c #5D4B3C",
"Z  c #52473B",
"A  c #624326",
"S  c #64452A",
"D  c #65492D",
"F  c #6C4B2D",
"G  c #694929",
"H  c #714D2F",
"J  c #73522F",
"K  c #634D34",
"L  c #6D4D31",
"P  c #684F3A",
"I  c #724E32",
"U  c #63523E",
"Y  c #6C533B",
"T  c #755233",
"R  c #795634",
"E  c #7D5936",
"W  c #73543A",
"Q  c #7A573A",
"!  c #7E5B3A",
"~  c #735B3F",
"^  c #4E4B42",
"/  c #544D42",
"(  c #535047",
")  c #59564C",
"_  c #5A564B",
"`  c #5E5B50",
"'  c #5E5E5D",
"]  c #614F40",
"[  c #645242",
"{  c #6C5643",
"}  c #6E5B45",
"|  c #6A5A4C",
" . c #735A44",
".. c #7C5C44",
"X. c #725C49",
"o. c #7B5E48",
"O. c #625C52",
"+. c #6F624D",
"@. c #73634D",
"#. c #7D624B",
"$. c #7A6649",
"%. c #666358",
"&. c #69665B",
"*. c #6E6A5F",
"=. c #746551",
"-. c #7C6550",
";. c #766953",
":. c #7B6B55",
">. c #7C6E5A",
",. c #746C5C",
"<. c #7E725C",
"1. c #555860",
"2. c #6F6B61",
"3. c #6C6662",
"4. c #726E63",
"5. c #7E7462",
"6. c #797469",
"7. c #697075",
"8. c #805C37",
"9. c #825D3B",
"0. c #85613D",
"q. c #89643D",
"w. c #825D41",
"e. c #866243",
"r. c #8B6543",
"t. c #8D6A45",
"y. c #84654D",
"u. c #8A664B",
"i. c #8C694D",
"p. c #846949",
"a. c #8E704E",
"s. c #846650",
"d. c #816C52",
"f. c #8C6B51",
"g. c #916E53",
"h. c #817056",
"j. c #82735E",
"k. c #8B7356",
"l. c #927354",
"z. c #987958",
"x. c #937047",
"c. c #A07E56",
"v. c #837661",
"b. c #857964",
"n. c #897C66",
"m. c #857B6A",
"M. c #8A7E69",
"N. c #957D62",
"B. c #847C70",
"V. c #A4845D",
"C. c #8D816B",
"Z. c #9C846A",
"A. c #97856B",
"S. c #8B8374",
"D. c #8C8779",
"F. c #8E897B",
"G. c #928672",
"H. c #948C7D",
"J. c #998B74",
"K. c #9A917C",
"L. c #A28E72",
"P. c #A4937C",
"I. c #AE977A",
"U. c #A68760",
"Y. c #4F6680",
"T. c #577492",
"R. c #667D8A",
"E. c #698391",
"W. c #948F82",
"Q. c #9C9485",
"!. c #9B9689",
"~. c #9F998B",
"^. c #AB9B85",
"/. c #A49B8C",
"(. c #AB9E8E",
"). c #A59684",
"_. c #B69E82",
"`. c #A69E90",
"'. c #AA9F90",
"]. c #ACA08E",
"[. c #A4A08F",
"{. c #BBA68C",
"}. c #B4A188",
"|. c #A6A091",
" X c #ADA191",
".X c #ADAA9D",
"XX c #B3A595",
"oX c #B6A999",
"OX c #BAAD9D",
"+X c #B9AA95",
"@X c #B3AFA0",
"#X c #BDB3A2",
"$X c #BEB8A6",
"%X c #B7B0A0",
"&X c #C1B4A4",
"*X c #C1B9A7",
"=X c #C4BDAB",
"-X c #C8BFAE",
";X c #C7BEB0",
":X c #C8BFB0",
">X c #C6C0AE",
",X c #C8C2AF",
"<X c #C7C0B0",
"1X c #C8C0B0",
/* pixels */
"XXXXXXoXoXOXOXOX&XOX&X&XOX&X&X&X&X&X&X*X&X*X*X*X*X*X*X*X*X*X$X#X#X#X#X#X#X%X#X%X+X$X$X$X$X$X$X$X$X$X$X$X$X=X=X=X*X>X*X=X*X=X=X=X",
"XXXXoXoXoXOXOXOX&XOXOXOX&X&X&X&X&X&X*X*X*X*X=X*X=X$X$X=X*X*X*X$X#X$X$X$X$X%X$X$X$X$X$X+X+X$X$X$X$X$X$X$X=X*X=X>X=X>X>X>X>X>X=X=X",
"XXXXoXoXOX#XOXOXOXOX&X&X&X&X&X&X*X*X=X*X*X*X*X*X*X$X=X$X=X*X*X*X$X*X$X$X%X$X$X%X+X$X$X$X$X$X$X$X$X$X$X$X$X>X=X>X>X>X=X=X=X=X>X=X",
"XXoXoXoXOXOXOX&X&X#X&X&X&X#X&X&X*X=X*X*X*X>X=X=X>X=X=X=X*X=X=X*X*X*X$X$X$X$X$X$X$X$X$X$X$X$X$X$X>X$X>X>X>X>X>X>X>X=X>X>X,X,X,X=X",
"XXoX+XoXOXOX#XOX#X&X&X&X&X&X&X$X*X*X=X=X=X=X&X=X*X>X=X=X*X=X*X=X$X>X$X$X$X$X$X$X$X$X$X$X*X*X*X*X$X>X$X>X>X>X*X>X=X>X>X>X,X>X>X>X",
"XXoXoXOXOX#XOXOXOX&X&X&X&X&X*X=X=X&X*X=X=X=X=X=X=X=X=X=X=X*X*X=X$X*X*X>X$X$X$X$X*X$X$X$X*X*X*X=X$X>X>X$X=X>X>X>X=X>X>X>X,X=X>X>X",
"XXoXOXOXOXOXOX&X&X&X&X&X*X*X=X$X&X>X=X=X&X-X=X=X=X=X=X=X=X=X=X=X>X>X$X*X*X$X$X$X$X$X*X$X=X=X=X=X>X$X>X>X>X>X*X>X,X-X,X>X,X=X>X=X",
"oXoXOXoXOXOX&XOX&X&X&X&X&X*X$X=X=X>X&X=X=X=X-X-X=X>X>X=X=X=X=X=X>X$X>X*X=X=X=X*X>X*X=X=X*X=X*X=X$X>X>X>X=X>X>X>X,X,X,X>X,X,X=X>X",
"OX+XOXOXOXOX&XOX&X#X&X&X&X&X=X&X-X-X&X&X-X=X-X=X>X=X=X=X=X=X=X=X*X>X*X>X*X=X=X*X=X=X=X=X>X*X=X*X$X>X$X>X>X$X>X>X,X,X>X=X>X>X=X>X",
"OX+XOXOXOXOXOX&X#X&X&X&X&X-X=X=X&X=X-X-X=X=X=X=X>X>X>X>X=X=X=X=X>X*X>X$X=X=X=X=X=X=X=X=X>X*X>X>X<X>X<X>X>X>X>X>X,X=X>X=X=X>X>X=X",
"+XOXOXOX&XOXOX&X&X&X&X&X&X-X&X=X-X=X&X-X=X-X=X=X=X>X=X>X=X>X=X=X>X*X*X>X=X*X=X>X=X=X=X=X*X,X>X*X>X>X>X>X>X>X=X>X,X,X-X=X>X=X>X=X",
"OXOXOXOXOXOXOX&X&XOX&X&X&X&X=X&X&X=X-X=X=X&X=X-X>X=X>X>X=X=X:X=X*X>X$X>X=X=X=X*X=X=X=X=X>X>X>X>X>X>X>X$X>X>X>X>X,X,X-X-X=X>X>X=X",
"+XoX&XoXOX&XOX&X&X&X&X&X&X-X&X&X-X&X=X=X=X=X=X=X>X=X=X>X:X=X=X=X>X*X>X*X>X>X=X=X=X=X*X,X>X=X>X>X>X>X>X>X=X<X=X>X>X>X=X>X>X>X=X=X",
"OXOXoX&XOXOXOX&X&X&X&X&X&X&X&X-X&X&X-X&X=X=X=X=X=X<X=X=X=X:X=X=X>X,X,X*X>X*X=X=X=X=X,X=X>X>X=X>X$X<X>X>X=X=X>X=X=X>X>X=X>X=X=X=X",
"oXOXOX&XOX&XOXOX&X&X&X&X&X&X=X&X=X-X=X=X=X=X=X=X=X>X=X<X=X:X=X=X*X*X,X,X>X*X=X=X,X,X=X,X=X>X>X=X$X>X$X<X=X>X>X<X>X>X>X>X=X=X=X=X",
"OXoXOXoXOXOX&X&X&X&X&X&X&X&X&X=X&X=X&X=X=X=X=X=X=X>X=X=X=X=X=X=X,X>X>X*X*X=X=X>X=X=X,X=X>X=X=X>X<X>X>X>X>X>X>X$X>X=X>X=X=X=X=X*X",
"OXOXoXOX&XOX&X&XOX&X&X&X&X&X&X-X&X-X&X-X-X&X-X-X=X-X=X=X=X=X=X=X=X-X-X&X&X=X=X=X<X=X=X>X>X=X>X<X>X>X$X<X>X=X>X>X=X>X=X=X=X=X=X*X",
"OXOX&XOXoX&X&XoX&X&X&X&X&X&X&X&X&X&X&X-X&X-X-X&X=X=X=X=X=X-X-X=X=X=X-X-X=X=X=X=X>X=X>X>X>X>X=X=X>X>X>X>X>X=X=X>X>X=X=X=X=X=X=X=X",
"oXOXOXoXOXOXOX&X&X&X&X&X&X&X&X&X&X&X-X&X&X-X-X&X=X=X=X=X=X=X=X=X=X=X=X-X=X=X=X=X>X=X<X<X=X<X>X>X>X>X>X>X=X>X>X>X>X=X=X=X=X*X*X*X",
"OXOXOX&XOX&XoX&X&XOX&X&X&X&X&X&X&X-X&X-X&X&X-X-X=X=X=X=X=X=X-X=X=X=X=X=X&X=X=X=X=X=X$X>X=X>X=X<X>X<X$X>X>X>X=X=X$X<X=X=X=X=X*X=X",
"oXOXOXOX&XoX&XOX&X&X&X&X&X$X&X&X&X&X=X*X-X=X-X&X=X=X=X=X=X=X=X=X=X&X-X=X=X=X=X=X<X>X$X>X=X;X=X=X=X>X>X=X=X=X=X>X=X=X=X>X*X>X$X*X",
"OXOXOXOXoX&XoX&XOX&X&XD.C V [ [ } X.X.-.w.s.h.d.>.<.j.v.v.b.n.F.=X=Xv.j.m.C.G.H.K.!.~././.`.|.`.[.[.[.[.|.|.=X=X=X=X=X*X*X*X*X*X",
"oXOXOXOXoX&X&XoXOX&X$X!.} p 6 6 7 a p p z j B B B K K K K K B ;.=X=X[ g z x x c N c V c B C K ] ( [ U U Z S.=X=X=X=X=X*X*X*X*X*X",
"oXoXOXoXOXOXoX&X#X#X%X|.k.p O O o O o o O o o o o o O O O $ t n.&X=XX.j j M N p M p p p u u u u i i 9 t V [.=X=X=X=X>X*X*X*X&X&X",
"oXoXOXoXOXOXOXOXOXOX&XXXZ.z O o o o o o o o o o X X     X $ B Z.&X=Xy.C 1.1.1.| ] ] [ ] [ ] ] / / C N u  .oX=X&X*X*X&X=X&X&X&X#X",
"oXoXoXOXOXOXOXOXOX&X&XoXz.x o o o o X o + o o X X       o % { L.=X&Xu.| T.R.3.@.X.{ X.X.X.X.X.{ { [ K f e.&X=X=X&X=X*X&X&X&X#X&X",
"oXoXoXoXOXoXOXOXOXOXOX.XU.N o X X o X o o o X   o o       - =.I.&X=Xi.| T.E.4.y.s.o.s.s.s.s.y.w.o. .W B f.$X=X&X&X&X&X&X&XOX&X&X",
"oXoXoX+XoXOXOXOXOXOX&X@XU.g o o X o X o o o X   o o     o < #._.&X&Xt.X.7.6.f.f.u.s.s.s.y.s.s.s.s.w.~ B l.&X&X&X&X&X=X&X&X&X&X#X",
"XXoXoXoX+XOXOXOXOX%X&XOXN.g X X o X X o X o X   X       . 1 o._.&X=Xu.o.h.s.f.f.u.u.g.f.f.f.f.y.f.s...S z.=X&X&X&X&X&X&X&X&X&XOX",
"XXoXoXoXOXOXoXOXOXOXOX%Xc.g o o o X X o o o X X . O .   O 6 s._.&X&Xr.o.f.f.g.g.g.u.g.g.f.f.u.y.g.s...B z.&X&X&X&X&X&X&X&XOXOX&X",
"oXoXoXoXXXOXoXOXOXOXOX%Xc.C = X X X X o o O O   o .   . . t y._.&X&Xr.w.s.u.g.i.g.g.g.g.f.f.u.u.f.y...S N.&X&X&X&X&X&XOX&X&X&XOX",
"XXXXoXoXoXOXOXoXOXOXOXOXc.g = X   o o o o + o   O O     O u p.{.&X&Xr. .s.u.g.i.f.g.N.z.i.u.u.u.f.u. .S U.&X&X&X&X&X&X&XOXOX&XOX",
"XXXXXXoXoXoXoXoXoXOXoXoXV.p + X X X o o O O o X # . X . # s u.{.&X&Xr...w.s.f.u.u.f.).N.i.i.u.u.i.i.W F N.;X&X&X&X&X&X&XOXOXOX&X",
"XXXXXXoXoXoXoXoXoXOXoXoXc.p 3 X o o X O $ O O   # # . . . f r.{.&X&Xe...o.f.i.r.w.e.g.i.w.u.u.r.u.w.W D N.;X&X&X&X&XOX&XOXOXOXoX",
" XXXXXXXXXXXXXoXoXoXoXoXx.y + X   o X O $ $ O   $ o . . # s w.{.OX&X9.Q w.u.i.r.w.r.i.r.w.w.w.u.w.w.I D N.&X&XoXOX&XOXOXOXOXoXoX",
"]. X XXXXXXXXXoXXXoXoXoXx.w X     X X O $ $ O   $ o . . # f w.{.OXOXq...w.u.i.9.8.w.t.w.9.w.u.w.9...L D N.&XoX&XOXOX+XoXoXoXXX+X",
" X(. XXX XoXXXXXXXXXoXoXt.w .     o O O $ $ #   & # . . # g w.+XOXOX9. ...r.u.9.8.w.r.r.! 9.e.w.w.W L S L.%XOXOXOXOXoXOXoXoXXXXX",
"].XXXX(.XXXXXXXXXXoXoXoXt.w   .   o . O $ & # X & $ # . % g q.OXOXOX9.W Q 9.w.8.Q 9.r.9.! 9.0.w.9.Q L S P.#XoX&XOXOXoXoXoXXXoXXX",
"(.XX(.XXXXXXXXXXXXXXoXoXq.1   . . . O $ & & O   % $ # . # g 9.+XOXOX9.W 9.9.r.8.T 8.r.e.Q E Q 8.9.Q S S ).%XOXOXOXOXoXoXoXoXoXXX",
"(.(.(.XXXXXXXXoXXXXXoXXX0.2 .   . O O $ % & #   % # # . % x e.OXOX&X9.I 8.9.q.8.R 8.0.9.E Q Q 8.Q Q S L P.OX&XoXOXOXoXOXoXoXoXoX",
"(. X(.XXXXXXXXXXXXXXXXXX8.1 .   . $ O % $ $ O   % % . . % d $.OXOXOX8.T Q 9.9.8.8.8.8.w.E R E ! 9.w.g L ).OXOXOXOXOXOXoXoXoXoXoX",
"(.(.(.XXXXXXXXXXXXXXXXXXE 1 .   . . O $ $ $ O   % $ . . % f ! OXOXOX8.H 9.8.w.8.R 8.9.9.R E E E w.-.] S _.oXOXoXOXoXOXoXoXoXoXoX",
"(. XXX(. XXX(.{.XXXX+XXX8.1     . . # $ $ $ .   % $ . . % f E OX&X%XT L 8.8.9.R R R 8.8.R R R R W D d L (.+XoXOXOXOXOXoXoXoXoXXX",
"(.(.(.XX X'.XXXXXXXXXXXXE ,   . . . # $ $ O .   % @ . . % g ! oXXX+XT H R 9.8.R T R 8.8.R R R R I L h H (.OXOXoXoX+XoXoXoXoXXXoX",
"(.].XX]. X X X{.XXXXXX XE ,     . . . $ O O .   % # . . % x E oXOXXXT I T 8.8.T T R R 8.R R R R Q H h I (.OXOXOX+XoXoXoXoXoXXXXX",
"(.(.(.]. X X'.XXXXXX XXXJ %       . . . . $     % # # . % x E oXOX{.I H Q 8.! R R R R 8.R J R R Q H h H XXXXXXOXoXoXoXoXXXXXXXXX",
"(.(.].]. X X X XXX XXXXXJ ,   . . . O . . o . . % . .   * A R oXoX(.I F R 9.8.R J R R R J J R R I L h I {.OXoXoXoXoXoXXXXXXXoXXX",
"^.(.(. X(.(.(. X].XX]. XJ 2 $ ; ; : : ; > > > $ $ # O O , l E oXXX^.H S R 9.8.8.R R 8.8.R J R R Q I d I oXoXoXoXXXXXXXXXoXXXXXXX",
"(.(.(.(.(.(.(.(.XX(.(.XXH 2 - : 4 4 4 4 4 5 7 7 7 7 7 5 6 l E oXoXP.F F E 9.8.E R E E 8.R R R R T I h I oXoXXXXXoXXXXXXXXXXXXXXX",
"(.).(.(.(.(.(.(.(.XX'.{.S 2 : 4 5 4 4 5 7 0 ^ ^ ^ ^ ^ k t x R  XXXL.J I ! 9.E 8.R E E 8.E 8.R R T I s I XXXXXXXXXXXXXXXXoXXXXXXX",
").(.(.).(.(.(.(.(.(.XX(.S < : 5 4 5 9 0 v ^ ^ ( ) ` ^ ^ u l T XXXXZ.F T E E E E R E R E E 8.R T I L h I XXXXXXXXXXXXXXoXXXXXXX X",
"/.).(.(.(.(.(.'.(.XX(.(.S 6 4 5 7 8 0 k ) ` ) ` ` O.%.' N S J XXoXA.H I E E E E R 9.R R R E T R T L y T XXoXXXXXXXoXXXXXXXXXXXXX",
"/.).'.(.(.(.(.'. X(. X^.S t 7 7 0 k ^ ` 2.2.4.*.4.6.6.&.Z x H XXXXA.G T R E R R R E R E R R H T I F e T XXXXXXXXXXXXXXXXXXXX X X",
").(.).(./.(.(.'.(.].(.).A i 7 k b ^ ` 6.m.B.B.B.F.F.D.6.| x S XXXXN.G H R R R R J E R R R I H T I F y I XXXXXXXXXXXXXXXXXXXXXX X",
"(./.)./.(.(.(.'.(. X'.).l i b ^ ^ ` B.F.W.F.H.F.W.!.Q.Q.>.x S XX Xz.G L I R R R I E R J I I I I L S r W XXXXXXXXXXXXXXXXXX X'.XX",
"/././.(.).(.(.(. X(.|.P.l M ^ _ O.W.).F.W./.Q.`.`.'.`.`.M.B g '. Xk.S F I T T I H R R T I I I I L d q ~ XXXXXXXXXX XXX XXXXX X'.",
"`.~././.'.(.`./.(.(.(.J.d Z ` &.F.`.|.|.|././.|. X'.'. XQ.z f  X Xd.A D I T I H F R I H F H F I G d e Y XXXXXX X XXXXX X(.].'.'.",
"~././.`./././.`.(.`./.F.s ( %.D.|.|.(./.(./.`.|.`.`.`.`.(.z s (.(.$.d S L I I G S I I S A F F S G d q Y  X X X X(.(. X X`.`.'. X",
"~.`.`.`.'.'.|.`.`.`.|.J.p O.K.|. X|.(.|.`.(.|.|. X X X X`.B f |.|. .d l G F F S A L G A d S S S d s w Y XX.X X|. X X X|././.`./.",
"W.!.~./.~.~.)././././.K.e ,./.|./.`./.]./.`./././.`././.`.=.V [.`.#.s c P Y Y P P {  .{ X.X.X.X.} Y y ~ /.~./.Q.).!.!.Q.H.H.Q.K.",
"v.v.m.m.m.m.m.m.m.v.b.v.@.h.h.j.j.k.j.h.h.h.:.j.<.<.<.<.v.<.@.j.v.j.;.<.m.M.C.m.M.m.m.n.b.n.C.m.m.M.-.@.C.C.n.b.b.m.m.v.v.v.v.5.",
"&.=.=.=.=.+.=.;.;.>.>.=.@.j.b.n.v.v.n.j.j.n.j.j.<.>.<.5.j.j.j.n.n.n.n.v.v.v.n.v.j.v.v.v.v.m.v.v.b.v.n.C.C.C.C.C.m.C.M.n.v.v.v.5.",
"+.=.=.=.@.=.:.>.<.<.>.=.=.:.:.;.:.=.:.h.<.j.v.<.>.>.j.n.n.b.j.j.5.<.:.:.>.<.v.<.<.<.v.<.5.v.<.<.<.v.v.b.C.n.C.C.C.C.C.M.n.n.n.n.",
";.;.;.>.>.j.<.5.v.j.>.>.>.v.j.h.j.<.<.j.j.j.v.j.j.j.b.n.n.n.n.b.b.b.v.v.b.b.v.v.b.b.b.b.b.v.v.j.j.v.b.M.C.C.C.G.G.G.G.C.G.C.C.m."
};
