/* XPM */
static char *result[] = {
/* columns rows colors chars-per-pixel */
"64 64 44 1 ",
"  c #6F624D",
". c #72644F",
"X c #746551",
"o c #766953",
"O c #796B56",
"+ c #7C6E5A",
"@ c #7E725C",
"# c #7E7461",
"$ c #81735E",
"% c #837661",
"& c #857964",
"* c #897C66",
"= c #867B69",
"- c #8A7E69",
"; c #8D816B",
": c #91846E",
"> c #928571",
", c #968E7D",
"< c #9D9485",
"1 c #9E9788",
"2 c #9F998B",
"3 c #A19788",
"4 c #A49B8C",
"5 c #AB9E8E",
"6 c #A69E90",
"7 c #AA9F90",
"8 c #AAA08F",
"9 c #A7A092",
"0 c #ADA192",
"q c #B2A595",
"w c #B6A999",
"e c #BAAD9D",
"r c #BDB2A1",
"t c #BEB8A6",
"y c #C2B4A4",
"u c #C1B9A7",
"i c #C4BCAB",
"p c #C8BDAC",
"a c #C7BEB0",
"s c #C8BFB0",
"d c #C6C0AE",
"f c #C8C2AF",
"g c #C7C0B0",
"h c #C8C0B0",
/* pixels */
"qqqweeeeeerryryyuyyyytuuuuutttttttrrtretwtrtwtwtttttuduuduuduuii",
"qqwweeeeeeeryryyuuuuuuduuutduuttrtttrtetrttrttttttttuudddfduddii",
"qqwweereyryryyyyuuuuuuuuuttuuuiutttttttttrtttttttttdududdfddddfi",
"qwweeeeeyeyyyyyyuuuudududduduiiutttttwttttttttttdttddddddufdddff",
"qwweeeereyyyyyyuuuudduupuduiiiuutdtttttttttttudutdufddddddiddddd",
"qqweeereyryyyyuiuuduupdpiidiiiiittttttttuttudututdtdddtddfdfiddd",
"wwwweerrryyyyuuiuddupuiiiidiiiiidttdttttuuuttduiddtdddddddfppddd",
"wweeeerryrytuiuuudududiuifduiiiidddtddttuudtdtiidtdddtddddddddfi",
"qweeeeeyyryyyypyiiiiiidddududipddtdduiuduiudiiiidtddddgtfddidddi",
"eeeeeeyeryyyypiiyiiippudddddiduitddtidduduiiuddiddddddddffdididd",
"eweereyyyyyyypypupyipudddddddiiitddtiuudiiiduddddttgtgddfddddiid",
"wweeereeryyyyyiypiiiupppidididduddtdidduiiiiddduggdddddgfdpddddi",
"eweeerrryyyyypiyipyiiiipdddddiddduddudiiiiudddddddtgdddtddduiddd",
"weeeerryyyyyyyypyippiiiddtdiidudddududduidddddddddddtdddddddduii",
"weeeeerryryyyyyppppiiiiiddiduddpuuddduddfdiiiiddddddddddiddddiii",
"eeyeereryyyyyyyyyyiiiiuiiiiiddudddduduudiddddddudgtdddtiddidiiiu",
"weeyeeyyyyyyyyyyyppyppppupdpduuddpiiiiiiddudddddddddtgddtgdiiiii",
"eeeeeeeeeyyyyyyypyyppyppppudddddiidiiipiidddudidtgtdddddddiiiiit",
"weeeeeyyyyyyyyyyyypypppyppppudpuidiiiiiiidddddudtdgdddddddiiidit",
"eeeeeyeeyyyyyyyyypypyyppppppduupiiyppuiiidduddddddddddtidtiiutiu",
"weeeeeyeyyyeyyyyypyppypppppyypppiiiiiiiiiidddduddddiiidddidududt",
"eeeeeyyeeyyyyyyyyyyyyppyyppppyppiyiiiiiiiddtddddtddpiiiiiiudttut",
"weeeyeeeeyyeeyyyyyypypypppypyppypupuiiidiiddduddgiiiiiiiiiiuuuuu",
"eeeeeeeeyeeyeeeyyyyypyypypppyyypupiuuiidtiiidpdutgiiiiiiiiduuyty",
"qweeeeeeeeyeeyeeyyyypypypypyypyyuppupupypuddppppiipuupupuiyiytrr",
"wwwweeeeeyyeyeyyyyyyyyypypyppyypyyypypypypuuuuuppiyuupypiyiyyyyr",
"wwwweweeeeeyyeeyyyyyyyyyyppyypypppyypupypypuupupypypypyyyyyyyyyr",
"wwwweweeeeeeeyeeeeyyyyyyyypypypyyypyyupuypyypuuuuypyyyyyyyyyyyyr",
"qwwweweeeeeyeeeyyyyyyyyypypypypyyypyyppypyppypppppyyyyyyyyyyryrr",
"qwwwweweeyeeeyyeeyyeyyyyyyyyyppyyyyppypyyyypuuyyuuypyypyyyyryrye",
"wwwwweeeeeeyeyeeeyyyyyyyyyyyyyyyyypyypypppyppyypypyuyyyyyyyryrer",
"qqwwwwweweeeeeeyeyyyeyyyyyyyyyyyyyyyyyyyyyyypypyyyyyyyyyyyyyeyee",
"qqqwwwwweeeeeeeeeeeeeyyyyyyyyyyeyyyyyyyyyyyypyyyyyyyyyyyyeyeeyee",
"qqqqwwwwwwwweeeeyyereyeeyeyyeyyyyyyyyyyyyyyyyeyyyyyyyyyyeyyeeeee",
"qqqqwqqwqwwwwewereeeeyereeeeeyyyrrrryyeyyeeyyeyyeyyeyyeeeyeeweew",
"q5qqqqqwqwwwwweweeeeeeereeeeeeeeeeereeeeeyeeeeeeeeyeeyeeeeewewww",
"5q5qqqqqqqwwwwweweweeereeeeeeeeereeeeeeeeereeeeeeeyeyrreeeewqqwq",
"555qqqqqqwwwweewewweeeeeeeeerereeereeyreryreyeyeeyeereeeewwwwwqq",
"5q5qqqwqqwwwwwweweeeeeeeyeyeeeereeyeeyeyyeeyeeeeeeeyeeeeeewewqeq",
"555qqqqqqqqwwwwweweeyeeeeeeereeeereerereeeyeeyyeyreereereeweeweq",
"555qqqqqqqwqwwwwweweeeeeeereeeeeereeeyeeyyeyyeeeeyeeeeeeewewewww",
"5q5qqqqqqwqqqqwwweeeeeeeeeeeeeeeeereeeeyeeeeeyyeeeeeeeewewewqwww",
"55q5q5qq5qqqqqwwewwwweeeeeeeeeeeeeeeeyeeeeyeeeeeeeeeqeeeeeewwwwq",
"555q5q5qqqqqwqqwwwwwwwweweewreeeeereeeeeyeeeeeeeeeeweewewwwwwwqw",
"5555qqqqqqqqqwqqqqqwwwweweweeeweeeweeeeeeeeeeweweeweeeweewwwwwqw",
"5q5q55555qqqqqqqwqwwwwwwwwwewwwwewweeweweeewweeeeewwwwwwwwwwqqqq",
"555555q5qqqqqqqqqqqwwwwwwwwwwwwwqweewweeewewwewwwwwwwwwwwwwqqqqq",
"555q5q55q55q5qqqqqqqqwqqqqwqwqqqwewqwwwwwewwwwwwwwqwwwwwqqqwqwqq",
"55555555q55q5qqqqq0qqqqqqqqqqqqqwwwwwwwwwwwwwwwwqwqwwqwqqqqqwqqq",
",55555555qq55qq50qqqq0qqqqqqqqqqqqwqqqqwwqwwwqqwqqqqqqqqwqqwqqqq",
"3355555555qq5q5qq00q0q000qqqqqqqqqqqqqqqqqqqqqqqqqqqwqqqqqwqqqqq",
"555555555q55q55q00q0q00qqqqqqqqqqq0qqqqqqqqwqqqqwqqwqqqwqqqqqqqq",
"35555555q55q555q00qq0qq00q0qqqqqqqqqqqqqwqqqqqqwqqqqqqqqqqqqqqq5",
"3335555555555qq50000505qq0q005qqqqqq0q0qqqqqqqqqqqqqqqqqqqqqqqq5",
"5535355555555555500507q550q05q5q5qq5qqqqq8qqq8qqqqqqqwqqqqqqq5q5",
"35535535q555q55qq00q5q005050q5q5qqqqqqqqqqq8qqqqqqqqqqqqqqqqqqq5",
"2644556655qq5555070777898900q8885qqq0qq00q000qq800qqqqqqq5qq5555",
"2246364655,555559757455985995989559058050800008q09q90q9955557705",
"26767766555q7700997776999099999858090000800qq0q9q9qq0q0055054476",
"<222243253,544554645644494444498554599499923232222333231333<,,,<",
"##=======%%&=&&=*-&&---&@@@@@@@#%%%@--;=--&===;;;&;&;-;&=-&%%%##",
" XXoXXXoO++X.%%%&$&$$*$$@+@%$*;$**;$&$-%$$%%%&#%&&&;;:;----*%%#%",
"  XXXX+++@O.XOOOXXo$@$$$++$=&$$$@@o++@@@@$@@@%@@@@#;**---;----&&",
"o+X+++@%$@$O$$$$$$$$$$$$$$&=**;$**&%&&%%&&=&=%%%$%#;;::>>>>>>---"
};
