/* XPM */
static char *player_down[] = {
/* columns rows colors chars-per-pixel */
"64 64 23 1 ",
"  c black",
". c #610419",
"X c #000860",
"o c #8B0A22",
"O c #AB0021",
"+ c #B31333",
"@ c #D3004E",
"# c #DB4470",
"$ c #001081",
"% c #001689",
"& c #0020AA",
"* c #0026AA",
"= c #183CB2",
"- c #0029C2",
"; c #454CC2",
": c #7976F8",
"> c #FA1E90",
", c #F270A1",
"< c #9C85F8",
"1 c #F989C1",
"2 c #F8A2D9",
"3 c #F8CAF0",
"4 c #F8F8F8",
/* pixels */
"XXXXXXXXXXXXXXXXXXXXXXXXXXXXXXXXXXXXXXXXXXXXXXXXXXXXXXXXXXXXXXXX",
"XXXXXXXXXXXXXXXXXXXXXXXXXXXXXXXXXXXXXXXXXXXXXXXXXXXXXXXXXXXXXXXX",
"XXXXXXXXXXXXXXXXXXXXXXXXXXXXXXXXXXXXXXXXXXX%%XXXXXXXXXXXXXXXXXXX",
"XXXXXXXXXXXXXXXXXXXXXXXXXXXXXXXXXXXXXXXXXXX-%XXXXXXXXXXXXXXXXXXX",
"XXXXXXXXXXXXXXXXXXXXXXXXXXXXXXXX-%XXXXXXXXXXXXXXXXXXXXXXXXXXXXXX",
"XXXXXXXXXXXXXXXXXXXXXXXXXXXXXXXX%$XXXXXXXXXXXXXXXXXXXXXXXXXXXXXX",
"XXXXXXXXXXXXXXXXXXXXXXXXXXXXXXXXXXXXXXXXXXXXXXXXXXXXXXXXXXXXXXXX",
"XXXXXXXXXXXXXXXXXXXXXXXXXXXXXXXXXXXXXX*%XXXXXXXXXXXXXXXXXXXXXXXX",
"XXXXXXXXXXXXXXXXXXXXXXXXXXXXXXXXXXXXXX;*XXXXXXXXXXXXXXXXXXXXXXXX",
"XXXXXXXXX-XXXXXXXXXXXXXXXXXXXXXXXXXXXXXXXXXXXXXXXXXXXXXXXXXXXXXX",
"XXXXXXXX&;&XXXXXXXXXXXXXXXXXXXXXXXXXXXXXXXXXXXXXXXXXXXXXXXXXXXXX",
"XXXXXXX&=:=&XXXXXXXXXXXXXXXXXXXXXXXXXXXXXXXXXXXXXXXXXXXXXXXXXXXX",
"XXXXXX-;:<:;-XXXXXXXXXXXXXXXXXXXXXXXXXXXXXXXXXXXXXXXXXXXXXXXXXXX",
"XXXXXXX&=:=&XXXXXXXXXXXXXX............XXXXXXXXXXXXXXXXXXXXXXXXXX",
"XXXXXXXX&;&XXXXXXXXXXXXXXX............XXXXXXXXXXXXXXXXXXXXXXXXXX",
"XXXXXXXXX-XXXXXXXXXXXX....##,,1111,,##....XXXXXXXXXXXXXXXXXXXXXX",
"XXXXXXXXXXXXXXXXXXXXXX....##,,1111,,##....XXXXXXXXXXXXXXXXXXXXXX",
"XXXXXXXXXXXXXXXXXXXX..++,,222222222222,,++..XXXXXXXXXXXXXXXXXXXX",
"XXXXXXXXXXXXXXXXXXXX..++,,222222222222,,++..XXXXXXXXXXXXXXXXXXXX",
"XXXXXXXXXXXXXXXXXX..,,,,++2222,,++22222211##..XXXXXXXXXXXXXXXXXX",
"XXXXXXXXXXXXXXXXXX..,,,,++2222,,++22222211##..XXXXXXXXXXXXXXXXXX",
"XXXXXXXXXXXXXXXX..++11..442222..4422222222,,++..X:-XXXXXXXXXXXXX",
"XXXXXXXXXXXXXXXX..++11..442222..4422222222,,++..X-%XXXXXXXXXXXXX",
"XXXXXXXXXXXXXXXX..,,22    2222    2222222211,,..XXXXXXXXXXXXXXXX",
"XXXXXXXXXXXXXXXX..,,22    2222    2222222211,,..XXXXXXXXXXXXXXXX",
"XXXXXXXXXXXX....++1122  ..2222  ..2222222222,,++..XXXXXXXXXXXXXX",
"XXXXXXXXXXXX....++1122  ..2222  ..2222222222,,++..XXXXXXXXXXXXXX",
"XXXXXXXXXX..++..##2222  ++2222  ++2222222222,,##....XXXXXXXXXXXX",
"XXXXXXXXXX..++..##2222  ++2222  ++2222222222,,##....XXXX-%XXXXXX",
"XXXXXXXX..++,,..,,2222..##2222..##2222222222,,22,,##..XX%$XXXXXX",
"XXXXXXXX..++,,..,,2222..##2222..##2222222222,,22,,##..XXXXXXXXXX",
"XXXXXXXX..##,,..,,,,>>++,,2222++,,>>,,22222222222211##..XXXXXXXX",
"XXXXXXXX..##,,..,,,,>>++,,2222++,,>>,,22222222222211##..XXXXXXXX",
"XXXXXXXX..++,,..,,22222222222222222222222211,,222222,,..XXXXXXXX",
"XXXXXXXX..++,,..,,22222222222222222222222211,,222222,,..XXXXXXXX",
"XXXXXXXXXX..++..##22222222++11222222222222,,##222211##..XXXXXXXX",
"XXXXXXX%*X..++..##22222222++11222222222222,,##222211##..XXXXXXXX",
"XXXXXXX*;XXX....++112222222222222222222211,,..##,,##..XXXXXXXXXX",
"XXXXXXXXXXXX....++112222222222222222222211,,..##,,##..XXXXXXXXXX",
"XXXXXXXXXXXX..OO..##11222222222222222211,,OO........XXXXXXXXXXXX",
"XXXXXXXXXXXX..OO..##11222222222222222211,,OO........XXXXXXXXXXXX",
"XXXXXXXXXX..OO@@..oo##,,112222222211,,@@>>>>@@OO..XXXXXXXXXXXXXX",
"XXXXXXXXXX..OO@@..oo##,,112222222211,,@@>>>>@@OO..&XXXXXXXXXXXXX",
"XXXXXXXXXX..@@@@@@..oo##,,,,,,,,,,,,@@>>>>>>33>>OO..XXXXXXXXXXXX",
"XXXXXXXXXX..@@@@@@..oo##,,,,,,,,,,,,@@>>>>>>33>>OO..-XXXXXXXXXXX",
"XXXXXXXXXX..OO@@@@@@....++########@@>>>>>>>>>>>>@@..XXXXXXXXXXXX",
"XXXXXXXXXX..OO@@@@@@....++########@@>>>>>>>>>>>>@@..XXXXXXXXXXXX",
"XXXXXXXXXXXX......................OO@@@@@@@@@@@@OO..XXXXXXXXXXXX",
"XXXXXXXXXXXX......................OO@@@@@@@@@@@@OO..XXXXXXXXXXXX",
"XXXXXXXXXXXXXXXXX-XXXXXXXXXXXXXXXX................XXXXXXXXXXXXXX",
"XXXXXXXXXXXXXXXX&;&XXXXXXXXXXXXXXX................XXXXXXXXXXXXXX",
"XXXXXXXXXXXXXXX&=:=&XXXXXXXXXXXXXXXXXXXXXXXXXXXXXXXXXXXXXXXXXXXX",
"XXXXXXXXXXXXXX-;:<:;-XXXXXXXXXXXXXXXXXXXXXXXXXXXXXXXXXXXXXXXXXXX",
"XXXXXXXXXXXXXXX&=:=&XXXXXXXXXXXXXXXXXXXXXXXXXXXXXXXXXXXXXXXXXXXX",
"XXXXXXXXXXXXXXXX&;&XXXXXXXXXXXXXXXXXXXXXXXXXXXXXXXXXXXXXXXXXXXXX",
"XXXXXXXXXXXXXXXXX-XXXXXXXXXXXXXXXXXXXXXXXXXXXXXXXXXXXXXXXXXXXXXX",
"XXXXXXXXXXXXXXXXXXXXX%*XXXXXXXXXXXXXXXXXXXXXXXXXXXXXXXXXXXXXXXXX",
"XXXXXXXXXXXXXXXXXXXXX*;XXXXXXXXXXXXXXXXXXXXXXXXXXXXXXX;*XXXXXXXX",
"XXXXXXXXXXXXXXXXXXXXXXXXXXXXXXXXXXXXXXXXXXXXXXXXXXXXXX*%XXXXXXXX",
"XXXXXXXXXXXXXXXXXXXXXXXXXXXXXXXXXXXXXXXXXXXXXXXXXXXXXXXXXXXXXXXX",
"XXXXXXXXXXXXXXXXXXXXXXXXXXXXXXXXXXXXXXXXXXXXXXXXXXXXXXXXXXXXXXXX",
"XXXXXXXXXXXXXXXXXXXXXXXXXXXXXXXXXXXXXXXXXXXXXXXXXXXXXXXXXXXXXXXX",
"XXXXXXXXXXXXXXXXXXXXXXXXXXXXXXXXXXXXXXXXXXXXXXXXXXXXXXXXXXXXXXXX",
"XXXXXXXXXXXXXXXXXXXXXXXXXXXXXXXXXXXXXXXXXXXXXXXXXXXXXXXXXXXXXXXX"
};
